<?xml version="1.0" encoding="utf-8"?>
<!-- Generator: Adobe Illustrator 23.0.0, SVG Export Plug-In . SVG Version: 6.00 Build 0)  -->
<svg version="1.1" id="Capa_1" xmlns="http://www.w3.org/2000/svg" xmlns:xlink="http://www.w3.org/1999/xlink" x="0px" y="0px"
	 viewBox="0 0 510 510" style="enable-background:new 0 0 510 510;" xml:space="preserve">
<style type="text/css">
	.st0{fill:#00FFFF;}
	.st1{fill:#1C1C1C;}
</style>
<g>
	<g>
		<rect class="st0" width="510" height="510"/>
	</g>
	<g>
		<path class="st1" d="M127.44,306.04c-5.69-3.4-10.19-8.5-13.49-15.32c-3.3-6.82-4.95-15.12-4.95-24.91
			c0-9.54,1.7-17.89,5.09-25.05c3.4-7.16,7.94-12.63,13.63-16.42c5.69-3.79,11.87-5.69,18.53-5.69c3.43,0,7.03,0.83,10.83,2.48
			c3.79,1.65,6.94,3.76,9.45,6.33v-45.97h22.94v2.11c-0.67,0.73-1.1,1.55-1.28,2.43c-0.18,0.89-0.24,2.37-0.18,4.45l-0.37,107.27
			c0,2.14,0.12,4.02,0.37,5.64c0.24,1.62,0.79,3.26,1.65,4.91h-20.46c-0.86-1.59-1.36-3.09-1.51-4.5c-0.15-1.41-0.23-3.43-0.23-6.06
			c-1.84,4.4-4.74,7.74-8.72,10c-3.98,2.26-8.07,3.4-12.3,3.4C139.46,311.14,133.13,309.44,127.44,306.04z M166.72,263.42
			c0-8.44-1.22-15.17-3.67-20.19c-2.45-5.02-6.79-7.52-13.03-7.52c-6.61,0-11.55,2.75-14.82,8.26c-3.27,5.51-4.91,12.66-4.91,21.47
			c0,6.55,0.96,11.93,2.89,16.15c1.93,4.22,4.34,7.28,7.25,9.18c2.9,1.9,5.92,2.84,9.04,2.84
			C160.97,293.61,166.72,283.55,166.72,263.42z"/>
		<path class="st1" d="M243.01,323.07c-8.29-8.38-14.68-17.91-19.18-28.58c-4.5-10.67-6.74-21.67-6.74-32.99
			c0-11.19,2.17-21.98,6.52-32.34c4.34-10.37,10.57-19.64,18.67-27.8c8.1-8.17,17.63-14.54,28.58-19.13l4.86,16.33
			c-12.54,6.42-22.19,15.11-28.95,26.06c-6.76,10.95-10.14,23.43-10.14,37.44c0,9.12,1.59,17.86,4.77,26.24
			c3.18,8.38,7.8,15.87,13.86,22.48c6.06,6.61,13.24,11.87,21.56,15.78l-4.86,15.97C260.95,337.93,251.3,331.45,243.01,323.07z"/>
		<path class="st1" d="M311.05,326.55c8.32-3.92,15.51-9.18,21.56-15.78c6.06-6.61,10.67-14.1,13.86-22.48
			c3.18-8.38,4.77-17.13,4.77-26.24c0-14.01-3.38-26.49-10.14-37.44c-6.76-10.95-16.41-19.64-28.95-26.06l4.86-16.33
			c10.95,4.59,20.48,10.96,28.58,19.13c8.1,8.17,14.33,17.43,18.67,27.8c4.34,10.37,6.51,21.15,6.51,32.34
			c0,11.32-2.25,22.31-6.74,32.99c-4.5,10.68-10.89,20.2-19.18,28.58c-8.29,8.38-17.94,14.86-28.95,19.45L311.05,326.55z"/>
		<path class="st1" d="M423.96,309.07c-1.99-1.13-3.55-2.69-4.68-4.68c-1.13-1.99-1.7-4.14-1.7-6.47c0-2.26,0.57-4.36,1.7-6.29
			c1.13-1.93,2.69-3.46,4.68-4.59c1.99-1.13,4.14-1.7,6.47-1.7c2.26,0,4.36,0.57,6.29,1.7c1.93,1.13,3.46,2.66,4.59,4.59
			c1.13,1.93,1.7,4.02,1.7,6.29c0,2.33-0.57,4.48-1.7,6.47c-1.13,1.99-2.66,3.55-4.59,4.68s-4.02,1.7-6.29,1.7
			C428.1,310.77,425.95,310.2,423.96,309.07z"/>
	</g>
</g>
</svg>
