<?xml version="1.0" encoding="utf-8"?>
<!-- Generator: Adobe Illustrator 23.0.0, SVG Export Plug-In . SVG Version: 6.00 Build 0)  -->
<svg version="1.1" id="Capa_1" xmlns="http://www.w3.org/2000/svg" xmlns:xlink="http://www.w3.org/1999/xlink" x="0px" y="0px"
	 viewBox="0 0 496 496" style="enable-background:new 0 0 496 496;" xml:space="preserve">
<style type="text/css">
	.st0{fill:#00FFFF;}
</style>
<path class="st0" d="M112,72c0,22.1-17.9,40-40,40S32,94.1,32,72s17.9-40,40-40S112,49.9,112,72z"/>
<path d="M32,320h16v64H32V320z"/>
<path d="M32,288h16v16H32V288z"/>
<path d="M32,400h16v16H32V400z"/>
<path d="M240,96h16v80h-16V96z"/>
<path d="M297.2,187.5l61.9-61.9l11.3,11.3l-61.9,61.9L297.2,187.5z"/>
<path d="M198.9,187.6l-70.7-70.7C138.4,104.1,144,88.4,144,72c0-20.4-8.7-40-24-53.6C104.8,4.7,84.3-1.8,63.8,0.5
	C32.2,4,5.8,29.2,0.9,60.5c-3.3,21.1,2.8,42.4,16.6,58.4c2.2,2.5,4,5.2,5.8,7.9c-4.4,4.4-7.2,10.4-7.2,17.1c0,10.7,7,19.6,16.7,22.7
	C35.9,185.6,52.3,200,72,200s36.1-14.4,39.3-33.3c9.6-3.1,16.7-12.1,16.7-22.7c0-1.8-0.2-3.6-0.6-5.3l60.2,60.2L198.9,187.6z
	 M29.6,108.5C18.7,95.9,14.1,79.7,16.7,63C20.5,38.7,41,19.1,65.6,16.4c16.2-1.8,31.7,3.2,43.8,13.9C121.2,40.9,128,56.1,128,72
	c0,13.5-4.9,26.5-13.8,36.7c-3.1,3.5-5.7,7.4-8.1,11.5c-0.7-0.1-1.4-0.2-2.1-0.2H80V94.5c9.3-3.3,16-12.1,16-22.5
	c0-13.2-10.8-24-24-24S48,58.8,48,72c0,10.4,6.7,19.2,16,22.5V120H40c-0.8,0-1.5,0.2-2.2,0.2C35.4,116.1,32.7,112.1,29.6,108.5z
	 M64,72c0-4.4,3.6-8,8-8s8,3.6,8,8s-3.6,8-8,8S64,76.4,64,72z M72,184c-10.4,0-19.2-6.7-22.5-16h45C91.2,177.3,82.4,184,72,184z
	 M104,152H40c-4.4,0-8-3.6-8-8s3.6-8,8-8h64c4.4,0,8,3.6,8,8S108.4,152,104,152z"/>
<path d="M448,328h16v48h-16V328z"/>
<path d="M456,208H325.9v16H416v256H80V224h90.1v-16H40c-22.1,0-40,17.9-40,40v208c0,22.1,17.9,40,40,40h416c22.1,0,40-17.9,40-40
	V248C496,225.9,478.1,208,456,208z M16,456V248c0-13.2,10.8-24,24-24h24v256H40C26.8,480,16,469.2,16,456z M480,456
	c0,13.2-10.8,24-24,24h-24V224h24c13.2,0,24,10.8,24,24V456z"/>
<path d="M112,448V256h40v-16H96v224h304V240h-59.2v16H384v192H112z"/>
<path class="st0" d="M248,376c-57.3,0-104-46.7-104-104s46.7-104,104-104s104,46.7,104,104S305.3,376,248,376z"/>
<path d="M208,324.9V219.1L313.9,272L208,324.9z M224,244.9v54.1l54.1-27.1L224,244.9z"/>
<path class="st0" d="M437.7,160h-43.4l-4.4-13c-0.9-0.4-1.8-0.7-2.8-1.2l-12.3,6l-30.7-30.7l6-12.3c-0.4-0.9-0.8-1.8-1.2-2.8
	l-12.9-4.4V58.3l13-4.4c0.4-0.9,0.7-1.8,1.2-2.8l-6-12.3l30.7-30.7l12.3,6c0.9-0.4,1.8-0.8,2.8-1.2l4.4-13h43.4l4.4,13
	c0.9,0.4,1.8,0.7,2.8,1.2l12.3-6l30.7,30.7l-6,12.3c0.4,0.9,0.8,1.8,1.2,2.8l12.9,4.4v43.4l-13,4.4c-0.4,0.9-0.7,1.8-1.2,2.8l6,12.3
	l-30.7,30.7l-12.3-6c-0.9,0.4-1.8,0.8-2.8,1.2L437.7,160z"/>
<path d="M416,120c-22.1,0-40-17.9-40-40s17.9-40,40-40s40,17.9,40,40S438.1,120,416,120z M416,56c-13.2,0-24,10.8-24,24
	s10.8,24,24,24s24-10.8,24-24S429.2,56,416,56z"/>
<path d="M248,80c-13.2,0-24-10.8-24-24s10.8-24,24-24s24,10.8,24,24S261.2,80,248,80z M248,48c-4.4,0-8,3.6-8,8s3.6,8,8,8s8-3.6,8-8
	S252.4,48,248,48z"/>
<path d="M304,56h-16c0-22.1-17.9-40-40-40s-40,17.9-40,40h-16c0-30.9,25.1-56,56-56S304,25.1,304,56z"/>
</svg>
