<?xml version="1.0" encoding="utf-8"?>
<!-- Generator: Adobe Illustrator 23.0.0, SVG Export Plug-In . SVG Version: 6.00 Build 0)  -->
<svg version="1.1" id="Capa_1" xmlns="http://www.w3.org/2000/svg" xmlns:xlink="http://www.w3.org/1999/xlink" x="0px" y="0px"
	 viewBox="0 0 929 263" style="enable-background:new 0 0 929 263;" xml:space="preserve">
<style type="text/css">
	.st0{fill:#326387;}
	.st1{fill:#A02C56;}
</style>
<title>logo_clientes_</title>
<g>
	<path class="st0" d="M255.6,151.9c0.7-0.4,1.3-1,1.8-1.7c0.7-1.1,1.1-2.4,1.1-3.7c0.1-1.9-0.7-3.8-2.1-5.1
		c-1.6-1.3-3.6-1.9-5.7-1.8h-9.5V165h9.7c2.1,0.1,4.1-0.6,5.8-1.9c1.5-1.4,2.3-3.3,2.2-5.3c0-1.4-0.4-2.8-1.1-4
		C257.1,153,256.4,152.3,255.6,151.9z M244.9,153.7h5.7c1.2-0.1,2.4,0.3,3.4,1c0.8,0.7,1.2,1.8,1.1,2.9c0.1,1.1-0.3,2.2-1.1,2.9
		c-1,0.7-2.2,1.1-3.4,1H245L244.9,153.7z M253.6,149.4c-0.9,0.7-2.1,1-3.2,0.9h-5.5V143h5.5c1.1-0.1,2.3,0.3,3.2,0.9
		c0.8,0.7,1.1,1.7,1.1,2.7C254.8,147.7,254.4,148.7,253.6,149.4z"/>
	<rect x="263.9" y="144.7" class="st0" width="4.3" height="4.4"/>
	<rect x="263.9" y="156.6" class="st0" width="4.3" height="4.4"/>
	<path class="st0" d="M282.7,139.6h-8.9V165h8.9c2.4,0.1,4.8-0.7,6.5-2.4c1.6-1.6,2.4-4.1,2.4-7.4v-5.7c0-3.4-0.8-5.9-2.4-7.4
		C287.4,140.4,285.1,139.5,282.7,139.6z M282.7,161.5h-5.1v-18.4h5.1c1.4-0.1,2.8,0.4,3.8,1.5c0.9,1,1.4,2.7,1.4,5v5.7
		C287.9,159.4,286.2,161.5,282.7,161.5L282.7,161.5z"/>
	<polygon class="st0" points="296.8,149.6 300.2,146.3 300.2,139.6 296.8,139.6 	"/>
	<path class="st0" d="M312.3,139.6L303,165h4l2-5.8h9.5l2,5.8h3.9l-9.2-25.4L312.3,139.6z M317.3,155.8h-7.2l3.6-10.3L317.3,155.8z"
		/>
	<polygon class="st0" points="325.4,149.6 328.9,146.3 328.9,139.6 325.4,139.6 	"/>
	<polygon class="st0" points="333.5,139.6 333.5,149.6 337,146.3 337,139.6 	"/>
	<path class="st1" d="M322.1,97h-77.4c-30.5,0-55.9,24.8-55.9,55.3s25.5,55.3,55.9,55.3h77.3c30.5,0,55.9-24.8,55.9-55.3
		S352.6,97,322.1,97z M322.1,204.2h-77.4c-28.6,0-52.6-23.3-52.6-51.9s24-51.9,52.6-51.9h77.3c28.6,0,52.6,23.3,52.6,51.9
		S350.8,204.2,322.1,204.2L322.1,204.2z M322.1,88.2h-77.4c-35.3,0-65,28.7-65,64s29.7,64,65,64h77.3c35.3,0,65-28.7,65-64
		S357.5,88.2,322.1,88.2L322.1,88.2z M322.1,213h-77.4c-33.5,0-61.7-27.2-61.7-60.7s28.2-60.7,61.7-60.7h77.3
		c33.5,0,61.7,27.2,61.7,60.7S355.6,212.9,322.1,213L322.1,213z M322.1,114.5h-77.4c-20.8-0.3-38,16.3-38.4,37.1
		c-0.3,20.8,16.3,38,37.1,38.4c0.4,0,0.8,0,1.2,0h77.3c20.8-0.3,37.5-17.5,37.1-38.4C358.9,131.3,342.5,114.9,322.1,114.5
		L322.1,114.5z M322.1,186.7h-77.4c-19,0.3-34.6-14.8-35-33.8s14.8-34.6,33.8-35c0.4,0,0.8,0,1.2,0h77.3c19,0.3,34.1,16,33.8,35
		C355.6,171.4,340.7,186.3,322.1,186.7L322.1,186.7z M322.1,105.8h-77.4c-25.6,0-46.8,20.9-46.8,46.5s21.2,46.5,46.9,46.5h77.4
		c25.6,0,46.8-20.9,46.8-46.5S347.8,105.8,322.1,105.8L322.1,105.8z M322.1,195.4h-77.4c-23.8,0-43.5-19.4-43.5-43.1
		s19.7-43.2,43.5-43.2h77.3c23.8,0,43.5,19.4,43.5,43.2S345.9,195.4,322.1,195.4L322.1,195.4z"/>
	<path class="st0" d="M436.5,154.9c0.2,2.7-0.9,5.4-2.9,7.3c-1.9,1.8-4.6,2.6-8,2.6H412v-36.1h13.2c3.4,0,6,0.8,7.9,2.5
		c1.9,1.8,2.9,4.4,2.8,7c0,1.8-0.5,3.5-1.5,5c-1,1.4-2.4,2.5-4.1,3c1.8,0.5,3.5,1.6,4.6,3.2C436,151,436.5,153,436.5,154.9z
		 M415.8,144.7h9c1.9,0.1,3.8-0.4,5.3-1.6c1.4-1.2,2.1-2.9,1.9-4.7c0.1-1.8-0.6-3.5-1.9-4.7c-1.5-1.2-3.4-1.7-5.3-1.6h-9
		L415.8,144.7z M432.6,154.7c0.1-1.9-0.6-3.7-2-4.9c-1.6-1.2-3.6-1.8-5.6-1.7h-9.3v13.4h9.3c2,0.1,4-0.5,5.6-1.7
		C432,158.4,432.8,156.6,432.6,154.7L432.6,154.7z"/>
	<path class="st0" d="M448.4,128.7v36.1h-3.8v-36.1H448.4z"/>
	<path class="st0" d="M461,144.7h15.5v3.5H461v13.2h18.1v3.4h-22v-36.1h21.9v3.5H461V144.7z"/>
	<path class="st0" d="M512.1,164.8h-3.8l-18.7-29.1v29.1h-3.8v-36.1h3.8l18.7,29v-29h3.8V164.8z"/>
	<path class="st0" d="M544.2,128.7c3.8,0,6.9,1.1,9.1,3.3c2.2,2.2,3.4,5.7,3.4,10.5v8.5c0,4.8-1.1,8.3-3.4,10.5
		c-2.3,2.2-5.3,3.3-9.1,3.3h-12.4v-36.1H544.2z M552.8,151.2v-8.5c0-3.7-0.8-6.3-2.2-8c-1.6-1.7-4-2.7-6.4-2.5h-8.5v29.2h8.5
		C550,161.4,552.8,158,552.8,151.2L552.8,151.2z"/>
	<path class="st0" d="M568.2,144.7h15.5v3.5h-15.5v13.2h18.1v3.4h-21.9v-36.1h21.9v3.5h-18.1V144.7z"/>
	<path class="st0" d="M607.6,156.1l-3,8.7h-4l13.1-36.1h3.2l13.1,36.1h-4l-3-8.7H607.6z M615.2,134l-6.5,18.9h13.1L615.2,134z"/>
	<path class="st0" d="M638.4,128.7v32.7h18v3.4h-21.8v-36.1H638.4z"/>
	<path class="st0" d="M666,128.7v32.7h18v3.4h-21.8v-36.1H666z"/>
	<path class="st0" d="M693.7,144.7h15.5v3.5h-15.5v13.2h18.1v3.4h-21.9v-36.1h21.9v3.5h-18.1V144.7z"/>
	<path class="st0" d="M744.9,164.8h-3.8l-18.7-29.1v29.1h-3.8v-36.1h3.8l18.7,29v-29h3.8V164.8z"/>
	<path class="st0" d="M416.6,176.4l-0.4,1.7c0.4-0.6,0.9-1,1.5-1.4c0.6-0.3,1.3-0.5,1.9-0.5c0.9,0,1.8,0.3,2.4,0.8
		c0.7,0.7,1,1.6,0.9,2.5c0,0.5-0.1,1-0.2,1.5l-0.5,2.6c-0.2,1.4-0.9,2.7-1.9,3.7c-0.9,0.7-2,1.2-3.1,1.1c-1.3,0.1-2.5-0.6-3-1.8
		l-1.1,5.3h-1.6l3.3-15.6L416.6,176.4z M421.2,181.3c0.1-0.4,0.1-0.8,0.1-1.3c0.1-0.6-0.2-1.3-0.6-1.8c-0.4-0.4-1-0.6-1.6-0.5
		c-0.9,0-1.8,0.3-2.4,1c-0.7,0.8-1.1,1.7-1.3,2.7l-0.4,2c-0.1,0.4-0.1,0.8-0.1,1.2c0,0.7,0.2,1.3,0.6,1.9c0.5,0.5,1.1,0.7,1.8,0.7
		c1.8,0,2.9-1.2,3.4-3.6L421.2,181.3z"/>
	<path class="st0" d="M435,179.8c0,0.5-0.1,1.1-0.2,1.6l-0.3,1.4H427l-0.1,0.7c-0.1,0.5-0.2,0.9-0.2,1.4c-0.1,0.7,0.2,1.3,0.7,1.8
		c0.5,0.4,1.2,0.5,1.9,0.5c0.7,0,1.5-0.2,2.1-0.6c0.6-0.4,1-1.1,1.1-1.8h1.6c-0.2,1.1-0.8,2.1-1.7,2.8c-1,0.7-2.1,1-3.3,1
		c-1,0.1-2-0.3-2.9-0.9c-0.8-0.7-1.2-1.7-1.1-2.7c0-0.5,0.1-1.1,0.2-1.6l0.4-2.1c0.2-1.5,0.9-2.8,2-3.8c1-0.8,2.2-1.3,3.5-1.2
		c1,0,2,0.3,2.8,0.9C434.6,177.8,435,178.8,435,179.8z M432.8,178.2c-0.5-0.4-1.1-0.5-1.7-0.5c-0.8,0-1.7,0.3-2.3,0.8
		c-0.8,0.7-1.2,1.7-1.4,2.8v0.3h5.9l0.1-0.4c0.1-0.4,0.1-0.8,0.1-1.2C433.5,179.2,433.2,178.6,432.8,178.2L432.8,178.2z"/>
	<path class="st0" d="M440.6,176.4l-0.4,1.6c0.8-1.1,2.1-1.8,3.5-1.8c0.3,0,0.6,0,0.9,0.1l-0.4,1.6c-0.4-0.1-0.8-0.2-1.2-0.2
		c-0.8,0-1.6,0.3-2.2,0.9c-0.7,0.6-1.1,1.5-1.3,2.4l-1.6,7.4h-1.6l2.5-12H440.6z"/>
	<path class="st0" d="M448.6,176.4l-2.6,12h-1.6l2.5-12H448.6z M449.6,172.3l-0.5,2.1h-1.7l0.5-2.1H449.6z"/>
	<path class="st0" d="M450.1,185.2c0-0.5,0.1-1,0.2-1.5l0.5-2.5c0.2-1.4,0.9-2.8,2-3.8c1-0.8,2.3-1.2,3.5-1.2c1,0,2,0.2,2.8,0.8
		c0.7,0.6,1.1,1.6,1,2.6c0,0.5-0.1,1-0.2,1.5l-0.5,2.5c-0.2,1.4-0.9,2.8-2,3.8c-1,0.8-2.2,1.2-3.5,1.2c-1,0.1-2-0.2-2.8-0.8
		C450.4,187.1,450,186.1,450.1,185.2z M457.8,183.6l0.5-2.3c0.1-0.4,0.2-0.9,0.2-1.3c0-1.5-0.8-2.2-2.4-2.2c-0.9,0-1.7,0.3-2.4,0.8
		c-0.7,0.7-1.2,1.7-1.4,2.8l-0.5,2.3c-0.1,0.4-0.1,0.8-0.1,1.3c-0.1,0.7,0.2,1.3,0.7,1.8c0.5,0.4,1.1,0.5,1.8,0.5
		c0.8,0,1.6-0.3,2.3-0.8C457.2,185.6,457.7,184.6,457.8,183.6z"/>
	<path class="st0" d="M462,185.3c0-0.5,0.1-1.1,0.2-1.6l0.5-2.5c0.2-1.4,0.9-2.7,1.9-3.7c0.9-0.8,2-1.2,3.1-1.2
		c1.3-0.1,2.5,0.6,2.9,1.8l1.3-6h1.6l-3.5,16.3h-1.6l0.4-1.6c-0.8,1.1-2.2,1.8-3.5,1.7c-0.9,0-1.7-0.2-2.4-0.8
		C462.3,187.1,461.9,186.2,462,185.3z M469.5,183.5l0.5-2.1c0.1-0.4,0.1-0.8,0.1-1.2c0-0.7-0.2-1.3-0.6-1.9
		c-0.4-0.5-1.1-0.7-1.7-0.7c-1.8,0-2.9,1.2-3.5,3.6l-0.5,2.3c-0.1,0.4-0.1,0.9-0.1,1.3c0,1.5,0.7,2.3,2.2,2.3c0.9,0,1.8-0.3,2.4-1
		C468.9,185.4,469.4,184.5,469.5,183.5L469.5,183.5z"/>
	<path class="st0" d="M477.9,176.4l-2.6,12h-1.6l2.5-12H477.9z M478.8,172.3l-0.5,2.1h-1.7l0.5-2.1H478.8z"/>
	<path class="st0" d="M478.9,185h1.5c0,0.6,0.2,1.2,0.6,1.7c0.6,0.4,1.3,0.6,2.1,0.6c0.8,0,1.6-0.2,2.2-0.7c0.6-0.4,0.9-1.1,0.9-1.8
		c0-0.4-0.1-0.8-0.5-1.1c-0.4-0.3-0.9-0.5-1.4-0.5l-1.4-0.3c-0.8-0.1-1.5-0.4-2.2-0.9c-0.5-0.4-0.7-1.1-0.7-1.7
		c0-0.7,0.2-1.5,0.6-2.1c0.4-0.6,1-1.1,1.6-1.4c0.8-0.4,1.6-0.5,2.5-0.5c1.1-0.1,2.2,0.2,3,0.9c0.7,0.7,1,1.6,1,2.5h-1.6
		c0-0.6-0.2-1.2-0.6-1.6c-0.6-0.4-1.3-0.6-2-0.5c-0.8,0-1.5,0.2-2.1,0.7c-0.5,0.4-0.8,1-0.8,1.7c0,0.4,0.1,0.8,0.4,1
		c0.4,0.3,0.8,0.5,1.3,0.5l1.5,0.3c0.8,0.1,1.6,0.4,2.2,0.9c0.5,0.5,0.7,1.1,0.7,1.8c0.1,1.2-0.4,2.3-1.4,3c-1,0.8-2.3,1.2-3.6,1.1
		c-1.1,0.1-2.2-0.3-3-0.9C479.2,187,478.8,186,478.9,185z"/>
	<path class="st0" d="M494,176.4l-0.3,1.5c0.9-1,2.2-1.6,3.5-1.6c0.7,0,1.4,0.2,2.1,0.5c0.5,0.4,0.9,0.9,1,1.5c0.9-1.3,2.4-2,4-2
		c0.9-0.1,1.8,0.2,2.5,0.8c0.6,0.6,0.9,1.4,0.9,2.3c0,0.4-0.1,0.8-0.1,1.2l-1.7,7.9h-1.6l1.6-7.6c0.1-0.3,0.1-0.6,0.1-0.9
		c0-0.6-0.2-1.2-0.6-1.6c-0.5-0.4-1.1-0.6-1.7-0.5c-0.8,0-1.6,0.3-2.2,0.8c-0.6,0.6-1.1,1.3-1.2,2.2l-1.6,7.7H497l1.6-7.6
		c0.1-0.3,0.1-0.6,0.1-0.9c0-0.6-0.2-1.2-0.6-1.6c-0.5-0.4-1.1-0.6-1.7-0.5c-0.8,0-1.6,0.3-2.2,0.8c-0.6,0.6-1.1,1.4-1.2,2.3
		l-1.6,7.6h-1.5l2.5-12L494,176.4z"/>
	<path class="st0" d="M509.9,185.2c0-0.5,0.1-1,0.2-1.5l0.5-2.5c0.2-1.4,0.9-2.8,2-3.8c1-0.8,2.3-1.2,3.5-1.2c1,0,2,0.2,2.8,0.8
		c0.7,0.6,1.1,1.6,1,2.6c0,0.5-0.1,1-0.2,1.5l-0.5,2.5c-0.2,1.4-0.9,2.8-2,3.8c-1,0.8-2.2,1.2-3.5,1.2c-1,0.1-2-0.2-2.8-0.8
		C510.2,187.1,509.8,186.1,509.9,185.2z M517.6,183.6l0.5-2.3c0.1-0.4,0.2-0.9,0.2-1.3c0-1.5-0.8-2.2-2.4-2.2
		c-0.8,0-1.7,0.3-2.3,0.8c-0.7,0.7-1.2,1.7-1.4,2.8l-0.5,2.3c-0.1,0.4-0.1,0.8-0.1,1.3c-0.1,0.7,0.2,1.3,0.6,1.8
		c0.5,0.4,1.2,0.5,1.8,0.5c0.8,0,1.6-0.3,2.3-0.8C517,185.6,517.5,184.6,517.6,183.6z"/>
	<path class="st0" d="M527,185.3c0-0.5,0.1-1.1,0.2-1.6l0.5-2.5c0.2-1.4,0.9-2.7,1.9-3.7c0.9-0.8,2-1.2,3.2-1.2
		c1.3-0.1,2.5,0.6,2.9,1.8l1.3-6h1.6l-3.5,16.3h-1.6l0.3-1.6c-0.8,1.1-2.2,1.8-3.5,1.7c-0.9,0-1.7-0.2-2.4-0.8
		C527.3,187.1,526.9,186.2,527,185.3z M534.5,183.5l0.5-2.1c0.1-0.4,0.1-0.8,0.1-1.2c0-0.7-0.2-1.3-0.6-1.9
		c-0.4-0.5-1.1-0.7-1.7-0.7c-1.8,0-2.9,1.2-3.5,3.6l-0.5,2.3c-0.1,0.4-0.2,0.9-0.2,1.3c0,1.5,0.7,2.3,2.2,2.3c0.9,0,1.8-0.3,2.4-1
		C533.9,185.4,534.3,184.5,534.5,183.5L534.5,183.5z"/>
	<path class="st0" d="M549.1,179.8c0,0.5-0.1,1.1-0.2,1.6l-0.3,1.4h-7.5l-0.1,0.7c-0.1,0.5-0.2,0.9-0.2,1.4
		c-0.1,0.7,0.2,1.3,0.7,1.8c0.5,0.4,1.2,0.5,1.9,0.5c0.7,0,1.5-0.2,2.1-0.6c0.6-0.4,1-1.1,1.1-1.8h1.6c-0.2,1.1-0.8,2.1-1.7,2.8
		c-1,0.7-2.1,1-3.3,1c-1,0.1-2-0.3-2.9-0.9c-0.8-0.7-1.2-1.7-1.1-2.7c0-0.5,0.1-1.1,0.2-1.6l0.4-2.1c0.2-1.5,0.9-2.8,2-3.8
		c1-0.8,2.2-1.3,3.5-1.2c1-0.1,2,0.3,2.8,0.9C548.8,177.8,549.2,178.8,549.1,179.8z M546.9,178.2c-0.5-0.4-1.1-0.5-1.7-0.5
		c-0.8,0-1.7,0.3-2.3,0.8c-0.8,0.7-1.2,1.7-1.4,2.8v0.3h5.9l0.1-0.4c0.1-0.4,0.1-0.8,0.2-1.2C547.6,179.3,547.3,178.6,546.9,178.2
		L546.9,178.2z"/>
	<path class="st0" d="M554.8,176.4l-0.4,1.7c0.4-0.6,0.9-1,1.5-1.4c0.6-0.3,1.3-0.5,1.9-0.5c0.9,0,1.8,0.3,2.4,0.8
		c0.7,0.7,1,1.6,0.9,2.5c0,0.5-0.1,1-0.2,1.5l-0.5,2.6c-0.2,1.4-0.9,2.7-1.9,3.7c-0.9,0.7-2,1.2-3.1,1.1c-1.3,0.1-2.5-0.6-3-1.8
		l-1.1,5.3h-1.6l3.3-15.6L554.8,176.4z M559.4,181.3c0.1-0.4,0.1-0.9,0.1-1.3c0.1-0.6-0.2-1.3-0.6-1.8c-0.4-0.4-1-0.6-1.6-0.5
		c-0.9,0-1.8,0.3-2.4,1c-0.7,0.8-1.1,1.7-1.3,2.7l-0.4,2c-0.1,0.4-0.1,0.8-0.2,1.2c0,0.7,0.2,1.3,0.6,1.9c0.5,0.5,1.1,0.7,1.8,0.7
		c1.8,0,2.9-1.2,3.4-3.6L559.4,181.3z"/>
	<path class="st0" d="M563.2,185.2c0-0.5,0.1-1,0.2-1.5l0.5-2.5c0.2-1.4,0.9-2.8,2-3.8c1-0.8,2.3-1.2,3.5-1.2c1,0,2,0.2,2.8,0.8
		c0.7,0.6,1.1,1.6,1,2.6c0,0.5-0.1,1-0.2,1.5l-0.5,2.5c-0.2,1.4-0.9,2.8-2,3.8c-1,0.8-2.2,1.2-3.5,1.2c-1,0.1-2-0.2-2.8-0.8
		C563.5,187.1,563.1,186.1,563.2,185.2z M570.9,183.6l0.5-2.3c0.1-0.4,0.2-0.9,0.2-1.3c0-1.5-0.8-2.2-2.4-2.2
		c-0.8,0-1.7,0.3-2.3,0.8c-0.7,0.7-1.2,1.7-1.4,2.8l-0.5,2.3c-0.1,0.4-0.1,0.9-0.1,1.3c-0.1,0.7,0.2,1.3,0.7,1.8
		c0.5,0.4,1.2,0.5,1.8,0.5c0.8,0,1.6-0.3,2.3-0.8C570.3,185.6,570.8,184.6,570.9,183.6L570.9,183.6z"/>
	<path class="st0" d="M578.8,176.4l-0.4,1.6c0.8-1.1,2.1-1.8,3.5-1.8c0.3,0,0.6,0,0.9,0.1l-0.4,1.6c-0.4-0.1-0.8-0.2-1.2-0.2
		c-0.8,0-1.6,0.3-2.2,0.9c-0.7,0.6-1.1,1.5-1.3,2.4l-1.6,7.4h-1.6l2.5-12H578.8z"/>
	<path class="st0" d="M585.9,185.9c0,0.7,0.4,1.1,1.3,1.1h0.9l-0.3,1.4h-1.2c-0.6,0-1.3-0.2-1.8-0.6c-0.4-0.4-0.7-1-0.6-1.6
		c0-0.3,0-0.6,0.1-0.9l1.7-7.8h-1.9l0.3-1.3h1.9l0.6-2.8l1.8-0.8l-0.8,3.5h2.7l-0.3,1.3h-2.7l-1.6,7.7
		C585.9,185.6,585.9,185.7,585.9,185.9z"/>
	<path class="st0" d="M595.1,176.4l-2.6,12H591l2.5-12H595.1z M596,172.3l-0.5,2.1h-1.7l0.5-2.1H596z"/>
	<path class="st0" d="M598.9,176.4l1.1,9.6l5.2-9.6h1.8l-6.7,12h-1.5l-1.6-12H598.9z"/>
	<path class="st0" d="M607,185.2c0-0.5,0.1-1,0.2-1.5l0.5-2.5c0.2-1.4,0.9-2.8,2-3.8c1-0.8,2.3-1.2,3.5-1.2c1,0,2,0.2,2.8,0.8
		c0.7,0.6,1.1,1.6,1,2.6c0,0.5-0.1,1-0.2,1.5l-0.5,2.5c-0.2,1.4-0.9,2.8-2,3.8c-1,0.8-2.2,1.2-3.5,1.2c-1,0.1-2-0.2-2.8-0.8
		C607.3,187.1,606.9,186.1,607,185.2z M614.7,183.6l0.5-2.3c0.1-0.4,0.2-0.9,0.2-1.3c0-1.5-0.8-2.2-2.4-2.2c-0.8,0-1.7,0.3-2.3,0.8
		c-0.7,0.7-1.2,1.7-1.4,2.8l-0.5,2.3c-0.1,0.4-0.1,0.9-0.1,1.3c-0.1,0.7,0.2,1.3,0.7,1.8c0.5,0.4,1.2,0.5,1.8,0.5
		c0.8,0,1.6-0.3,2.3-0.8C614.1,185.6,614.6,184.6,614.7,183.6L614.7,183.6z"/>
</g>
</svg>
