<?xml version="1.0" encoding="utf-8"?>
<!-- Generator: Adobe Illustrator 24.1.2, SVG Export Plug-In . SVG Version: 6.00 Build 0)  -->
<svg version="1.1" id="Capa_1" xmlns="http://www.w3.org/2000/svg" xmlns:xlink="http://www.w3.org/1999/xlink" x="0px" y="0px"
	 viewBox="0 0 925 263" style="enable-background:new 0 0 925 263;" xml:space="preserve">
<style type="text/css">
	.st0{display:none;fill:#ED1C24;}
	.st1{fill:#021226;}
</style>
<path class="st0" d="M544.6,195h-32.7c-5.6,0-4.4-5.3-4.4-5.3l1.6-10.2c0,0,0.4-4.5,4.9-4.5h30.6c10.5,0,15.8-1.8,15.8-7.4
	c0-7.1-7.7-6.5-12-6.5c-8.2,0-33.5,2.5-33.5-25.9c0-27.4,29-27.4,36.6-27.4h29.1c4.1,0,3.3,4.6,3.3,4.6l-2.1,11.1
	c-0.6,2.6-2.9,4.5-5.6,4.4h-24.7c-3.6,0-15.8-1.6-15.8,7.4c0,7.2,8.7,5.9,12.1,5.9c10.2,0,33.5-0.4,33.5,26.5
	C581.2,195,553.7,195,544.6,195z"/>
<path class="st0" d="M468.2,195h-32.7c-5.6,0-4.4-5.3-4.4-5.3l1.6-10.2c0,0,0.4-4.5,4.9-4.5h30.6c10.5,0,15.8-1.8,15.8-7.4
	c0-7.1-7.7-6.5-12-6.5c-8.2,0-33.6,2.5-33.6-25.9c0-27.4,29-27.4,36.6-27.4h29.1c4.1,0,3.3,4.6,3.3,4.6l-2.1,11.1
	c-0.6,2.6-2.9,4.5-5.6,4.4H475c-3.6,0-15.8-1.6-15.8,7.4c0,7.2,8.7,5.9,12.2,5.9c10.2,0,33.4-0.4,33.4,26.5
	C504.8,195,477.3,195,468.2,195z"/>
<path class="st0" d="M355.4,196c-1.4,0-2.8-0.6-3.7-1.7c-0.9-1.1-1.3-2.6-1-4.1l14.1-74.9c0.4-2.4,2.3-4.1,5.5-5l11.1-2.6h0.2
	c1.4,0,2.8,0.6,3.7,1.7c0.9,1.1,1.3,2.6,1,4l-0.5,3c7-6.5,14.4-9.8,21.9-9.8c16.5,0,25.3,10.8,25.3,31.2c-0.2,10.7-3.4,21.1-9.3,30
	c-5.4,7.9-15.4,17.3-32.6,17.3c-6,0.1-11.8-1.9-16.5-5.7l-2.9,11.5c-0.6,2.9-3.1,5-6,5.1L355.4,196z M400.6,126.9
	c-6.5,0-17.7,6.2-18.7,11.6c-1,5.2-1.3,6.8-2,11.1c-0.5,2.6-1.1,6.3-2.2,12.5c-0.1,0.3,0,0.7,0.2,0.9c1.5,1.8,8.2,1.8,11.1,1.8h0.4
	c17.4,0,21.8-14.5,22.9-20.8s0.5-10.8-1.9-13.6C408.4,128.1,405.1,126.9,400.6,126.9L400.6,126.9z"/>
<path class="st0" d="M698.8,124.9c-0.3,1.6-1.7,2.7-3.3,2.8h-91c-1.3,0-2.3-0.9-2.3-2.2c0-0.2,0-0.4,0.1-0.6l2.5-14.5
	c0.3-1.6,1.7-2.7,3.3-2.8h91c1.2-0.1,2.3,0.9,2.3,2.2c0,0.2,0,0.4-0.1,0.6L698.8,124.9z"/>
<path class="st0" d="M718.9,158.8c-0.3,1.6-1.7,2.7-3.3,2.8H600.1c-1.2,0.1-2.3-0.9-2.3-2.2c0-0.2,0-0.4,0.1-0.6l2.5-14.4
	c0.3-1.6,1.7-2.7,3.3-2.8h115.5c1.3,0,2.3,1,2.3,2.2c0,0.2,0,0.4-0.1,0.6L718.9,158.8z"/>
<path class="st0" d="M738.6,192.7c-0.3,1.6-1.7,2.7-3.3,2.8H594.2c-1.3,0-2.3-0.9-2.3-2.2c0-0.2,0-0.4,0.1-0.6l2.5-14.5
	c0.3-1.6,1.7-2.7,3.3-2.8h141.1c1.3,0,2.3,0.9,2.3,2.2c0,0.2,0,0.4-0.1,0.6L738.6,192.7z"/>
<path class="st0" d="M248.5,124.9c-0.3,1.2,0.4,2.4,1.6,2.7c0.2,0.1,0.4,0.1,0.6,0.1h91c1.6-0.1,3-1.2,3.3-2.8l2.7-14.5
	c0.3-1.2-0.4-2.4-1.6-2.7c-0.2-0.1-0.4-0.1-0.6-0.1h-91c-1.6,0.1-3,1.2-3.3,2.8L248.5,124.9z"/>
<path class="st0" d="M216,158.8c-0.3,1.2,0.4,2.4,1.6,2.7c0.2,0.1,0.4,0.1,0.6,0.1h115.6c1.6-0.1,3-1.2,3.3-2.8l2.7-14.4
	c0.3-1.2-0.5-2.4-1.7-2.7c-0.2,0-0.4-0.1-0.6-0.1H222.1c-1.6,0.1-3,1.2-3.3,2.8L216,158.8z"/>
<polygon class="st1" points="304.7,202.7 295.1,202.7 295.1,198.9 318.7,198.9 318.7,202.7 309,202.7 308.9,224.6 304.6,224.6 "/>
<path class="st1" d="M358,198.9h5l11.4,25.7h-4.8l-2.3-5.5h-13.7l-2.3,5.5h-4.7L358,198.9z M365.9,215.5l-5.4-13.1l-5.4,13.1H365.9z
	"/>
<path class="st1" d="M418.7,198.8c9.6,0,12,2.3,12,6.7c0.2,2.6-1.5,5-4,5.8c3.7,1.2,4.9,3.6,4.9,6.3c0,4.9-1.9,7.2-12.9,7.2h-10.2
	v-26H418.7z M412.9,209.7h7.6c4.7,0,6-1.3,6-3.6c0-2.8-1.9-3.8-7.6-3.8H413v7.5H412.9z M412.9,221.4h5.9c6.6,0,8.4-1,8.4-4.2
	c0-2.9-2-4.3-6.9-4.3h-7.6v8.5H412.9z"/>
<path class="st1" d="M475.7,198.9h5l11.4,25.7h-4.8l-2.3-5.5h-13.7l-2.3,5.5h-4.8L475.7,198.9z M483.5,215.5l-5.4-13.1l-5.4,13.1
	H483.5z"/>
<path class="st1" d="M536.6,225.3c-9.3,0-12.7-5.3-12.7-13.6s3.6-13.6,12.7-13.6c7.7,0,11.7,3.2,11.8,10h-4.3
	c-0.2-4.2-2.8-6.1-7.5-6.1c-5.9,0-8.3,3.5-8.3,9.7s2.4,9.7,8.3,9.7c4.6,0,7.2-1.7,7.5-6h4.3C548.3,222.3,544.3,225.3,536.6,225.3"/>
<path class="st1" d="M595.8,225.3c-9.4,0-12.9-5.3-12.9-13.6s3.5-13.6,12.9-13.6s12.9,5.3,12.9,13.6S605.1,225.3,595.8,225.3
	 M595.8,221.5c6.1,0,8.5-3.5,8.5-9.7s-2.4-9.7-8.5-9.7c-6.1,0-8.5,3.6-8.5,9.7S589.6,221.5,595.8,221.5"/>
<path class="st1" d="M654.7,225.3c-7.2-0.1-11.7-2.8-11.7-9.1h4.2c0,3.6,2.8,5.4,7.7,5.5c4.4,0.1,7.2-1,7.2-4.1
	c0-6.6-18.9-1.4-18.9-11.8c0-4.9,3.6-7.8,11.3-7.7c8.5,0.1,11.3,3.5,11.3,8.3h-4.2c0-1.9-1-4.6-7-4.6c-5.2-0.1-7,1.7-7,4
	c0,6.5,18.9,1.4,18.9,11.8C666.4,223,662,225.4,654.7,225.3"/>
<path class="st1" d="M346.9,142.5c3.1-2,4.7-7.5,4.7-16.8v-60c0-8.7-2-12.5-5-14.7v-1.6c8.7,0,22-5.4,30.3-11.8v31.5
	c5.9-3.9,12.8-6,19.8-5.9c22.1,0,42.4,14.8,42.4,41.7c0,25.6-20.3,41.2-42.4,41.2c-8.7,0.1-17.1-3.1-23.6-8.9
	c-3.3,5.7-9.3,9.1-15.9,8.9c-3.7,0-7.3-0.7-10.7-2.2L346.9,142.5z M413.6,105c0-12.7-8.3-19.7-19-19.7s-19,6.9-19,19.7
	c0,12.5,8.3,19.7,19,19.7S413.6,117.5,413.6,105"/>
<path class="st1" d="M521.6,65.3c3.4-1.5,7-2.2,10.7-2.2c6.5-0.1,12.6,3.3,15.9,8.9c6.4-5.9,14.9-9.1,23.6-8.9
	c22.1,0,42.4,15.6,42.4,41.2c0,26.9-20.3,41.7-42.4,41.7c-7.1,0.1-14-2-19.8-5.9V171c-8.3-6.4-21.8-11.8-30.3-11.8v-1.6
	c3-2.2,5-6,5-14.7V83.7c0-9.4-1.6-14.8-4.7-16.8L521.6,65.3z M569.4,84.7c-10.7,0-19,7.2-19,19.7c0,12.7,8.3,19.7,19,19.7
	c10.7,0,19-6.9,19-19.7C588.4,91.9,580.1,84.7,569.4,84.7"/>
<path class="st1" d="M508,94.1c-1.7-3.2-12.1-12.5-26.3-12.5c-9,0-14.1,1-14.1,5.2c0,3.8,4.9,3.8,21.5,6.7c22.2,3.8,27,13.5,27,24.8
	c0,13.8-12.1,27.8-35.3,27.8c-25.4,0-36.7-13.1-36.7-24.2c0-10,8.1-12.1,8.1-12.1c2.8,8.3,13.9,16.3,29.1,16.3
	c8.2,0,12.7-1.4,12.7-5.9s-5-5.6-23.2-8.8c-19.6-3.5-25.4-13.2-25.4-24.4c0-12.3,13.3-23.6,35.8-23.6
	C498.7,63.4,519.4,76.1,508,94.1"/>
<path class="st1" d="M319.6,104.1c0,7.4-6,13.3-13.3,13.3s-13.3-6-13.3-13.3s6-13.3,13.3-13.3C313.6,90.8,319.6,96.8,319.6,104.1"/>
<path class="st1" d="M668,104.5c0,7.4-6,13.3-13.3,13.3c-7.4,0-13.3-6-13.3-13.3c0-7.4,6-13.3,13.3-13.3l0,0
	C662,91.2,668,97.2,668,104.5"/>
</svg>
