<?xml version="1.0" encoding="utf-8"?>
<!-- Generator: Adobe Illustrator 23.1.0, SVG Export Plug-In . SVG Version: 6.00 Build 0)  -->
<svg version="1.1" id="Capa_1" xmlns="http://www.w3.org/2000/svg" xmlns:xlink="http://www.w3.org/1999/xlink" x="0px" y="0px"
	 viewBox="0 0 925 263" style="enable-background:new 0 0 925 263;" xml:space="preserve">
<style type="text/css">
	.st0{fill:#DEA030;}
	.st1{fill:#D68E35;}
	.st2{fill:#666565;}
	.st3{opacity:0.9;}
	.st4{clip-path:url(#SVGID_2_);}
	.st5{clip-path:url(#SVGID_4_);fill:url(#SVGID_5_);}
	.st6{fill:#326387;}
	.st7{fill:#A02C56;}
	.st8{fill:none;stroke:#376E9A;stroke-miterlimit:10;}
	.st9{fill:#C0272D;}
	.st10{fill:#ED1C24;}
	.st11{fill:#00C2BE;}
	.st12{fill:#333333;}
	.st13{fill:url(#SVGID_6_);}
</style>
<g>
	<linearGradient id="SVGID_2_" gradientUnits="userSpaceOnUse" x1="590.2064" y1="308.297" x2="297.4468" y2="15.5374">
		<stop  offset="0" style="stop-color:#B2698C"/>
		<stop  offset="1" style="stop-color:#3E2C70"/>
	</linearGradient>
	<path style="fill:url(#SVGID_2_);" d="M463.5,165.1l4.6,2.4c-6.3,9.6-17.4,15.5-33.2,15.5c-24.7,0-39.4-13.8-39.4-35.2
		c0-21.3,14.7-35.2,39.5-35.2c15.6,0,26.7,5.9,33,15.5l-4.6,2.4c-5.7-8.8-15.5-13.2-28.4-13.2c-20.8,0-34.4,10.8-34.4,30.5
		c0,19.7,13.7,30.5,34.4,30.5C448,178.3,457.9,173.9,463.5,165.1z M534.2,152.5v18.3c0,4,0.7,7.1,2.5,10.1h-5.2
		c-1.6-2.8-2.2-5.8-2.2-9.3v-0.3c-3.8,6.7-13.2,11.5-24.6,11.5c-11.5,0-26.8-4.6-26.8-18.2c0-13.6,15.4-18.2,26.8-18.2
		c11.4,0,20.8,4.6,24.6,11.5v-5.4c0-13.7-7.7-20.7-22.8-20.7c-8.9,0-16,2.7-21.7,6.4l-2.3-3.6c5.8-4.1,15.1-7.1,24.7-7.1
		C523.9,127.5,534.2,136,534.2,152.5z M529.4,162.8c-4.1-8.6-14.3-12.3-24.3-12.3c-8.8,0-22.4,2.9-22.4,14.1c0,11.1,13.6,14,22.4,14
		c10,0,20.2-3.8,24.3-12.3V162.8z M609,154.4c0,0.5,0,0.8-0.1,0.9h-4.4h-50.7c0,15.3,10.1,23.3,25.9,23.3c11,0,18.1-2.7,24.4-8.6
		l3.2,3.4c-7,6.5-15.4,9.5-27.8,9.5c-19.4,0-30.6-10.9-30.6-27.7c0-16.9,11.2-27.7,30.4-27.7C597.7,127.5,608.7,137.6,609,154.4z
		 M554,151.2H604c-1.8-13.1-11.2-19.5-24.8-19.5C565.2,131.7,555.6,138.5,554,151.2z M625,180.9v-70.2h4.8v70.2H625z M649.3,117.1
		c0-2.1,1.7-3.6,4-3.6c2.3,0,3.9,1.5,3.9,3.6c0,2.1-1.6,3.7-3.9,3.7C651,120.8,649.3,119.2,649.3,117.1z M655.7,180.9h-4.8v-51.5
		h4.8V180.9z M726.5,166.7c0,9-9.2,16.2-26.6,16.2c-12.2,0-22.5-4.3-29.2-11.5l3.3-2.8c6.2,6.6,14.8,10.1,26,10.1
		c13.4,0,21.6-4.6,21.6-11.7c0-7.2-8.7-9.4-22.9-10.7c-13.4-1.1-26-3.8-26-13.8c0-9.7,11.8-15,25.8-15c10.8,0,19.6,4,24.9,8.9
		l-3.2,3.2c-5-4.9-12.2-8-21.9-8.1c-9.2-0.1-20.8,3-20.8,10.7c0,7.2,10.6,8.9,22.7,9.9C715.6,153.5,726.5,157.1,726.5,166.7z
		 M229.3,194.6c-3.5-3.5-9.3-3.5-12.8,0c-3.5,3.5-3.5,9.3,0,12.8c3.5,3.5,9.3,3.5,12.8,0C232.9,203.9,232.9,198.1,229.3,194.6z
		 M229.3,207.5C229.3,207.5,229.3,207.4,229.3,207.5c0.5-0.5,0.9-1,1.3-1.5c-2.3-1.8-4.5-3.8-6.6-5.9s-4.1-4.3-5.9-6.6
		c-0.5,0.3-1,0.7-1.5,1.2c0,0,0,0-0.1,0.1c1.9,2.3,3.9,4.6,6,6.8C224.6,203.6,226.9,205.6,229.3,207.5z M340.1,98.1
		c0,0,0.1-0.1,0.1-0.1c3.9-3.9,3.9-10.3,0-14.2c-3.9-3.9-10.3-3.9-14.2,0c0,0-0.1,0.1-0.1,0.1c-30.8-23.8-75.1-21.6-103.4,6.7
		c-28,28-30.4,71.8-7.3,102.6c0.5-0.5,1-0.9,1.5-1.3c-9.9-13.2-15.3-29.1-15.3-45.8c0-20.4,8-39.6,22.4-54.1
		c14.4-14.4,33.6-22.4,54.1-22.4c17.1,0,33.3,5.6,46.6,15.9c-2.5,3.9-2.1,9.2,1.3,12.6c3.4,3.4,8.7,3.9,12.6,1.3
		c10.3,13.3,15.9,29.5,15.9,46.6c0,20.4-8,39.6-22.4,54.1c-14.4,14.4-33.6,22.4-54.1,22.4c-16.8,0-32.7-5.4-45.8-15.3
		c-0.4,0.5-0.8,1.1-1.3,1.5c30.7,23.1,74.6,20.7,102.6-7.3C361.6,173.2,363.8,128.8,340.1,98.1z M327.3,96.6
		c-3.1-3.1-3.1-8.3,0-11.4c3.1-3.1,8.3-3.1,11.4,0c3.1,3.1,3.1,8.3,0,11.4C335.6,99.7,330.5,99.7,327.3,96.6z M354.6,69.4
		c-2-2-5.3-2-7.3,0c-2,2-2,5.3,0,7.3c2,2,5.3,2,7.3,0C356.6,74.7,356.6,71.4,354.6,69.4z M208,215.9c1.7,1.7,1.7,4.5,0,6.3
		c-1.7,1.7-4.5,1.7-6.3,0c-1.7-1.7-1.7-4.5,0-6.3S206.3,214.2,208,215.9 M209.4,214.5c-2.5-2.5-6.6-2.5-9.1,0s-2.5,6.6,0,9.1
		c2.5,2.5,6.6,2.5,9.1,0C211.9,221.1,211.9,217,209.4,214.5L209.4,214.5z M297,137.4c-4.5-0.6-8.1-4.2-8.7-8.7
		c-0.6,4.5-4.2,8.2-8.7,8.7c4.5,0.6,8.1,4.2,8.7,8.7C288.9,141.5,292.5,138,297,137.4z M301.7,165.6c-2.3-0.3-4.2-2.2-4.5-4.5
		c-0.3,2.3-2.1,4.2-4.5,4.5c2.3,0.3,4.2,2.1,4.5,4.5C297.5,167.8,299.4,165.9,301.7,165.6z M306.7,125.9c-2.3-0.3-4.2-2.2-4.5-4.5
		c-0.3,2.3-2.1,4.2-4.5,4.5c2.3,0.3,4.2,2.1,4.5,4.5C302.5,128.1,304.4,126.2,306.7,125.9z M317.4,148.3c-3.2-0.4-5.7-2.9-6.1-6.1
		c-0.4,3.2-2.9,5.7-6.1,6.1c3.2,0.4,5.7,2.9,6.1,6.1C311.7,151.2,314.2,148.7,317.4,148.3z M277.5,91.6c29.9,0,54.1,24.3,54.1,54.1
		c0,29.9-24.3,54.1-54.1,54.1s-54.1-24.3-54.1-54.1C223.3,115.9,247.6,91.6,277.5,91.6 M277.5,89.6c-31,0-56.1,25.1-56.1,56.1
		c0,31,25.1,56.1,56.1,56.1s56.1-25.1,56.1-56.1C333.6,114.8,308.5,89.6,277.5,89.6L277.5,89.6z M277.5,91.6c4.9,0,9.7,0.6,14.4,1.9
		c-19.7,9.7-32.6,30-32.6,52.2c0,22.2,12.9,42.5,32.6,52.2c-4.7,1.3-9.5,1.9-14.4,1.9c-29.9,0-54.1-24.3-54.1-54.1
		C223.3,115.9,247.6,91.6,277.5,91.6 M277.5,89.6c-31,0-56.1,25.1-56.1,56.1c0,31,25.1,56.1,56.1,56.1c7,0,13.8-1.3,20-3.7
		c-21.2-8.1-36.2-28.5-36.2-52.5s15-44.4,36.2-52.5C291.2,90.9,284.5,89.6,277.5,89.6L277.5,89.6z M277.5,91.6
		c29.9,0,54.1,24.3,54.1,54.1c0,29.9-24.3,54.1-54.1,54.1s-54.1-24.3-54.1-54.1C223.3,115.9,247.6,91.6,277.5,91.6 M277.5,89.6
		c-31,0-56.1,25.1-56.1,56.1c0,31,25.1,56.1,56.1,56.1s56.1-25.1,56.1-56.1C333.6,114.8,308.5,89.6,277.5,89.6L277.5,89.6z"/>
</g>
</svg>
