<?xml version="1.0" encoding="utf-8"?>
<!-- Generator: Adobe Illustrator 23.1.0, SVG Export Plug-In . SVG Version: 6.00 Build 0)  -->
<svg version="1.1" id="Capa_1" xmlns="http://www.w3.org/2000/svg" xmlns:xlink="http://www.w3.org/1999/xlink" x="0px" y="0px"
	 viewBox="0 0 925 263" style="enable-background:new 0 0 925 263;" xml:space="preserve">
<style type="text/css">
	.st0{fill:#DEA030;}
	.st1{fill:#D68E35;}
	.st2{fill:#666565;}
	.st3{opacity:0.9;}
	.st4{clip-path:url(#SVGID_2_);}
	.st5{clip-path:url(#SVGID_4_);fill:url(#SVGID_5_);}
	.st6{fill:#326387;}
	.st7{fill:#A02C56;}
	.st8{fill:none;stroke:#376E9A;stroke-miterlimit:10;}
	.st9{fill:#C0272D;}
	.st10{fill:#ED1C24;}
	.st11{fill:#00C2BE;}
	.st12{fill:#333333;}
	.st13{fill:url(#SVGID_6_);}
</style>
<g>
	<g>
		<g>
			<path class="st0" d="M335,170.3h-35.2l-6,12.3h-19.6l33.2-64.2h20.4l33.2,64.2H341L335,170.3z M328.4,157l-11.1-22.7L306.2,157
				H328.4z"/>
		</g>
		<g>
			<path class="st0" d="M456.1,165c0,11.1-10,17.6-25.8,17.6h-49.6v-64.2h45.9c15.8,0,25.8,6.3,25.8,16.6c0,7.2-5,13.6-14.7,14.1
				C447.9,149.8,456.1,155.1,456.1,165z M399.3,144h24.3c6.2,0,10.4-1.4,10.4-6.3c0-4.9-4.1-6.2-10.4-6.2h-24.3V144z M437,162.8
				c0-5.2-3.9-6.7-10.5-6.7h-27.1v13.5h27.1C433,169.6,437,168,437,162.8z"/>
		</g>
		<g>
			<path class="st0" d="M530.5,170.3h-35.2l-6,12.3h-19.6l33.2-64.2h20.4l33.2,64.2h-19.9L530.5,170.3z M524,157l-11.1-22.7
				L501.7,157H524z"/>
		</g>
		<g>
			<path class="st0" d="M638.2,167.5v15h-61.9v-64.2H595v49.1H638.2z"/>
		</g>
		<g>
			<path class="st0" d="M713.1,170.3h-35.2l-6,12.3h-19.6l33.2-64.2h20.4l33.2,64.2h-19.9L713.1,170.3z M706.6,157l-11.1-22.7
				L684.3,157H706.6z"/>
		</g>
		<g>
			<polygon class="st0" points="260.8,118.4 237.5,118.4 186,165.1 186,182.6 204.7,182.6 204.7,167.6 218.9,155 240.4,182.6 
				262.4,182.6 232.3,144 			"/>
		</g>
	</g>
</g>
</svg>
