<?xml version="1.0" encoding="utf-8"?>
<!-- Generator: Adobe Illustrator 24.1.2, SVG Export Plug-In . SVG Version: 6.00 Build 0)  -->
<svg version="1.1" id="Capa_1" xmlns="http://www.w3.org/2000/svg" xmlns:xlink="http://www.w3.org/1999/xlink" x="0px" y="0px"
	 viewBox="0 0 925 263" style="enable-background:new 0 0 925 263;" xml:space="preserve">
<style type="text/css">
	.st0{display:none;fill:#ED1C24;}
	.st1{display:none;fill:#FFB71B;}
	.st2{display:none;}
	.st3{display:inline;}
	.st4{display:inline;clip-path:url(#SVGID_2_);}
	.st5{fill:#FFB71B;}
	.st6{clip-path:url(#SVGID_4_);}
</style>
<path class="st0" d="M544.6,195h-32.7c-5.6,0-4.4-5.3-4.4-5.3l1.6-10.2c0,0,0.4-4.5,4.9-4.5h30.6c10.5,0,15.8-1.8,15.8-7.4
	c0-7.1-7.7-6.5-12-6.5c-8.2,0-33.5,2.5-33.5-25.9c0-27.4,29-27.4,36.6-27.4h29.1c4.1,0,3.3,4.6,3.3,4.6l-2.1,11.1
	c-0.6,2.6-2.9,4.5-5.6,4.4h-24.7c-3.6,0-15.8-1.6-15.8,7.4c0,7.2,8.7,5.9,12.1,5.9c10.2,0,33.5-0.4,33.5,26.5
	C581.2,195,553.7,195,544.6,195z"/>
<path class="st0" d="M468.2,195h-32.7c-5.6,0-4.4-5.3-4.4-5.3l1.6-10.2c0,0,0.4-4.5,4.9-4.5h30.6c10.5,0,15.8-1.8,15.8-7.4
	c0-7.1-7.7-6.5-12-6.5c-8.2,0-33.6,2.5-33.6-25.9c0-27.4,29-27.4,36.6-27.4h29.1c4.1,0,3.3,4.6,3.3,4.6l-2.1,11.1
	c-0.6,2.6-2.9,4.5-5.6,4.4H475c-3.6,0-15.8-1.6-15.8,7.4c0,7.2,8.7,5.9,12.2,5.9c10.2,0,33.4-0.4,33.4,26.5
	C504.8,195,477.3,195,468.2,195z"/>
<path class="st0" d="M355.4,196c-1.4,0-2.8-0.6-3.7-1.7c-0.9-1.1-1.3-2.6-1-4.1l14.1-74.9c0.4-2.4,2.3-4.1,5.5-5l11.1-2.6h0.2
	c1.4,0,2.8,0.6,3.7,1.7c0.9,1.1,1.3,2.6,1,4l-0.5,3c7-6.5,14.4-9.8,21.9-9.8c16.5,0,25.3,10.8,25.3,31.2c-0.2,10.7-3.4,21.1-9.3,30
	c-5.4,7.9-15.4,17.3-32.6,17.3c-6,0.1-11.8-1.9-16.5-5.7l-2.9,11.5c-0.6,2.9-3.1,5-6,5.1L355.4,196z M400.6,126.9
	c-6.5,0-17.7,6.2-18.7,11.6c-1,5.2-1.3,6.8-2,11.1c-0.5,2.6-1.1,6.3-2.2,12.5c-0.1,0.3,0,0.7,0.2,0.9c1.5,1.8,8.2,1.8,11.1,1.8h0.4
	c17.4,0,21.8-14.5,22.9-20.8s0.5-10.8-1.9-13.6C408.4,128.1,405.1,126.9,400.6,126.9L400.6,126.9z"/>
<path class="st0" d="M698.8,124.9c-0.3,1.6-1.7,2.7-3.3,2.8h-91c-1.3,0-2.3-0.9-2.3-2.2c0-0.2,0-0.4,0.1-0.6l2.5-14.5
	c0.3-1.6,1.7-2.7,3.3-2.8h91c1.2-0.1,2.3,0.9,2.3,2.2c0,0.2,0,0.4-0.1,0.6L698.8,124.9z"/>
<path class="st0" d="M718.9,158.8c-0.3,1.6-1.7,2.7-3.3,2.8H600.1c-1.2,0.1-2.3-0.9-2.3-2.2c0-0.2,0-0.4,0.1-0.6l2.5-14.4
	c0.3-1.6,1.7-2.7,3.3-2.8h115.5c1.3,0,2.3,1,2.3,2.2c0,0.2,0,0.4-0.1,0.6L718.9,158.8z"/>
<path class="st0" d="M738.6,192.7c-0.3,1.6-1.7,2.7-3.3,2.8H594.2c-1.3,0-2.3-0.9-2.3-2.2c0-0.2,0-0.4,0.1-0.6l2.5-14.5
	c0.3-1.6,1.7-2.7,3.3-2.8h141.1c1.3,0,2.3,0.9,2.3,2.2c0,0.2,0,0.4-0.1,0.6L738.6,192.7z"/>
<path class="st0" d="M248.5,124.9c-0.3,1.2,0.4,2.4,1.6,2.7c0.2,0.1,0.4,0.1,0.6,0.1h91c1.6-0.1,3-1.2,3.3-2.8l2.7-14.5
	c0.3-1.2-0.4-2.4-1.6-2.7c-0.2-0.1-0.4-0.1-0.6-0.1h-91c-1.6,0.1-3,1.2-3.3,2.8L248.5,124.9z"/>
<path class="st0" d="M216,158.8c-0.3,1.2,0.4,2.4,1.6,2.7c0.2,0.1,0.4,0.1,0.6,0.1h115.6c1.6-0.1,3-1.2,3.3-2.8l2.7-14.4
	c0.3-1.2-0.5-2.4-1.7-2.7c-0.2,0-0.4-0.1-0.6-0.1H222.1c-1.6,0.1-3,1.2-3.3,2.8L216,158.8z"/>
<path class="st1" d="M376.5,93.1c-0.3,4.4,3.1,8.2,7.5,8.5c4.4,0.3,8.2-3.1,8.5-7.5c0.3-4.4-3.1-8.2-7.5-8.5h-0.5
	C380.3,85.4,376.7,88.8,376.5,93.1z"/>
<path class="st1" d="M433.9,100.6c4.2-0.3,7.4-3.8,7.1-8c-0.3-4.2-3.8-7.4-8-7.1c-4,0.2-7.1,3.6-7.1,7.6
	C426,97.4,429.6,100.8,433.9,100.6z"/>
<path class="st1" d="M541.5,100.6c4.2-0.3,7.4-3.8,7.1-8c-0.3-4.2-3.8-7.4-8-7.1c-4,0.2-7.1,3.6-7.1,7.6
	C533.6,97.4,537.2,100.8,541.5,100.6z"/>
<path class="st1" d="M590.8,100.6c4.2-0.3,7.4-3.8,7.1-8c-0.3-4.2-3.8-7.4-8-7.1c-4,0.2-7.1,3.6-7.1,7.6
	C582.9,97.4,586.5,100.8,590.8,100.6z"/>
<path class="st1" d="M385.3,198.8c-0.3-0.5-0.8-0.8-1.3-0.8l-0.5,0.1c-0.4,0.1-0.7,0.2-1.2,0.4c-0.4,0.1-0.8,0.1-1.3,0.1
	c-3.2,0.2-6.3-0.9-8.7-2.9c-2.4-2.2-4.2-5-5.4-8c-1.5-3.7-2.5-7.6-3.1-11.6c-0.7-4.4-1.5-9-2.1-13.5c-0.6-4.5-1.5-9.2-2.4-13.6
	c-0.8-4.2-2.2-8.2-4-12c-1.6-3.4-4.1-6.4-7.1-8.7c-2.9-2-6.3-3.1-9.9-3.3l27.9-34.6c1.4-1.8,3-3.5,4.8-4.9c1.4-1.1,2.9-2.1,4.4-2.9
	c1.1-0.6,2.3-1,3.5-1.4c0.8-0.2,1.6-0.5,2.4-0.8l0.2-0.1c0.3-0.3,0.5-0.7,0.6-1.2c0.1-0.5-0.1-1-0.5-1.3l-0.1-0.1
	c-0.3-0.2-0.9-0.5-1.6-0.8c-0.9-0.4-1.9-0.5-2.9-0.5c-2.4,0.1-4.7,0.5-6.9,1.3c-4.2,1.6-8.8,1.6-13,0c-2.2-0.8-4.5-1.2-6.9-1.3
	c-1-0.1-2.1,0.1-3,0.5c-0.6,0.4-1.2,0.6-1.6,0.9c-0.4,0.4-0.6,1-0.5,1.5c0.1,0.7,0.8,1.2,1.5,1.2c0.8,0.1,1.6,0.2,2.3,0.5
	c1,0.2,1.9,0.6,2.6,1.3c0.6,0.7,1,1.5,1,2.4c0.1,1.2-0.6,2.7-1.9,4.5l-31.9,39.9V86.5c0-2.1,0.6-3.4,1.7-4.1
	c1.4-0.8,2.4-1.4,3.3-1.9c0.5-0.1,1-0.5,1-1c0.2-0.6,0-1.2-0.5-1.5c-0.5-0.4-1-0.7-1.6-0.9c-1-0.4-2-0.5-3-0.5
	c-2.2,0-4.3,0.4-6.3,1.2c-3.5,1.5-7.5,1.5-11,0c-2.4-0.9-4.9-1.3-7.4-1.2c-3.9-0.2-7.7,0.6-11.2,2.1c-2.5,1.1-4.6,2.8-6.3,5
	c-1.3,1.9-2,4.1-1.9,6.4c0.1,2.1,0.8,4,2,5.7c0.4,1,1.4,1.5,2.4,1.2c0.9-0.1,1.7-0.7,2-1.6c0.4-2.3,1.6-4.3,3.4-5.7
	c1.4-1.1,3.2-1.6,5-1.5c1.7,0.1,3.2,0.7,4.5,1.7c1.3,1,2,2.6,1.9,4.2v92.5c0.1,5.1-0.7,10.3-2.3,15.1c-1.3,3.5-3.2,6.8-5.6,9.7
	c-1.8,2.2-4,4.1-6.5,5.5c-1.7,0.9-3.5,1.8-5.3,2.4l-0.2,0.1c-0.5,0.4-0.9,0.7-0.9,1.3c0,0.7,0.4,1.4,1.2,1.6
	c0.7,0.3,1.5,0.5,2.2,0.7c1,0.2,2,0.4,3,0.3c5.1,0,9.2-0.9,12.1-2.7c2.8-1.7,5.4-3.6,7.8-5.7c2.3-2,4.7-3.8,7.2-5.5
	c3.1-1.7,6.6-2.5,10.2-2.3c1.6,0.1,3.2-0.4,4.4-1.4c0.3-0.1,0.6-0.3,0.8-0.6c0.1-0.4,0.1-0.8-0.2-1.2c-0.1-0.5-0.6-0.9-1.2-0.9
	c-0.7-0.5-1.8-1-3.1-1.9c-1.2-0.7-1.8-2.1-1.8-4.1v-48l13.6-17.1c0.8,0.4,1.4,1.3,1.9,2.8c0.7,2.8,1.2,5.6,1.5,8.5
	c0.4,3.5,0.7,7.4,0.9,12s0.7,9.1,1.3,13.7c0.6,4.6,1.5,9.1,2.7,13.6c1.1,4.3,2.8,8.4,5.1,12.1c4.6,7.7,13,12.2,22,11.9
	c2.2,0,4.4-0.2,6.5-0.7c1.9-0.4,3.7-1,5.6-1.6c2-0.8,3.8-2,5.2-3.6l0.1-0.2c0.2-0.5,0.2-1,0-1.5L385.3,198.8z"/>
<path class="st1" d="M527.8,192.4c-3.3-1.2-6.2-3.5-7.9-6.6c-2-3.6-3.8-7.3-5.2-11.1c-1.6-4.1-3.5-8.1-5.5-12.1
	c-1.7-3.4-4.3-6.4-7.4-8.6c4.2-1.4,8.1-3.6,11.5-6.5c3.4-2.8,6-6.4,7.8-10.5c1.6-3.7,2.2-7.7,1.8-11.8c-0.4-4-2-7.9-4.5-11
	c-3-3.6-7-6.4-11.4-8.1c-4.9-2.1-11.1-3.1-18.3-3.1c-5.2,0-10.4,0.4-15.5,1.3c-3,0.7-6.1,1.1-9.3,1.3c-1.9,0-3.8-0.4-5.6-1.2
	c-2-0.9-4.3-1.4-6.5-1.4c-1,0-2,0.1-2.9,0.5c-0.6,0.3-1.2,0.6-1.7,1l-0.2,0.2l0,0l-0.2-0.2c-0.5-0.4-1.1-0.8-1.7-1
	c-1-0.4-2-0.5-3-0.5c-0.9,0-1.8,0.1-2.7,0.5c-0.6,0.4-1.2,0.6-1.7,0.9c-0.4,0.3-0.9,0.6-1.4,0.8c-0.6,0.3-1.3,0.4-2,0.3
	c-0.6,0-1.3,0-1.9-0.2c-0.5-0.2-0.9-0.6-1.5-0.8c-0.5-0.3-1.1-0.7-1.6-0.9c-0.9-0.4-1.8-0.5-2.8-0.5c-1-0.1-2.1,0.1-3,0.5
	c-0.5,0.3-1,0.6-1.5,0.9c-0.4,0.2-0.7,0.7-0.7,1.2v0.2l0.1,0.2c0.2,0.4,0.4,0.7,0.7,0.9l0.3,0.2c1.1,0.5,2.2,1.1,3.3,1.7
	c1.2,0.7,1.7,2.1,1.7,4.2v52.7c0,3-0.1,6-0.5,9c-0.3,2.6-1,5.2-2.2,7.6c-1.1,2.1-2.8,3.9-4.8,5.2c-5.4,2.6-11.6,2.6-17,0
	c-2.1-1.4-3.8-3.2-4.9-5.5c-1.2-2.5-2-5.1-2.4-7.8c-0.4-3-0.6-6-0.6-9.1v-52.3c0-2.1,0.6-3.5,1.6-4.2c1-0.7,2-1.3,3.1-1.7
	c0.6-0.2,1.1-0.7,1.2-1.3c0.1-0.3,0.1-0.6,0-0.8c-0.1-0.2-0.2-0.4-0.4-0.6c-0.9-1-2.4-1.6-4.8-1.6c-2.2,0-4.3,0.5-6.3,1.4
	c-3.6,1.6-7.7,1.6-11.3,0c-2-0.9-4.1-1.4-6.3-1.4c-1.7-0.2-3.4,0.4-4.6,1.5c-0.4,0.3-0.6,0.7-0.6,1.2v0.2l0.1,0.2
	c0.1,0.4,0.4,0.7,0.7,0.9l0.4,0.2c1.1,0.4,2.2,1,3.3,1.7c1.2,0.7,1.7,2.1,1.7,4.2v52.1c0,4.1,0.6,8.1,1.8,12
	c1.2,3.9,3.4,7.4,6.3,10.2c3.4,3.2,7.4,5.6,11.9,7c6,1.9,12.4,2.8,18.7,2.7c6.6,0,12-1.2,16.1-3.6c3.7-2.1,6.7-5.1,9-8.7
	c1.9-3.2,3.1-6.7,3.7-10.4c0.5-2.9,0.7-5.8,0.8-8.7v-52.5c0-2.1,0.6-3.4,1.8-4.2c1-0.7,2.2-1.3,3.4-1.7l0.3-0.2
	c0.2-0.2,0.4-0.5,0.4-0.8c0.1,0.5,0.5,0.7,0.9,0.9c0.5,0.3,1.1,0.5,1.6,0.7c0.6,0.2,1.1,0.5,1.6,0.9c0.5,0.5,1,1.1,1.4,1.7
	c0.4,0.8,0.6,1.7,0.6,2.6v73.9c0.2,1.6-0.5,3.2-1.9,4.1c-1.4,0.9-2.6,1.5-3.4,2c-0.2,0.1-0.4,0.3-0.6,0.6h-0.1l-0.2,0.6
	c-0.4,0.7,0.2,1.2,0.5,1.4l0.1,0.1c0.5,0.3,1,0.6,1.5,0.8c0.9,0.4,1.9,0.6,2.9,0.6c2.2,0,4.4-0.5,6.5-1.4c3.6-1.6,7.6-1.6,11.2,0
	c2,0.9,4.1,1.4,6.3,1.4c1.1,0,2.1-0.2,3.1-0.6c0.5-0.2,1-0.5,1.5-0.8l0.5-0.2l0.8-0.1l-1.3-2.3l-0.3-0.1c-1.2-0.5-2.3-1.1-3.4-1.9
	c-1.3-0.9-2-2.5-1.9-4.1v-31.4c1.3,0.2,2.6,0.4,3.8,0.6c1.5,0.1,2.9,0.4,4.4,0.4c1.9,0.9,3.4,2.4,4.3,4.3c1.3,2.5,2.4,5.2,3.3,7.9
	c1,3,2.1,6.2,3.4,9.5c1.2,3.3,2.9,6.3,4.9,9.2c4.6,6.6,12.4,10.3,20.4,9.8c3,0,5.9-0.6,8.7-1.6c0.7-0.2,1.2-0.8,1.2-1.5
	C529.1,193.2,528.5,192.6,527.8,192.4z M481.8,111c1.1-0.3,2.3-0.4,3.5-0.5c1.2,0,2.1-0.1,2.9-0.1c3.1-0.1,6,1,8.3,3
	c2.3,2.1,3.9,4.8,4.8,7.8c0.9,3.3,1.1,6.8,0.5,10.1c-0.6,3.5-2.1,6.9-4.3,9.7c-2.4,2.9-5.6,5.2-9.1,6.6c-2.7,1.1-5.7,1.6-8.6,1.5
	l0,0c-1.6,0-3.2-0.1-4.8-0.4v-34.2c1-0.9,2.1-1.7,3.3-2.3C479.4,111.7,480.6,111.2,481.8,111z"/>
<path class="st1" d="M594,184.8c1.9-3.2,3.1-6.7,3.7-10.4c0.5-2.9,0.7-5.8,0.8-8.7v-52.6c0-2.1,0.6-3.4,1.8-4.2
	c1-0.7,2.2-1.3,3.4-1.7l0.3-0.2c0.4-0.3,0.5-0.8,0.5-1.3v-0.8l-0.2-0.2c-0.5-0.4-1.1-0.8-1.7-1c-1-0.4-2-0.5-3-0.5
	c-0.9,0-1.8,0.1-2.7,0.5c-0.6,0.4-1.2,0.6-1.7,0.9c-0.4,0.3-0.9,0.6-1.4,0.8c-0.6,0.3-1.3,0.4-2,0.3c-0.6,0-1.3,0-1.9-0.2
	c-0.5-0.2-0.9-0.6-1.5-0.8c-0.5-0.3-1.1-0.7-1.6-0.9c-0.9-0.4-1.8-0.5-2.8-0.5c-1-0.1-2.1,0.1-3,0.5c-0.5,0.3-1,0.6-1.5,0.9
	c-0.4,0.2-0.7,0.7-0.7,1.2l0.1,0.4c0.2,0.4,0.4,0.7,0.7,0.9l0.3,0.2c1.1,0.5,2.2,1.1,3.3,1.7c1.2,0.7,1.7,2.1,1.7,4.2v52.7
	c0,3-0.1,6-0.5,9c-0.3,2.6-1,5.2-2.2,7.6c-1.1,2.1-2.8,3.9-4.8,5.2c-5.4,2.6-11.6,2.6-17,0c-2.1-1.4-3.8-3.2-4.9-5.5
	c-1.2-2.5-2-5.1-2.4-7.8c-0.4-3-0.6-6-0.6-9.1v-52.2c0-2.1,0.6-3.5,1.6-4.2c1-0.7,2-1.3,3.1-1.7c0.6-0.2,1.1-0.7,1.2-1.3
	c0.2-0.5,0-1-0.4-1.3c-0.9-1-2.4-1.6-4.8-1.6c-2.2,0-4.3,0.5-6.3,1.4c-3.6,1.6-7.7,1.6-11.3,0c-2-0.9-4.1-1.4-6.3-1.4
	c-1.7-0.2-3.4,0.4-4.6,1.5c-0.4,0.3-0.6,0.7-0.6,1.2l0.1,0.3c0.1,0.4,0.4,0.7,0.7,0.9l0.4,0.2c1.1,0.4,2.2,1,3.3,1.7
	c1.2,0.7,1.7,2.1,1.7,4.2v52.1c0,4.1,0.6,8.1,1.8,12c1.2,3.9,3.3,7.4,6.3,10.2c3.4,3.2,7.4,5.6,11.9,7c6,1.9,12.4,2.8,18.7,2.7
	c6.6,0,12.1-1.2,16.1-3.6C588.7,191.3,591.7,188.3,594,184.8z"/>
<path class="st1" d="M692.9,83.2c-1.9-1.5-3.4-3.4-4.4-5.6c-1-2.3-1.7-4.6-2.1-7.1c-0.3-2.4-0.5-4.7-0.5-7.1c0-2.1,0.1-3.8,0.2-5.1
	l0.1-0.5c0-0.5-0.3-0.9-0.7-1.2c-0.3-0.3-0.6-0.5-1-0.5c-0.5,0-0.9,0.3-1.2,0.7c-1.2,0.9-2.5,1.7-3.8,2.2c-2,0.8-4.1,1.1-6.2,1.1
	c-1.6,0.1-3.1-0.2-4.5-0.8c-1.4-0.6-3-1.2-4.6-1.9c-1.9-0.7-3.8-1.3-5.7-1.9c-2.6-0.7-5.3-1-8-0.9c-3.5-0.1-7,0.4-10.4,1.3
	c-2.5,0.7-5,1.7-7.3,2.8c-2.1,1.1-4.1,2-5.9,2.8c-1.9,0.8-4,1.2-6.1,1.2c-1.8,0-3.5-0.4-5.1-1.2c-2.4-0.9-5-1.4-7.6-1.3
	c-3.8-0.1-7.6,0.6-11.1,2.1c-2.5,1.1-4.7,2.8-6.3,5.1c-1.3,1.9-2,4.1-2,6.4c0,2,0.7,4,1.9,5.7c0.5,0.8,1.4,1.3,2.3,1.2h0.1
	c1-0.2,1.7-0.9,2-1.9c0.4-2.3,1.6-4.3,3.4-5.7c1.4-1.1,3.2-1.6,5-1.5c1.7,0.1,3.2,0.7,4.5,1.8c1.3,1,2,2.6,1.9,4.2v92.5
	c0.1,5.1-0.7,10.3-2.3,15.1c-1.3,3.5-3.2,6.8-5.6,9.7c-1.8,2.2-4,4.1-6.5,5.5c-1.7,0.9-3.4,1.7-5.2,2.4c-0.5,0.2-1.3,0.6-1.3,1.3
	c0,0.7,0.5,1.4,1.2,1.6c0.7,0.3,1.5,0.5,2.2,0.7c1,0.2,2,0.4,3,0.3c5.1,0,9.2-0.9,12.1-2.7c2.8-1.7,5.4-3.6,7.9-5.7
	c2.3-2,4.7-3.8,7.2-5.5c2.4-1.5,5.8-2.3,10.2-2.3c1,0.1,2.1-0.1,3-0.5c0.5-0.2,1-0.5,1.4-0.9c0.5-0.2,0.9-0.7,0.8-1.3v-0.2l-0.1-0.2
	c-0.2-0.4-0.6-0.7-1-0.8c-0.5-0.3-1-0.5-1.5-0.7c-0.6-0.3-1.1-0.6-1.6-1c-0.5-0.5-1-1-1.3-1.6c-0.4-0.8-0.5-1.7-0.5-2.6v-65.1
	c0-1.4,0.4-2.2,1.2-2.7c0.3-0.2,0.6-0.4,0.9-0.4c1.2,0,2.2,0.6,2.9,1.5c1,1.2,2.3,2.6,3.8,3.9c1.6,1.5,3.4,2.9,5.3,4.1
	c2.6,1.4,5.5,2.1,8.5,2c2.9,0.1,5.7-0.5,8.3-1.9c2.1-1.1,4.1-2.5,5.8-4.2c1.4-1.4,2.6-3,3.6-4.8l1.7-3.3c0.2-0.5,0.2-1,0-1.5
	c-0.2-0.2-0.5-0.4-0.8-0.5c-0.2-0.2-0.5-0.4-0.8-0.5c-0.5-0.2-1.1-0.4-1.6-0.4c-1.6,0-3.1,0.6-4.3,1.6c-1.3,0.9-2.9,1.3-4.4,1.2
	c-2.2,0.1-4.4-0.2-6.5-0.8c-1.7-0.5-3.4-1.1-5-1.9c-1.5-0.7-3-1.4-4.4-2c-1.6-0.7-3.3-1-5-0.9c-3.7,0-6.2,0.5-7.8,1.5
	c-0.6,0.4-1,0.7-1.4,0.9V72.6c1.6-1.9,3.5-3.5,5.7-4.8c3.3-1.9,7-2.8,10.8-2.7c3.7,0,7.4,0.5,11,1.5c2.6,0.9,5.1,2.2,7.2,3.9
	c1.9,1.5,3.6,3.3,5,5.2c1.4,1.9,2.9,3.7,4.2,5.4c1.4,1.7,3,3.1,4.8,4.3c2.1,1.2,4.5,1.8,6.9,1.7c1.1,0,2.2-0.2,3.3-0.6
	c0.8-0.3,1.5-0.7,2.2-1.2c0.4-0.3,0.6-0.7,0.6-1.2C693.6,83.9,693.3,83.4,692.9,83.2z"/>
<g class="st2">
	<defs>
		<path id="SVGID_3_" d="M385.1,96.9c-3.2-0.2-5.6-2.9-5.4-6c0.2-3.2,2.9-5.6,6-5.4c3,0.2,5.4,2.7,5.4,5.7
			C391,94.4,388.3,97,385.1,96.9z M440.5,91.2c0.2-3.3-2.3-6.2-5.7-6.4s-6.2,2.3-6.4,5.7c-0.2,3.3,2.3,6.2,5.7,6.4c0,0,0,0,0,0h0.4
			c3.2,0.1,5.9-2.4,6-5.6V91.2z M548.1,91.2c0.2-3.3-2.3-6.2-5.7-6.4c-3.3-0.2-6.2,2.3-6.4,5.7c-0.2,3.3,2.3,6.2,5.7,6.4h0.4
			c3.2,0.1,5.9-2.4,6-5.6C548.1,91.3,548.1,91.2,548.1,91.2L548.1,91.2z M597.4,91.2c0.2-3.3-2.3-6.2-5.7-6.4
			c-3.3-0.2-6.2,2.3-6.4,5.7c-0.2,3.3,2.3,6.2,5.7,6.4h0.4c3.2,0.1,5.9-2.4,6.1-5.6L597.4,91.2L597.4,91.2z M293.9,216.8
			c2.7-1.6,5.1-3.4,7.4-5.5c2.4-2.1,4.9-4,7.6-5.7c2.8-1.7,6.6-2.7,11.4-2.7c1,0.1,2-0.2,2.9-0.7c-1.1-0.6-2.1-1.3-3.1-2
			c-1.7-1-2.6-2.9-2.6-5.6v-48.1l15-18.7l1.4,0.6c1.5,0.8,2.6,2.3,2.9,4c0.7,2.9,1.3,5.8,1.6,8.7c0.3,3.5,0.7,7.6,0.9,12
			c0.2,4.4,0.7,9,1.3,13.5c0.6,4.5,1.5,9,2.7,13.4c1.1,4.1,2.7,7.9,4.9,11.5c4.3,7.1,12.1,11.4,20.4,11c2.1,0,4.1-0.2,6.2-0.6
			c1.8-0.4,3.5-0.9,5.2-1.5c1.5-0.6,2.8-1.5,4-2.6c-0.1,0-0.2,0.1-0.4,0.1c-0.6,0.1-1.2,0.2-1.7,0.2c-3.6,0.2-7.2-1-10-3.4
			c-2.6-2.4-4.6-5.4-5.8-8.7c-1.5-3.9-2.6-7.9-3.3-12c-0.7-4.4-1.5-9-2.1-13.5c-0.6-4.5-1.5-9.1-2.4-13.5c-0.8-4-2.1-7.9-3.9-11.6
			c-1.5-3.2-3.8-5.9-6.6-8c-2.6-1.8-5.7-2.8-8.8-2.9l-3.6-0.2l30-37.2c1.5-1.9,3.2-3.7,5-5.2c1.5-1.1,3.1-2.2,4.8-3.1
			c1.2-0.6,2.5-1.1,3.8-1.5c0.7-0.2,1.3-0.4,1.6-0.5c-0.3-0.1-0.5-0.2-0.8-0.3c-0.7-0.2-1.4-0.4-2.1-0.4c-2.1,0-4.2,0.4-6.2,1.2
			c-4.7,1.7-9.8,1.7-14.4,0c-2-0.7-4.1-1.1-6.2-1.2c-1.3,0-1.9,0.1-2.1,0.4s-0.4,0.1-0.5,0.2c0.5,0.1,1.2,0.2,1.9,0.5
			c1.2,0.3,2.3,0.9,3.3,1.7c1,1,1.6,2.3,1.6,3.7c0.1,1.6-0.6,3.4-2.2,5.7l-35.4,44.3V84.5c0-2.7,0.8-4.5,2.6-5.6
			c1.4-0.8,2.4-1.4,3.3-1.9c-0.2-0.2-0.4-0.3-0.7-0.4c-0.7-0.3-1.5-0.4-2.2-0.4c-1.9,0-3.8,0.4-5.6,1.2c-2.1,0.8-4.3,1.3-6.5,1.3
			l0,0c-2.1-0.1-4.1-0.6-6-1.4c-2.1-0.8-4.4-1.1-6.6-1c-4.3,0-7.8,0.6-10.2,1.9c-2.2,0.9-4.2,2.5-5.6,4.4c-1.1,1.5-1.6,3.4-1.5,5.2
			c0.1,1.7,0.7,3.4,1.6,4.8l0.2,0.2l0.1,0.2h0.5c0.1,0,0.2-0.2,0.2-0.4c0.8-4.8,4.9-8.4,9.8-8.5h0.5c2,0.1,4,0.9,5.6,2.2
			c1.7,1.3,2.6,3.4,2.6,5.6v92.5c0.2,5.4-0.7,10.7-2.4,15.8c-1.3,3.7-3.4,7.2-5.9,10.2c-2,2.3-4.4,4.3-7.1,5.9
			c-1.6,0.9-3.3,1.7-5,2.3c0.5,0.1,0.9,0.3,1.4,0.5c0.8,0.2,1.7,0.3,2.6,0.2C287.6,219.1,291.3,218.3,293.9,216.8L293.9,216.8z
			 M527.1,192.1c-3.6-1.4-6.6-4-8.5-7.3c-2.1-3.6-3.8-7.4-5.4-11.3c-1.6-4-3.4-8-5.3-11.9c-1.6-3.2-3.9-5.9-6.9-7.9l-2.8-2l3.4-1.2
			c4-1.3,7.7-3.4,10.8-6.2c3.1-2.7,5.6-6,7.3-9.8c1.5-3.4,2-7.2,1.6-10.9c-0.3-3.7-1.8-7.2-4.2-10.1c-2.8-3.4-6.5-6-10.6-7.6
			c-5.6-2.2-11.5-3.2-17.5-3c-5.1,0-10.1,0.4-15.1,1.3c-3.2,0.7-6.4,1.2-9.7,1.3c-2.2,0-4.4-0.5-6.4-1.4c-1.8-0.8-3.7-1.2-5.7-1.2
			c-0.7,0-1.4,0.1-2.1,0.4c-0.3,0.1-0.6,0.3-0.9,0.5c0.2,0.1,0.7,0.4,1.3,0.6c0.8,0.3,1.5,0.7,2.1,1.3c0.7,0.6,1.3,1.4,1.8,2.2
			c0.6,1,0.9,2.2,0.8,3.4v73.9c0.1,2.2-0.9,4.3-2.7,5.6c-1.4,0.8-2.4,1.5-3.3,1.9c0.3,0.1,0.6,0.3,0.8,0.5c0.6,0.3,1.3,0.4,2,0.4
			c2-0.1,3.9-0.4,5.7-1.2c2-0.9,4.2-1.4,6.4-1.4c2.2,0,4.4,0.5,6.4,1.4c1.7,0.8,3.6,1.2,5.5,1.2c0.8,0,1.5-0.1,2.2-0.4
			c0.3-0.2,0.6-0.3,0.9-0.5c-1.1-0.5-2.2-1.1-3.3-1.9c-1.8-1.3-2.8-3.4-2.7-5.6v-33.6l2.3,0.3c1.3,0.2,2.6,0.4,3.7,0.5l4.3,0.3h0.4
			l0.4,0.1c2.3,1,4.2,2.8,5.2,5.1c1.3,2.6,2.4,5.4,3.4,8.1c1,3,2.1,6.2,3.4,9.4c1.1,3.1,2.6,6.1,4.6,8.7c1.9,2.6,4.4,4.8,7.2,6.4
			c3.6,1.8,7.5,2.7,11.5,2.6C522.2,193.3,524.7,192.9,527.1,192.1L527.1,192.1z M498.4,110.3c2.5,2.3,4.3,5.3,5.2,8.6
			c0.9,3.5,1.1,7.2,0.5,10.8c-0.7,3.8-2.3,7.4-4.6,10.5c-2.6,3.2-6,5.7-9.9,7.2c-3,1.1-6.2,1.7-9.4,1.6c-1.7,0-3.3-0.1-5-0.3
			l-1.6-0.2v-36.5l0.6-0.6c1.1-1.1,2.4-2,3.7-2.7c1.3-0.7,2.7-1.1,4.2-1.4c1.2-0.3,2.5-0.4,3.7-0.5c1.2,0,2.2-0.1,3-0.1
			C492.3,106.5,495.8,107.8,498.4,110.3L498.4,110.3z M427,190.1c3.4-1.9,6.3-4.7,8.3-8c1.8-3,3-6.3,3.5-9.8
			c0.4-2.8,0.7-5.7,0.8-8.5v-52.6c0-2.7,0.9-4.6,2.7-5.7c1.1-0.7,2.2-1.3,3.4-1.7l0,0c-0.3-0.2-0.6-0.3-0.9-0.5
			c-0.7-0.3-1.5-0.4-2.2-0.4c-0.6,0-1.2,0.1-1.8,0.4c-0.5,0.2-1,0.5-1.4,0.8c-0.5,0.4-1.1,0.7-1.7,0.9c-1.8,0.6-3.8,0.6-5.6,0
			c-0.6-0.3-1.1-0.6-1.6-0.9c-0.5-0.3-1-0.6-1.5-0.8c-0.6-0.2-1.2-0.3-1.9-0.2c-1.3,0-1.9,0.1-2.1,0.4c-0.3,0.2-0.6,0.4-0.9,0.5
			c1.2,0.5,2.3,1.1,3.3,1.9c1.8,1,2.6,3,2.6,5.7v52.7c0,3.1-0.2,6.3-0.5,9.2c-0.3,2.8-1.1,5.6-2.4,8.1c-1.3,2.4-3.2,4.5-5.5,5.9
			c-2.9,1.6-6.2,2.4-9.5,2.2c-6.3,0.5-12.2-2.8-15.1-8.3c-1.4-2.6-2.2-5.4-2.6-8.3c-0.4-3.1-0.6-6.2-0.6-9.3v-52.3
			c0-2.7,0.8-4.6,2.4-5.7c1-0.8,2.2-1.4,3.4-1.9c-0.9-0.6-2-0.9-3-0.8c-1.9,0.1-3.7,0.5-5.5,1.2c-2,0.9-4.3,1.4-6.5,1.4
			c-2.2,0-4.4-0.5-6.4-1.4c-1.7-0.8-3.6-1.2-5.5-1.2c-1.1-0.1-2.2,0.2-3,0.8c1.2,0.5,2.3,1.1,3.4,1.9c1.8,1,2.6,3,2.6,5.7v52.1
			c0,3.9,0.6,7.8,1.6,11.5c1.1,3.6,3,6.9,5.8,9.4c3.2,2.9,7,5.2,11.2,6.6c5.8,1.8,11.9,2.7,18,2.6
			C418.2,193.4,423.2,192.2,427,190.1L427,190.1z M584.5,190.1c3.4-1.9,6.3-4.7,8.3-8c1.8-3,3-6.3,3.5-9.8c0.4-2.8,0.7-5.7,0.8-8.5
			v-52.6c0-2.7,0.9-4.6,2.7-5.7c1.1-0.7,2.2-1.2,3.4-1.7l0,0c-0.3-0.2-0.6-0.3-0.9-0.5c-0.7-0.3-1.5-0.4-2.2-0.4
			c-0.6,0-1.2,0.1-1.7,0.4c-0.5,0.2-1,0.5-1.4,0.8c-0.5,0.4-1.1,0.7-1.7,0.9c-1.8,0.6-3.8,0.6-5.6,0c-0.6-0.3-1.1-0.6-1.6-0.9
			c-0.5-0.3-1-0.6-1.5-0.8c-0.6-0.2-1.2-0.3-1.9-0.2c-1.3,0-1.9,0.1-2.1,0.4c-0.3,0.1-0.6,0.3-0.9,0.5c1.2,0.5,2.3,1.1,3.3,1.9
			c1.7,1,2.6,3,2.6,5.7v52.7c0,3.1-0.2,6.3-0.5,9.2c-0.3,2.8-1.1,5.6-2.4,8.1c-1.3,2.4-3.2,4.5-5.5,5.9c-2.3,1.5-5.6,2.2-9.5,2.2
			c-6.3,0.5-12.2-2.8-15.1-8.3c-1.4-2.6-2.2-5.4-2.6-8.3c-0.4-3.1-0.6-6.2-0.6-9.3v-52.3c0-2.7,0.8-4.5,2.4-5.7
			c1-0.8,2.2-1.4,3.4-1.9c-0.9-0.6-2-0.9-3-0.8c-1.9,0.1-3.7,0.5-5.5,1.2c-2,0.9-4.3,1.4-6.5,1.4c-2.2,0-4.4-0.5-6.4-1.4
			c-1.7-0.8-3.6-1.2-5.5-1.2c-1.1-0.1-2.2,0.2-3,0.8c1.2,0.5,2.3,1.1,3.4,1.9c1.7,1,2.6,3,2.6,5.7v52.1c0,3.9,0.5,7.8,1.6,11.5
			c1,3.6,3,6.9,5.7,9.4c3.2,2.9,7,5.2,11.1,6.6c5.8,1.8,11.9,2.7,18,2.6C575.7,193.4,580.8,192.2,584.5,190.1L584.5,190.1z
			 M607,200.3c2.7-1.6,5.2-3.4,7.6-5.5c2.3-2.1,4.8-4,7.4-5.7c2.7-1.7,6.5-2.7,11.3-2.7c1.3,0,1.9-0.1,2.1-0.3s0.6-0.2,0.7-0.5
			c-0.4-0.2-0.8-0.3-1.2-0.5c-0.8-0.4-1.5-0.9-2.1-1.4c-0.7-0.6-1.3-1.4-1.7-2.2c-0.5-1.1-0.7-2.2-0.7-3.4V113
			c-0.2-1.7,0.7-3.3,2.1-4.2c0.6-0.4,1.3-0.6,2-0.6c1.7,0,3.3,0.8,4.4,2.1c1,1.2,2.3,2.4,3.7,3.8c1.5,1.4,3.2,2.7,5,3.7
			c2.3,1.2,4.8,1.7,7.4,1.6c2.5,0,5-0.5,7.3-1.6c1.9-1,3.7-2.3,5.3-3.8c1.3-1.3,2.4-2.7,3.3-4.3l1.5-3l-0.1-0.1
			c-0.1-0.1-0.3-0.2-0.5-0.2c-0.3-0.1-0.5-0.1-0.8-0.1c-1.1,0-2.2,0.4-3,1.2c-1.7,1.2-3.7,1.8-5.7,1.6c-2.4,0-4.8-0.3-7.1-0.9
			c-1.8-0.5-3.5-1.2-5.2-2l-4.3-2c-1.3-0.6-2.7-0.8-4.2-0.8c-3.3,0-5.5,0.5-6.6,1.2c-0.6,0.4-1,0.7-1.5,0.9l-3,1.9V70.1l0.3-0.5
			c1.8-2.1,3.9-3.9,6.3-5.3c3.6-2.1,7.7-3.1,11.9-3c4-0.1,7.9,0.5,11.8,1.6c2.8,1,5.5,2.4,7.8,4.3c2,1.6,3.8,3.5,5.4,5.5
			c1.5,2,2.9,3.7,4.2,5.3c1.2,1.5,2.7,2.9,4.3,4c1.7,1,3.7,1.6,5.7,1.5c0.9,0,1.8-0.1,2.6-0.5c0.5-0.2,1-0.4,1.4-0.7
			c-2.1-1.6-3.7-3.7-4.7-6.2c-1.1-2.4-1.9-4.9-2.2-7.6c-0.3-2.4-0.5-4.9-0.5-7.3c0-1.9,0.1-3.5,0.2-4.9c-1.2,0.9-2.6,1.6-4,2.2
			c-2.2,0.9-4.6,1.2-7,1.2c-1.8,0-3.6-0.3-5.2-0.9c-1.4-0.6-2.9-1.2-4.6-1.9s-3.5-1.3-5.5-1.9c-2.4-0.6-4.9-0.9-7.4-0.8
			c-3.3-0.1-6.6,0.3-9.8,1.2c-2.4,0.8-4.8,1.7-7.1,2.7c-2.1,1-4.1,2-6.1,2.8c-2.2,0.9-4.5,1.3-6.9,1.3c-2.1,0-4.1-0.5-6.1-1.3
			c-2.1-0.8-4.4-1.2-6.7-1.2c-3.5-0.2-6.9,0.5-10.1,1.9c-2.2,0.9-4.2,2.5-5.6,4.4c-1.1,1.5-1.7,3.4-1.6,5.3c0,1.7,0.5,3.4,1.5,4.8
			l0.1,0.2c0.1,0.1,0.3,0.1,0.5,0.1c0.1,0,0.2-0.1,0.3-0.5c0.4-2.7,1.9-5,4.1-6.6c1.7-1.2,3.7-1.8,5.7-1.9h0.5
			c2.1,0.1,4,0.9,5.6,2.2c1.7,1.3,2.7,3.4,2.6,5.6v92.5c0.2,5.3-0.7,10.7-2.4,15.7c-1.3,3.7-3.4,7.2-5.9,10.2
			c-2,2.3-4.4,4.3-7.1,5.9c-2,1-3.6,1.9-5,2.4c0.5,0.1,0.9,0.3,1.4,0.3c0.8,0.2,1.7,0.4,2.6,0.4C600.5,202.8,604.3,201.9,607,200.3
			L607,200.3z"/>
	</defs>
	<clipPath id="SVGID_2_" class="st3">
		<use xlink:href="#SVGID_3_"  style="overflow:visible;"/>
	</clipPath>
	<g class="st4">
		<rect x="251.4" y="31.9" class="st5" width="466.3" height="214.3"/>
	</g>
</g>
<path class="st5" d="M357,90.7c-0.3,4.3,3,8,7.4,8.3s8-3,8.3-7.4c0.3-4.3-3-8-7.4-8.3h-0.5C360.6,83.3,357.1,86.5,357,90.7z"/>
<path class="st5" d="M413,98.1c4.1-0.2,7.2-3.7,6.9-7.8c-0.2-4.1-3.7-7.2-7.8-6.9c-3.9,0.2-6.9,3.5-6.9,7.4
	C405.3,94.9,408.8,98.2,413,98.1z"/>
<path class="st5" d="M518.1,98.1c4.1-0.2,7.2-3.8,6.9-7.8c-0.2-4.1-3.8-7.2-7.8-6.9c-3.9,0.2-6.9,3.5-6.9,7.4
	C510.3,94.9,513.9,98.2,518.1,98.1z"/>
<path class="st5" d="M566.2,98.1c4.1-0.2,7.2-3.7,6.9-7.8c-0.2-4.1-3.7-7.2-7.8-6.9c-3.9,0.2-6.9,3.5-7,7.4
	C558.5,94.9,562,98.2,566.2,98.1z"/>
<path class="st5" d="M365.5,194c-0.3-0.4-0.7-0.7-1.2-0.8l-0.5,0.1c-0.3,0.1-0.7,0.2-1.1,0.3c-0.4,0.1-0.8,0.1-1.2,0.1
	c-3.1,0.2-6.1-0.8-8.5-2.8c-2.4-2.2-4.1-4.8-5.2-7.8c-1.4-3.7-2.5-7.5-3.1-11.3c-0.7-4.3-1.5-8.7-2-13.2c-0.6-4.4-1.5-9-2.4-13.3
	c-0.8-4.1-2.1-8-3.9-11.7c-1.6-3.4-4-6.3-6.9-8.5c-2.8-2-6.2-3.1-9.7-3.2l27.3-33.7c1.4-1.8,2.9-3.4,4.7-4.8c1.4-1.1,2.8-2,4.3-2.8
	c1.1-0.6,2.2-1,3.4-1.4c0.8-0.2,1.6-0.5,2.4-0.8l0.2-0.1c0.3-0.3,0.5-0.7,0.6-1.1c0.1-0.5-0.1-0.9-0.5-1.2l-0.1-0.1
	c-0.3-0.2-0.9-0.5-1.6-0.8c-0.9-0.3-1.9-0.5-2.8-0.5c-2.3,0.1-4.6,0.5-6.8,1.2c-4.1,1.5-8.6,1.5-12.7,0c-2.2-0.8-4.4-1.2-6.7-1.2
	c-1-0.1-2,0.1-3,0.5c-0.6,0.3-1.1,0.6-1.6,0.9c-0.4,0.4-0.6,0.9-0.5,1.5c0.1,0.7,0.8,1.2,1.5,1.1c0.8,0.1,1.5,0.2,2.3,0.5
	c0.9,0.2,1.8,0.6,2.6,1.3c0.6,0.7,1,1.5,1,2.4c0.1,1.1-0.6,2.6-1.8,4.4l-31.1,39V84.3c0-2,0.6-3.3,1.7-4c1.4-0.8,2.4-1.4,3.2-1.8
	c0.5-0.1,0.9-0.5,1-1c0.2-0.5,0-1.1-0.5-1.5c-0.5-0.4-1-0.7-1.6-0.9c-0.9-0.4-1.9-0.5-3-0.5c-2.1,0-4.2,0.4-6.2,1.2
	c-3.4,1.5-7.3,1.5-10.8,0c-2.3-0.8-4.8-1.2-7.2-1.1c-3.8-0.2-7.5,0.5-11,2c-2.4,1.1-4.5,2.8-6.1,4.9c-1.3,1.8-1.9,4-1.8,6.2
	c0.1,2,0.8,3.9,1.9,5.6c0.4,0.9,1.4,1.4,2.4,1.1c0.9-0.1,1.7-0.7,1.9-1.5c0.4-2.2,1.5-4.2,3.3-5.6c1.4-1.1,3.1-1.6,4.9-1.5
	c1.6,0.1,3.2,0.7,4.4,1.7c1.2,1,1.9,2.5,1.8,4.1v90.3c0.1,5-0.7,10-2.3,14.8c-1.3,3.4-3.1,6.6-5.4,9.4c-1.8,2.2-3.9,4-6.3,5.3
	c-1.7,0.9-3.4,1.7-5.2,2.4l-0.2,0.1c-0.5,0.3-0.9,0.7-0.9,1.3c0,0.7,0.4,1.4,1.1,1.6c0.7,0.3,1.4,0.5,2.2,0.7c1,0.2,2,0.3,3,0.3
	c5,0,9-0.9,11.8-2.6c2.7-1.6,5.2-3.5,7.6-5.6c2.2-2,4.6-3.7,7-5.3c3.1-1.6,6.5-2.4,10-2.3c1.6,0.1,3.1-0.4,4.3-1.4
	c0.3-0.1,0.6-0.3,0.8-0.6c0.1-0.4,0.1-0.8-0.2-1.1c-0.1-0.5-0.6-0.9-1.1-0.9c-0.7-0.5-1.7-1-3.1-1.8c-1.1-0.7-1.7-2-1.7-4v-46.8
	l13.3-16.7c0.8,0.3,1.4,1.2,1.8,2.7c0.7,2.7,1.2,5.5,1.5,8.3c0.3,3.4,0.7,7.2,0.9,11.7c0.2,4.5,0.7,8.9,1.2,13.4
	c0.6,4.5,1.5,8.9,2.6,13.3c1.1,4.2,2.7,8.2,5,11.8c4.5,7.5,12.7,12,21.5,11.6c2.1,0,4.3-0.2,6.3-0.7c1.8-0.4,3.7-0.9,5.4-1.6
	c1.9-0.8,3.7-2,5.1-3.5l0.1-0.2c0.2-0.5,0.2-1,0-1.5L365.5,194z"/>
<path class="st5" d="M504.6,187.8c-3.3-1.2-6-3.5-7.7-6.5c-2-3.5-3.7-7.1-5.1-10.8c-1.6-4-3.4-8-5.3-11.8c-1.7-3.4-4.2-6.2-7.2-8.4
	c4.1-1.3,8-3.5,11.2-6.3c3.3-2.8,5.9-6.3,7.6-10.2c1.6-3.6,2.2-7.6,1.7-11.5c-0.4-3.9-2-7.7-4.4-10.8c-3-3.6-6.8-6.3-11.1-8
	c-4.8-2-10.8-3.1-17.8-3.1c-5.1,0-10.1,0.4-15.1,1.2c-3,0.7-6,1.1-9,1.2c-1.9,0-3.7-0.4-5.4-1.1c-2-0.9-4.2-1.4-6.3-1.4
	c-1,0-1.9,0.1-2.8,0.5c-0.6,0.3-1.2,0.6-1.7,1l-0.2,0.2l0,0l-0.2-0.2c-0.5-0.4-1.1-0.7-1.7-1c-0.9-0.4-1.9-0.5-3-0.5
	c-0.9,0-1.8,0.1-2.6,0.5c-0.6,0.3-1.1,0.6-1.7,0.9c-0.4,0.3-0.9,0.6-1.4,0.8c-0.6,0.3-1.3,0.4-1.9,0.3c-0.6,0-1.2,0-1.8-0.2
	c-0.5-0.2-0.9-0.6-1.5-0.8c-0.5-0.3-1-0.6-1.6-0.9c-0.9-0.4-1.8-0.5-2.7-0.5c-1-0.1-2,0.1-3,0.5c-0.5,0.3-1,0.6-1.5,0.9
	c-0.4,0.2-0.7,0.7-0.7,1.1v0.2l0.1,0.2c0.2,0.4,0.4,0.7,0.7,0.9l0.3,0.2c1.1,0.5,2.2,1,3.2,1.7c1.1,0.7,1.7,2,1.7,4.1v51.5
	c0,2.9-0.1,5.8-0.5,8.8c-0.3,2.6-1,5.1-2.2,7.4c-1.1,2.1-2.7,3.8-4.7,5.1c-5.2,2.6-11.4,2.6-16.6,0c-2-1.3-3.7-3.2-4.8-5.3
	c-1.2-2.4-2-5-2.4-7.6c-0.4-2.9-0.6-5.9-0.6-8.9v-51c0-2,0.6-3.4,1.6-4.1c1-0.7,2-1.3,3.1-1.7c0.6-0.2,1-0.6,1.1-1.2
	c0.1-0.3,0.1-0.5,0-0.8c-0.1-0.2-0.2-0.4-0.3-0.6c-0.9-1-2.4-1.6-4.7-1.6c-2.1,0-4.2,0.5-6.1,1.4c-3.5,1.6-7.5,1.6-11,0
	c-1.9-0.9-4-1.3-6.1-1.4c-1.6-0.2-3.3,0.4-4.5,1.5c-0.4,0.3-0.6,0.7-0.6,1.1v0.2l0.1,0.2c0.1,0.4,0.4,0.7,0.7,0.9l0.3,0.2
	c1.1,0.4,2.2,1,3.2,1.7c1.1,0.7,1.7,2,1.7,4.1v50.9c0,4,0.6,7.9,1.7,11.7c1.2,3.8,3.3,7.2,6.1,10c3.3,3.1,7.3,5.4,11.6,6.8
	c5.9,1.9,12.1,2.8,18.3,2.6c6.5,0,11.8-1.1,15.7-3.5c3.6-2.1,6.6-5,8.8-8.5c1.8-3.1,3.1-6.5,3.6-10.1c0.4-2.8,0.7-5.7,0.8-8.5v-51.3
	c0-2,0.6-3.3,1.7-4.1c1-0.7,2.1-1.3,3.3-1.7l0.3-0.2c0.2-0.2,0.4-0.5,0.3-0.8c0.1,0.5,0.5,0.7,0.9,0.9c0.5,0.3,1,0.5,1.6,0.7
	c0.6,0.2,1.1,0.5,1.6,0.9c0.5,0.5,1,1.1,1.4,1.7c0.4,0.8,0.6,1.6,0.6,2.5v72.1c0.2,1.6-0.5,3.1-1.8,4c-1.4,0.9-2.5,1.5-3.3,1.9
	c-0.2,0.1-0.4,0.3-0.6,0.6h-0.1l-0.2,0.6c-0.3,0.7,0.2,1.1,0.5,1.4l0.1,0.1c0.5,0.3,1,0.6,1.5,0.8c0.9,0.4,1.9,0.6,2.8,0.6
	c2.2,0,4.3-0.5,6.3-1.4c3.5-1.5,7.4-1.5,10.9,0c1.9,0.9,4,1.4,6.1,1.4c1.1,0,2.1-0.2,3.1-0.6c0.5-0.2,1-0.5,1.5-0.8l0.5-0.2l0.8-0.1
	l-1.3-2.3l-0.3-0.1c-1.2-0.5-2.3-1.1-3.3-1.8c-1.3-0.9-2-2.4-1.8-4v-30.7c1.2,0.2,2.5,0.3,3.7,0.6c1.5,0.1,2.8,0.3,4.3,0.3
	c1.8,0.9,3.3,2.4,4.2,4.2c1.3,2.5,2.3,5.1,3.2,7.7c1,3,2,6,3.3,9.3c1.2,3.2,2.8,6.2,4.8,9c4.5,6.4,12.1,10.1,19.9,9.5
	c2.9,0,5.8-0.6,8.5-1.6c0.7-0.2,1.1-0.8,1.1-1.5C505.9,188.5,505.4,187.9,504.6,187.8z M459.8,108.2c1.1-0.3,2.3-0.4,3.4-0.5
	c1.1,0,2-0.1,2.8-0.1c3-0.1,5.9,1,8.1,3c2.2,2.1,3.8,4.7,4.7,7.6c0.9,3.2,1.1,6.6,0.5,9.9c-0.6,3.5-2,6.7-4.2,9.4
	c-2.4,2.8-5.4,5.1-8.9,6.5c-2.7,1.1-5.5,1.6-8.4,1.5l0,0c-1.6,0-3.1-0.1-4.7-0.3v-33.4c0.9-0.9,2-1.7,3.2-2.3
	C457.4,108.9,458.6,108.5,459.8,108.2z"/>
<path class="st5" d="M569.3,180.3c1.8-3.1,3-6.5,3.6-10.1c0.4-2.8,0.7-5.7,0.8-8.5v-51.3c0-2,0.6-3.3,1.7-4.1c1-0.7,2.1-1.3,3.3-1.7
	l0.3-0.2c0.4-0.3,0.5-0.8,0.5-1.2v-0.8l-0.2-0.2c-0.5-0.4-1.1-0.7-1.7-1c-0.9-0.4-1.9-0.5-3-0.5c-0.9,0-1.8,0.1-2.6,0.5
	c-0.6,0.3-1.1,0.6-1.7,0.9c-0.4,0.3-0.9,0.6-1.4,0.8c-0.6,0.3-1.3,0.4-2,0.3c-0.6,0-1.2,0-1.8-0.2c-0.5-0.2-0.9-0.6-1.5-0.8
	c-0.5-0.3-1-0.6-1.6-0.9c-0.9-0.4-1.8-0.5-2.7-0.5c-1-0.1-2,0.1-3,0.5c-0.5,0.3-1,0.6-1.5,0.9c-0.4,0.2-0.7,0.7-0.7,1.1l0.1,0.3
	c0.2,0.4,0.4,0.7,0.7,0.9l0.3,0.2c1.1,0.5,2.2,1,3.2,1.7c1.1,0.7,1.7,2,1.7,4.1v51.5c0,2.9-0.1,5.8-0.5,8.8c-0.3,2.6-1,5.1-2.2,7.4
	c-1.1,2.1-2.7,3.8-4.7,5.1c-5.2,2.6-11.4,2.6-16.6,0c-2-1.3-3.7-3.2-4.8-5.3c-1.2-2.4-2-5-2.4-7.6c-0.4-2.9-0.6-5.9-0.6-8.9v-51
	c0-2,0.6-3.4,1.6-4.1c1-0.7,2-1.3,3.1-1.7c0.6-0.2,1-0.6,1.1-1.2c0.2-0.4,0-0.9-0.3-1.2c-0.9-1-2.4-1.6-4.7-1.6
	c-2.1,0-4.2,0.5-6.1,1.4c-3.5,1.6-7.5,1.6-11,0c-1.9-0.9-4-1.4-6.1-1.4c-1.6-0.1-3.3,0.4-4.5,1.5c-0.4,0.3-0.6,0.7-0.6,1.1l0.1,0.3
	c0.1,0.4,0.4,0.7,0.7,0.9l0.3,0.2c1.1,0.4,2.2,1,3.2,1.7c1.1,0.7,1.7,2,1.7,4.1v50.9c0,4,0.6,7.9,1.7,11.7c1.2,3.8,3.3,7.2,6.1,10
	c3.3,3.1,7.3,5.4,11.6,6.8c5.9,1.9,12.1,2.8,18.3,2.6c6.5,0,11.8-1.1,15.7-3.5C564.1,186.7,567.1,183.8,569.3,180.3z"/>
<path class="st5" d="M665.8,81.1c-1.8-1.5-3.3-3.3-4.3-5.4c-1-2.2-1.7-4.5-2-6.9c-0.3-2.3-0.5-4.6-0.5-6.9c0-2,0.1-3.7,0.2-5
	l0.1-0.5c0-0.5-0.3-0.9-0.7-1.1c-0.3-0.3-0.6-0.5-1-0.5c-0.5,0-0.9,0.3-1.1,0.7c-1.1,0.9-2.4,1.6-3.7,2.2c-1.9,0.7-4,1.1-6,1
	c-1.5,0.1-3-0.2-4.4-0.8c-1.4-0.6-3-1.1-4.5-1.8c-1.8-0.7-3.7-1.3-5.6-1.8c-2.6-0.6-5.2-0.9-7.8-0.9c-3.4-0.1-6.8,0.4-10.1,1.2
	c-2.5,0.7-4.9,1.6-7.2,2.7c-2,1-4,1.9-5.8,2.7c-1.9,0.7-3.9,1.1-5.9,1.1c-1.7,0-3.4-0.4-5-1.1c-2.4-0.9-4.9-1.3-7.4-1.2
	c-3.7-0.1-7.4,0.6-10.8,2c-2.5,1-4.6,2.8-6.2,5c-1.3,1.8-2,4-1.9,6.2c0,2,0.7,3.9,1.8,5.6c0.5,0.8,1.4,1.3,2.3,1.1h0.1
	c0.9-0.2,1.7-0.9,1.9-1.8c0.4-2.2,1.5-4.2,3.3-5.6c1.4-1.1,3.1-1.6,4.9-1.5c1.6,0.1,3.2,0.7,4.4,1.7c1.2,1,1.9,2.5,1.8,4.1v90.3
	c0.1,5-0.7,10-2.3,14.8c-1.3,3.4-3.1,6.6-5.4,9.4c-1.8,2.2-3.9,4-6.3,5.3c-1.6,0.9-3.4,1.7-5.1,2.4c-0.5,0.2-1.3,0.6-1.3,1.2
	c0,0.7,0.4,1.4,1.1,1.6c0.7,0.3,1.4,0.5,2.2,0.7c1,0.2,2,0.3,3,0.3c5,0,9-0.9,11.8-2.6c2.7-1.7,5.3-3.5,7.7-5.6
	c2.2-1.9,4.6-3.7,7-5.3c2.4-1.5,5.7-2.3,10-2.3c1,0.1,2-0.1,3-0.5c0.5-0.2,1-0.5,1.4-0.9c0.5-0.2,0.9-0.7,0.8-1.2v-0.2l-0.1-0.2
	c-0.2-0.4-0.6-0.7-1-0.8c-0.5-0.3-1-0.5-1.5-0.7c-0.6-0.3-1.1-0.6-1.6-1c-0.5-0.4-0.9-1-1.2-1.6c-0.4-0.8-0.5-1.6-0.5-2.5v-63.6
	c0-1.4,0.3-2.2,1.1-2.6c0.2-0.2,0.6-0.3,0.9-0.3c1.1,0,2.2,0.6,2.8,1.5c1,1.1,2.3,2.5,3.7,3.9c1.6,1.5,3.4,2.8,5.2,4
	c2.5,1.4,5.4,2,8.3,1.9c2.8,0.1,5.6-0.5,8.1-1.8c2.1-1.1,4-2.5,5.7-4.1c1.4-1.4,2.6-2.9,3.5-4.7l1.7-3.2c0.2-0.5,0.2-1,0-1.5
	c-0.2-0.2-0.5-0.4-0.8-0.5c-0.2-0.2-0.5-0.3-0.8-0.5c-0.5-0.2-1-0.4-1.6-0.3c-1.5,0-3,0.6-4.2,1.6c-1.3,0.9-2.8,1.3-4.3,1.1
	c-2.1,0.1-4.3-0.2-6.3-0.8c-1.7-0.5-3.3-1.1-4.9-1.8c-1.5-0.7-3-1.4-4.3-1.9c-1.5-0.7-3.2-1-4.9-0.9c-3.6,0-6,0.5-7.6,1.5
	c-0.6,0.3-1,0.7-1.4,0.9V70.8c1.6-1.9,3.4-3.4,5.6-4.7c3.2-1.8,6.9-2.7,10.6-2.6c3.6,0,7.2,0.5,10.7,1.5c2.6,0.8,5,2.1,7,3.8
	c1.8,1.5,3.5,3.2,4.9,5.1c1.4,1.8,2.8,3.6,4.1,5.2c1.3,1.6,2.9,3.1,4.7,4.2c2,1.2,4.3,1.8,6.7,1.7c1.1,0,2.2-0.2,3.2-0.6
	c0.8-0.3,1.5-0.7,2.2-1.1c0.3-0.3,0.5-0.7,0.6-1.1C666.5,81.7,666.3,81.3,665.8,81.1z"/>
<g>
	<defs>
		<path id="SVGID_1_" d="M365.3,94.5c-3.1-0.2-5.4-2.8-5.2-5.9c0.2-3.1,2.8-5.4,5.9-5.2c3,0.2,5.3,2.6,5.3,5.6
			C371.1,92,368.5,94.5,365.3,94.5z M419.4,88.9c0.2-3.3-2.3-6.1-5.6-6.3s-6.1,2.3-6.3,5.6c-0.2,3.3,2.3,6.1,5.6,6.3c0,0,0,0,0,0
			h0.4c3.1,0.1,5.8-2.3,5.9-5.4V88.9z M524.5,88.9c0.2-3.3-2.3-6.1-5.6-6.3c-3.3-0.2-6.1,2.3-6.3,5.6c-0.2,3.3,2.3,6.1,5.6,6.3h0.4
			c3.1,0.1,5.8-2.3,5.9-5.4C524.5,89,524.5,88.9,524.5,88.9L524.5,88.9z M572.6,88.9c0.2-3.3-2.3-6.1-5.6-6.3
			c-3.3-0.2-6.1,2.3-6.3,5.6c-0.2,3.3,2.3,6.1,5.6,6.3h0.4c3.1,0.1,5.8-2.3,5.9-5.4L572.6,88.9L572.6,88.9z M276.3,211.6
			c2.6-1.5,5-3.3,7.2-5.3c2.3-2,4.8-3.9,7.4-5.6c2.7-1.7,6.5-2.6,11.1-2.6c1,0.1,2-0.2,2.8-0.7c-1.1-0.6-2.1-1.2-3.1-1.9
			c-1.7-1-2.5-2.8-2.5-5.4v-46.9l14.7-18.3l1.4,0.6c1.5,0.8,2.5,2.2,2.8,3.9c0.7,2.8,1.2,5.6,1.6,8.5c0.3,3.4,0.7,7.4,0.9,11.7
			s0.7,8.8,1.2,13.2c0.6,4.4,1.5,8.8,2.6,13.1c1,4,2.6,7.8,4.8,11.2c4.2,7,11.8,11.1,19.9,10.8c2,0,4-0.2,6-0.6
			c1.7-0.4,3.4-0.9,5.1-1.5c1.4-0.6,2.7-1.4,3.9-2.5c-0.1,0-0.2,0.1-0.3,0.1c-0.6,0.1-1.1,0.2-1.7,0.2c-3.6,0.2-7-1-9.8-3.3
			c-2.5-2.4-4.5-5.3-5.7-8.5c-1.4-3.8-2.5-7.7-3.2-11.7c-0.7-4.3-1.5-8.7-2-13.2s-1.5-8.9-2.4-13.2c-0.8-3.9-2.1-7.7-3.8-11.4
			c-1.5-3.1-3.7-5.8-6.5-7.8c-2.5-1.8-5.5-2.8-8.6-2.8l-3.5-0.2L346,85c1.5-1.9,3.1-3.6,4.9-5.1c1.5-1.1,3.1-2.1,4.7-3.1
			c1.2-0.6,2.5-1.1,3.7-1.5c0.7-0.2,1.2-0.3,1.6-0.5c-0.3-0.1-0.5-0.2-0.8-0.3c-0.7-0.2-1.3-0.3-2-0.3c-2.1,0-4.1,0.4-6,1.1
			c-4.5,1.7-9.5,1.7-14.1,0c-1.9-0.7-4-1.1-6-1.1c-1.2,0-1.8,0.1-2,0.3c-0.2,0.2-0.3,0.1-0.5,0.2c0.5,0.1,1.1,0.2,1.8,0.5
			c1.2,0.3,2.3,0.9,3.2,1.7c1,1,1.6,2.3,1.6,3.6c0.1,1.6-0.6,3.3-2.2,5.6l-34.5,43.3V82.4c0-2.6,0.8-4.4,2.5-5.4
			c1.4-0.8,2.4-1.4,3.2-1.8c-0.2-0.2-0.4-0.3-0.7-0.3c-0.7-0.3-1.4-0.4-2.2-0.3c-1.9,0-3.7,0.4-5.4,1.1c-2,0.8-4.2,1.2-6.3,1.2l0,0
			c-2-0.1-4-0.6-5.9-1.4c-2.1-0.7-4.3-1.1-6.5-1c-4.2,0-7.6,0.6-10,1.8c-2.2,0.9-4.1,2.4-5.4,4.3c-1.1,1.5-1.6,3.3-1.5,5.1
			c0.1,1.7,0.6,3.3,1.6,4.7l0.2,0.2l0.1,0.2h0.5c0.1,0,0.2-0.2,0.2-0.3c0.8-4.7,4.8-8.2,9.6-8.3h0.5c2,0.1,3.9,0.8,5.4,2.2
			c1.7,1.3,2.6,3.3,2.5,5.4v90.3c0.2,5.2-0.6,10.4-2.4,15.4c-1.3,3.6-3.3,7-5.8,10c-2,2.3-4.3,4.2-6.9,5.8c-1.6,0.9-3.2,1.6-4.9,2.3
			c0.5,0.1,0.9,0.3,1.4,0.5c0.8,0.2,1.7,0.3,2.5,0.2C270.1,213.8,273.7,213,276.3,211.6L276.3,211.6z M504,187.4
			c-3.5-1.3-6.5-3.9-8.3-7.2c-2-3.5-3.8-7.2-5.2-11c-1.6-3.9-3.3-7.8-5.2-11.6c-1.5-3.1-3.8-5.8-6.7-7.7l-2.7-1.9l3.3-1.1
			c3.9-1.2,7.5-3.3,10.6-6c3-2.6,5.5-5.9,7.1-9.5c1.4-3.4,2-7,1.6-10.7c-0.3-3.6-1.8-7.1-4.1-9.9c-2.8-3.3-6.3-5.8-10.3-7.4
			c-5.4-2.1-11.2-3.1-17-3c-5,0-9.9,0.4-14.8,1.2c-3.1,0.7-6.3,1.2-9.4,1.2c-2.2,0-4.3-0.5-6.2-1.4c-1.8-0.8-3.7-1.1-5.6-1.1
			c-0.7,0-1.4,0.1-2,0.3c-0.3,0.1-0.6,0.3-0.9,0.5c0.2,0.1,0.7,0.3,1.2,0.6c0.8,0.3,1.5,0.7,2,1.2c0.7,0.6,1.3,1.3,1.7,2.2
			c0.6,1,0.8,2.1,0.8,3.3v72.1c0.1,2.1-0.9,4.2-2.6,5.4c-1.4,0.8-2.4,1.5-3.2,1.8c0.3,0.1,0.5,0.3,0.8,0.5c0.6,0.3,1.3,0.4,1.9,0.3
			c1.9-0.1,3.8-0.4,5.6-1.1c2-0.9,4.1-1.3,6.2-1.4c2.2,0,4.3,0.5,6.3,1.4c1.7,0.8,3.5,1.2,5.3,1.1c0.7,0,1.5-0.1,2.2-0.3
			c0.3-0.2,0.6-0.3,0.9-0.5c-1.1-0.5-2.2-1.1-3.2-1.8c-1.8-1.2-2.8-3.3-2.6-5.4v-32.8l2.3,0.3c1.2,0.2,2.5,0.3,3.6,0.5l4.2,0.3h0.3
			l0.3,0.1c2.2,1,4.1,2.8,5.1,5c1.3,2.6,2.4,5.2,3.3,8c1,3,2,6,3.3,9.2c1,3.1,2.6,5.9,4.5,8.5c1.9,2.6,4.3,4.7,7,6.3
			c3.5,1.8,7.3,2.6,11.2,2.5C499.2,188.6,501.7,188.2,504,187.4L504,187.4z M476,107.5c2.5,2.3,4.2,5.2,5.1,8.4
			c0.9,3.4,1,7,0.5,10.6c-0.6,3.7-2.2,7.2-4.5,10.2c-2.6,3.1-5.9,5.6-9.7,7c-2.9,1.1-6.1,1.6-9.2,1.6c-1.6,0-3.3-0.1-4.9-0.3
			l-1.6-0.2v-35.7l0.6-0.6c1.1-1,2.3-1.9,3.6-2.6c1.3-0.7,2.7-1.1,4.1-1.4c1.2-0.3,2.4-0.4,3.6-0.5c1.1,0,2.2-0.1,3-0.1
			C470,103.9,473.4,105.1,476,107.5L476,107.5z M406.2,185.5c3.3-1.8,6.1-4.6,8.1-7.8c1.8-2.9,2.9-6.2,3.4-9.5
			c0.4-2.7,0.7-5.5,0.8-8.3v-51.4c0-2.6,0.9-4.5,2.6-5.6c1.1-0.7,2.2-1.2,3.3-1.7l0,0c-0.3-0.2-0.6-0.3-0.9-0.5
			c-0.7-0.3-1.4-0.4-2.2-0.3c-0.6,0-1.2,0.1-1.7,0.3c-0.5,0.2-0.9,0.5-1.4,0.8c-0.5,0.4-1.1,0.7-1.7,0.9c-1.8,0.6-3.7,0.6-5.4,0
			c-0.6-0.3-1.1-0.6-1.6-0.9c-0.5-0.3-0.9-0.6-1.5-0.8c-0.6-0.2-1.2-0.3-1.8-0.2c-1.2,0-1.8,0.1-2,0.3c-0.3,0.2-0.6,0.4-0.9,0.5
			c1.1,0.5,2.2,1.1,3.2,1.8c1.7,1,2.5,3,2.5,5.6v51.5c0,3.1-0.2,6.1-0.5,9c-0.3,2.8-1.1,5.5-2.4,7.9c-1.2,2.4-3.1,4.4-5.3,5.8
			c-2.8,1.6-6.1,2.3-9.3,2.2c-6.1,0.5-11.9-2.7-14.8-8.1c-1.3-2.5-2.2-5.3-2.5-8.1c-0.4-3-0.6-6.1-0.6-9.1v-51
			c0-2.6,0.8-4.5,2.4-5.6c1-0.7,2.1-1.4,3.3-1.8c-0.9-0.6-1.9-0.8-3-0.8c-1.8,0.1-3.6,0.5-5.3,1.1c-2,0.9-4.2,1.4-6.3,1.4
			c-2.2,0-4.3-0.5-6.2-1.4c-1.7-0.8-3.5-1.1-5.3-1.1c-1.1-0.1-2.1,0.2-3,0.8c1.2,0.5,2.3,1.1,3.3,1.8c1.7,1,2.5,3,2.5,5.6v50.9
			c0,3.8,0.5,7.6,1.6,11.2c1,3.5,3,6.7,5.6,9.2c3.2,2.9,6.9,5.1,10.9,6.5c5.7,1.8,11.6,2.6,17.6,2.5
			C397.7,188.7,402.5,187.5,406.2,185.5L406.2,185.5z M560.1,185.5c3.3-1.8,6.1-4.6,8.1-7.8c1.8-2.9,2.9-6.2,3.4-9.5
			c0.4-2.7,0.7-5.5,0.8-8.3v-51.4c0-2.6,0.9-4.5,2.6-5.6c1-0.7,2.1-1.2,3.3-1.7l0,0c-0.3-0.2-0.6-0.3-0.9-0.5
			c-0.7-0.3-1.4-0.4-2.2-0.3c-0.6,0-1.2,0.1-1.7,0.3c-0.5,0.2-1,0.5-1.4,0.8c-0.5,0.4-1.1,0.7-1.7,0.9c-1.8,0.6-3.7,0.6-5.4,0
			c-0.6-0.3-1.1-0.6-1.6-0.9c-0.5-0.3-0.9-0.6-1.5-0.8c-0.6-0.2-1.2-0.3-1.8-0.2c-1.2,0-1.8,0.1-2,0.3c-0.3,0.1-0.6,0.3-0.9,0.5
			c1.1,0.5,2.2,1.1,3.2,1.8c1.7,1,2.5,3,2.5,5.6v51.5c0,3.1-0.2,6.1-0.5,9c-0.3,2.8-1.1,5.5-2.4,7.9c-1.2,2.4-3.1,4.4-5.3,5.8
			c-2.3,1.5-5.4,2.2-9.3,2.2c-6.1,0.5-11.9-2.7-14.8-8.1c-1.3-2.5-2.2-5.3-2.5-8.1c-0.4-3-0.6-6.1-0.6-9.1v-51.1
			c0-2.6,0.8-4.4,2.4-5.6c1-0.7,2.1-1.4,3.3-1.8c-0.9-0.6-1.9-0.8-3-0.8c-1.8,0.1-3.6,0.5-5.3,1.1c-2,0.9-4.2,1.4-6.3,1.4
			c-2.2,0-4.3-0.5-6.2-1.4c-1.7-0.8-3.5-1.1-5.3-1.1c-1-0.1-2.1,0.2-3,0.8c1.2,0.5,2.3,1.1,3.3,1.8c1.7,1,2.5,3,2.5,5.6v50.9
			c0,3.8,0.5,7.6,1.6,11.2c1,3.5,2.9,6.7,5.6,9.2c3.1,2.9,6.8,5.1,10.9,6.5c5.7,1.8,11.6,2.6,17.6,2.5
			C551.5,188.7,556.5,187.5,560.1,185.5L560.1,185.5z M582,195.5c2.6-1.5,5.1-3.3,7.4-5.3c2.3-2,4.7-3.9,7.2-5.6
			c2.6-1.7,6.3-2.6,11-2.6c1.2,0,1.8-0.1,2-0.3c0.2-0.2,0.6-0.2,0.7-0.5c-0.4-0.2-0.8-0.3-1.1-0.5c-0.7-0.4-1.4-0.8-2-1.4
			c-0.7-0.6-1.3-1.3-1.7-2.2c-0.5-1-0.7-2.2-0.7-3.3v-63.6c-0.2-1.6,0.6-3.2,2-4.1c0.6-0.4,1.3-0.5,1.9-0.6c1.7,0,3.2,0.8,4.3,2
			c1,1.1,2.3,2.4,3.6,3.7c1.5,1.4,3.1,2.6,4.9,3.6c2.2,1.1,4.7,1.7,7.2,1.6c2.5,0,4.9-0.5,7.2-1.6c1.9-1,3.7-2.3,5.2-3.8
			c1.3-1.2,2.3-2.6,3.2-4.2l1.5-3l-0.1-0.1c-0.1-0.1-0.3-0.2-0.5-0.2c-0.3-0.1-0.5-0.1-0.8-0.1c-1.1,0-2.2,0.4-3,1.1
			c-1.6,1.2-3.6,1.7-5.6,1.6c-2.3,0-4.7-0.3-6.9-0.9c-1.7-0.5-3.5-1.2-5.1-1.9l-4.2-1.9c-1.3-0.6-2.7-0.8-4.1-0.8
			c-3.2,0-5.3,0.5-6.5,1.1c-0.6,0.3-1,0.7-1.5,0.9l-3,1.8V68.3l0.3-0.5c1.7-2.1,3.8-3.9,6.1-5.2c3.5-2,7.5-3.1,11.6-3
			c3.9-0.1,7.8,0.5,11.5,1.6c2.8,0.9,5.3,2.4,7.6,4.2c1.9,1.6,3.7,3.4,5.2,5.3c1.5,1.9,2.8,3.6,4.1,5.2c1.2,1.5,2.6,2.8,4.2,3.9
			c1.7,1,3.6,1.5,5.6,1.5c0.9,0,1.7-0.1,2.5-0.5c0.5-0.2,0.9-0.4,1.4-0.7c-2-1.6-3.6-3.7-4.6-6c-1.1-2.3-1.8-4.8-2.2-7.4
			c-0.3-2.4-0.5-4.8-0.5-7.2c0-1.8,0.1-3.4,0.2-4.8c-1.2,0.9-2.5,1.6-3.9,2.2c-2.2,0.8-4.5,1.2-6.8,1.1c-1.7,0-3.5-0.3-5.1-0.9
			c-1.4-0.6-2.8-1.1-4.5-1.8c-1.7-0.7-3.4-1.2-5.3-1.8c-2.4-0.6-4.8-0.9-7.2-0.8c-3.2-0.1-6.4,0.3-9.5,1.1c-2.4,0.7-4.7,1.6-6.9,2.6
			c-2,1-4,1.9-5.9,2.7c-2.1,0.8-4.4,1.3-6.7,1.2c-2,0-4-0.4-5.9-1.2c-2.1-0.8-4.3-1.2-6.6-1.1c-3.4-0.2-6.8,0.5-9.9,1.8
			c-2.2,0.9-4.1,2.4-5.4,4.3c-1.1,1.5-1.7,3.4-1.6,5.2c0,1.7,0.5,3.3,1.4,4.7l0.1,0.2c0.1,0.1,0.3,0.1,0.5,0.1
			c0.1,0,0.2-0.1,0.3-0.5c0.4-2.6,1.9-4.9,4-6.5c1.6-1.2,3.6-1.8,5.6-1.8h0.5c2,0.1,3.9,0.8,5.4,2.2c1.7,1.3,2.6,3.3,2.5,5.4v90.3
			c0.1,5.2-0.7,10.4-2.4,15.3c-1.3,3.7-3.3,7-5.8,10c-2,2.3-4.3,4.2-6.9,5.8c-1.9,1-3.5,1.8-4.9,2.4c0.4,0.1,0.9,0.2,1.4,0.3
			c0.8,0.2,1.7,0.4,2.5,0.3C575.7,197.8,579.3,197,582,195.5L582,195.5z"/>
	</defs>
	<clipPath id="SVGID_4_">
		<use xlink:href="#SVGID_1_"  style="overflow:visible;"/>
	</clipPath>
	<g class="st6">
		<rect x="234.8" y="31" class="st5" width="455.3" height="209.2"/>
	</g>
</g>
</svg>
