<?xml version="1.0" encoding="utf-8"?>
<!-- Generator: Adobe Illustrator 24.1.2, SVG Export Plug-In . SVG Version: 6.00 Build 0)  -->
<svg version="1.1" id="Capa_1" xmlns="http://www.w3.org/2000/svg" xmlns:xlink="http://www.w3.org/1999/xlink" x="0px" y="0px"
	 viewBox="0 0 925 263" style="enable-background:new 0 0 925 263;" xml:space="preserve">
<style type="text/css">
	.st0{display:none;fill:#ED1C24;}
	.st1{display:none;fill:#FFB71B;}
	.st2{display:none;}
	.st3{display:inline;}
	.st4{display:inline;clip-path:url(#SVGID_1_);}
	.st5{fill:#FFB71B;}
	.st6{enable-background:new    ;}
	.st7{fill:#05BD81;}
</style>
<path class="st0" d="M544.6,195h-32.7c-5.6,0-4.4-5.3-4.4-5.3l1.6-10.2c0,0,0.4-4.5,4.9-4.5h30.6c10.5,0,15.8-1.8,15.8-7.4
	c0-7.1-7.7-6.5-12-6.5c-8.2,0-33.5,2.5-33.5-25.9c0-27.4,29-27.4,36.6-27.4h29.1c4.1,0,3.3,4.6,3.3,4.6l-2.1,11.1
	c-0.6,2.6-2.9,4.5-5.6,4.4h-24.7c-3.6,0-15.8-1.6-15.8,7.4c0,7.2,8.7,5.9,12.1,5.9c10.2,0,33.5-0.4,33.5,26.5
	C581.2,195,553.7,195,544.6,195z"/>
<path class="st0" d="M468.2,195h-32.7c-5.6,0-4.4-5.3-4.4-5.3l1.6-10.2c0,0,0.4-4.5,4.9-4.5h30.6c10.5,0,15.8-1.8,15.8-7.4
	c0-7.1-7.7-6.5-12-6.5c-8.2,0-33.6,2.5-33.6-25.9c0-27.4,29-27.4,36.6-27.4h29.1c4.1,0,3.3,4.6,3.3,4.6l-2.1,11.1
	c-0.6,2.6-2.9,4.5-5.6,4.4H475c-3.6,0-15.8-1.6-15.8,7.4c0,7.2,8.7,5.9,12.2,5.9c10.2,0,33.4-0.4,33.4,26.5
	C504.8,195,477.3,195,468.2,195z"/>
<path class="st0" d="M355.4,196c-1.4,0-2.8-0.6-3.7-1.7c-0.9-1.1-1.3-2.6-1-4.1l14.1-74.9c0.4-2.4,2.3-4.1,5.5-5l11.1-2.6h0.2
	c1.4,0,2.8,0.6,3.7,1.7c0.9,1.1,1.3,2.6,1,4l-0.5,3c7-6.5,14.4-9.8,21.9-9.8c16.5,0,25.3,10.8,25.3,31.2c-0.2,10.7-3.4,21.1-9.3,30
	c-5.4,7.9-15.4,17.3-32.6,17.3c-6,0.1-11.8-1.9-16.5-5.7l-2.9,11.5c-0.6,2.9-3.1,5-6,5.1L355.4,196z M400.6,126.9
	c-6.5,0-17.7,6.2-18.7,11.6c-1,5.2-1.3,6.8-2,11.1c-0.5,2.6-1.1,6.3-2.2,12.5c-0.1,0.3,0,0.7,0.2,0.9c1.5,1.8,8.2,1.8,11.1,1.8h0.4
	c17.4,0,21.8-14.5,22.9-20.8s0.5-10.8-1.9-13.6C408.4,128.1,405.1,126.9,400.6,126.9L400.6,126.9z"/>
<path class="st0" d="M698.8,124.9c-0.3,1.6-1.7,2.7-3.3,2.8h-91c-1.3,0-2.3-0.9-2.3-2.2c0-0.2,0-0.4,0.1-0.6l2.5-14.5
	c0.3-1.6,1.7-2.7,3.3-2.8h91c1.2-0.1,2.3,0.9,2.3,2.2c0,0.2,0,0.4-0.1,0.6L698.8,124.9z"/>
<path class="st0" d="M718.9,158.8c-0.3,1.6-1.7,2.7-3.3,2.8H600.1c-1.2,0.1-2.3-0.9-2.3-2.2c0-0.2,0-0.4,0.1-0.6l2.5-14.4
	c0.3-1.6,1.7-2.7,3.3-2.8h115.5c1.3,0,2.3,1,2.3,2.2c0,0.2,0,0.4-0.1,0.6L718.9,158.8z"/>
<path class="st0" d="M738.6,192.7c-0.3,1.6-1.7,2.7-3.3,2.8H594.2c-1.3,0-2.3-0.9-2.3-2.2c0-0.2,0-0.4,0.1-0.6l2.5-14.5
	c0.3-1.6,1.7-2.7,3.3-2.8h141.1c1.3,0,2.3,0.9,2.3,2.2c0,0.2,0,0.4-0.1,0.6L738.6,192.7z"/>
<path class="st0" d="M248.5,124.9c-0.3,1.2,0.4,2.4,1.6,2.7c0.2,0.1,0.4,0.1,0.6,0.1h91c1.6-0.1,3-1.2,3.3-2.8l2.7-14.5
	c0.3-1.2-0.4-2.4-1.6-2.7c-0.2-0.1-0.4-0.1-0.6-0.1h-91c-1.6,0.1-3,1.2-3.3,2.8L248.5,124.9z"/>
<path class="st0" d="M216,158.8c-0.3,1.2,0.4,2.4,1.6,2.7c0.2,0.1,0.4,0.1,0.6,0.1h115.6c1.6-0.1,3-1.2,3.3-2.8l2.7-14.4
	c0.3-1.2-0.5-2.4-1.7-2.7c-0.2,0-0.4-0.1-0.6-0.1H222.1c-1.6,0.1-3,1.2-3.3,2.8L216,158.8z"/>
<path class="st1" d="M376.5,93.1c-0.3,4.4,3.1,8.2,7.5,8.5c4.4,0.3,8.2-3.1,8.5-7.5c0.3-4.4-3.1-8.2-7.5-8.5h-0.5
	C380.3,85.4,376.7,88.8,376.5,93.1z"/>
<path class="st1" d="M433.9,100.6c4.2-0.3,7.4-3.8,7.1-8c-0.3-4.2-3.8-7.4-8-7.1c-4,0.2-7.1,3.6-7.1,7.6
	C426,97.4,429.6,100.8,433.9,100.6z"/>
<path class="st1" d="M541.5,100.6c4.2-0.3,7.4-3.8,7.1-8c-0.3-4.2-3.8-7.4-8-7.1c-4,0.2-7.1,3.6-7.1,7.6
	C533.6,97.4,537.2,100.8,541.5,100.6z"/>
<path class="st1" d="M590.8,100.6c4.2-0.3,7.4-3.8,7.1-8c-0.3-4.2-3.8-7.4-8-7.1c-4,0.2-7.1,3.6-7.1,7.6
	C582.9,97.4,586.5,100.8,590.8,100.6z"/>
<path class="st1" d="M385.3,198.8c-0.3-0.5-0.8-0.8-1.3-0.8l-0.5,0.1c-0.4,0.1-0.7,0.2-1.2,0.4c-0.4,0.1-0.8,0.1-1.3,0.1
	c-3.2,0.2-6.3-0.9-8.7-2.9c-2.4-2.2-4.2-5-5.4-8c-1.5-3.7-2.5-7.6-3.1-11.6c-0.7-4.4-1.5-9-2.1-13.5c-0.6-4.5-1.5-9.2-2.4-13.6
	c-0.8-4.2-2.2-8.2-4-12c-1.6-3.4-4.1-6.4-7.1-8.7c-2.9-2-6.3-3.1-9.9-3.3l27.9-34.6c1.4-1.8,3-3.5,4.8-4.9c1.4-1.1,2.9-2.1,4.4-2.9
	c1.1-0.6,2.3-1,3.5-1.4c0.8-0.2,1.6-0.5,2.4-0.8l0.2-0.1c0.3-0.3,0.5-0.7,0.6-1.2c0.1-0.5-0.1-1-0.5-1.3l-0.1-0.1
	c-0.3-0.2-0.9-0.5-1.6-0.8c-0.9-0.4-1.9-0.5-2.9-0.5c-2.4,0.1-4.7,0.5-6.9,1.3c-4.2,1.6-8.8,1.6-13,0c-2.2-0.8-4.5-1.2-6.9-1.3
	c-1-0.1-2.1,0.1-3,0.5c-0.6,0.4-1.2,0.6-1.6,0.9c-0.4,0.4-0.6,1-0.5,1.5c0.1,0.7,0.8,1.2,1.5,1.2c0.8,0.1,1.6,0.2,2.3,0.5
	c1,0.2,1.9,0.6,2.6,1.3c0.6,0.7,1,1.5,1,2.4c0.1,1.2-0.6,2.7-1.9,4.5l-31.9,39.9V86.5c0-2.1,0.6-3.4,1.7-4.1
	c1.4-0.8,2.4-1.4,3.3-1.9c0.5-0.1,1-0.5,1-1c0.2-0.6,0-1.2-0.5-1.5c-0.5-0.4-1-0.7-1.6-0.9c-1-0.4-2-0.5-3-0.5
	c-2.2,0-4.3,0.4-6.3,1.2c-3.5,1.5-7.5,1.5-11,0c-2.4-0.9-4.9-1.3-7.4-1.2c-3.9-0.2-7.7,0.6-11.2,2.1c-2.5,1.1-4.6,2.8-6.3,5
	c-1.3,1.9-2,4.1-1.9,6.4c0.1,2.1,0.8,4,2,5.7c0.4,1,1.4,1.5,2.4,1.2c0.9-0.1,1.7-0.7,2-1.6c0.4-2.3,1.6-4.3,3.4-5.7
	c1.4-1.1,3.2-1.6,5-1.5c1.7,0.1,3.2,0.7,4.5,1.7c1.3,1,2,2.6,1.9,4.2v92.5c0.1,5.1-0.7,10.3-2.3,15.1c-1.3,3.5-3.2,6.8-5.6,9.7
	c-1.8,2.2-4,4.1-6.5,5.5c-1.7,0.9-3.5,1.8-5.3,2.4l-0.2,0.1c-0.5,0.4-0.9,0.7-0.9,1.3c0,0.7,0.4,1.4,1.2,1.6
	c0.7,0.3,1.5,0.5,2.2,0.7c1,0.2,2,0.4,3,0.3c5.1,0,9.2-0.9,12.1-2.7c2.8-1.7,5.4-3.6,7.8-5.7c2.3-2,4.7-3.8,7.2-5.5
	c3.1-1.7,6.6-2.5,10.2-2.3c1.6,0.1,3.2-0.4,4.4-1.4c0.3-0.1,0.6-0.3,0.8-0.6c0.1-0.4,0.1-0.8-0.2-1.2c-0.1-0.5-0.6-0.9-1.2-0.9
	c-0.7-0.5-1.8-1-3.1-1.9c-1.2-0.7-1.8-2.1-1.8-4.1v-48l13.6-17.1c0.8,0.4,1.4,1.3,1.9,2.8c0.7,2.8,1.2,5.6,1.5,8.5
	c0.4,3.5,0.7,7.4,0.9,12s0.7,9.1,1.3,13.7c0.6,4.6,1.5,9.1,2.7,13.6c1.1,4.3,2.8,8.4,5.1,12.1c4.6,7.7,13,12.2,22,11.9
	c2.2,0,4.4-0.2,6.5-0.7c1.9-0.4,3.7-1,5.6-1.6c2-0.8,3.8-2,5.2-3.6l0.1-0.2c0.2-0.5,0.2-1,0-1.5L385.3,198.8z"/>
<path class="st1" d="M527.8,192.4c-3.3-1.2-6.2-3.5-7.9-6.6c-2-3.6-3.8-7.3-5.2-11.1c-1.6-4.1-3.5-8.1-5.5-12.1
	c-1.7-3.4-4.3-6.4-7.4-8.6c4.2-1.4,8.1-3.6,11.5-6.5c3.4-2.8,6-6.4,7.8-10.5c1.6-3.7,2.2-7.7,1.8-11.8c-0.4-4-2-7.9-4.5-11
	c-3-3.6-7-6.4-11.4-8.1c-4.9-2.1-11.1-3.1-18.3-3.1c-5.2,0-10.4,0.4-15.5,1.3c-3,0.7-6.1,1.1-9.3,1.3c-1.9,0-3.8-0.4-5.6-1.2
	c-2-0.9-4.3-1.4-6.5-1.4c-1,0-2,0.1-2.9,0.5c-0.6,0.3-1.2,0.6-1.7,1l-0.2,0.2l0,0l-0.2-0.2c-0.5-0.4-1.1-0.8-1.7-1
	c-1-0.4-2-0.5-3-0.5c-0.9,0-1.8,0.1-2.7,0.5c-0.6,0.4-1.2,0.6-1.7,0.9c-0.4,0.3-0.9,0.6-1.4,0.8c-0.6,0.3-1.3,0.4-2,0.3
	c-0.6,0-1.3,0-1.9-0.2c-0.5-0.2-0.9-0.6-1.5-0.8c-0.5-0.3-1.1-0.7-1.6-0.9c-0.9-0.4-1.8-0.5-2.8-0.5c-1-0.1-2.1,0.1-3,0.5
	c-0.5,0.3-1,0.6-1.5,0.9c-0.4,0.2-0.7,0.7-0.7,1.2v0.2l0.1,0.2c0.2,0.4,0.4,0.7,0.7,0.9l0.3,0.2c1.1,0.5,2.2,1.1,3.3,1.7
	c1.2,0.7,1.7,2.1,1.7,4.2v52.7c0,3-0.1,6-0.5,9c-0.3,2.6-1,5.2-2.2,7.6c-1.1,2.1-2.8,3.9-4.8,5.2c-5.4,2.6-11.6,2.6-17,0
	c-2.1-1.4-3.8-3.2-4.9-5.5c-1.2-2.5-2-5.1-2.4-7.8c-0.4-3-0.6-6-0.6-9.1v-52.3c0-2.1,0.6-3.5,1.6-4.2c1-0.7,2-1.3,3.1-1.7
	c0.6-0.2,1.1-0.7,1.2-1.3c0.1-0.3,0.1-0.6,0-0.8c-0.1-0.2-0.2-0.4-0.4-0.6c-0.9-1-2.4-1.6-4.8-1.6c-2.2,0-4.3,0.5-6.3,1.4
	c-3.6,1.6-7.7,1.6-11.3,0c-2-0.9-4.1-1.4-6.3-1.4c-1.7-0.2-3.4,0.4-4.6,1.5c-0.4,0.3-0.6,0.7-0.6,1.2v0.2l0.1,0.2
	c0.1,0.4,0.4,0.7,0.7,0.9l0.4,0.2c1.1,0.4,2.2,1,3.3,1.7c1.2,0.7,1.7,2.1,1.7,4.2v52.1c0,4.1,0.6,8.1,1.8,12
	c1.2,3.9,3.4,7.4,6.3,10.2c3.4,3.2,7.4,5.6,11.9,7c6,1.9,12.4,2.8,18.7,2.7c6.6,0,12-1.2,16.1-3.6c3.7-2.1,6.7-5.1,9-8.7
	c1.9-3.2,3.1-6.7,3.7-10.4c0.5-2.9,0.7-5.8,0.8-8.7v-52.5c0-2.1,0.6-3.4,1.8-4.2c1-0.7,2.2-1.3,3.4-1.7l0.3-0.2
	c0.2-0.2,0.4-0.5,0.4-0.8c0.1,0.5,0.5,0.7,0.9,0.9c0.5,0.3,1.1,0.5,1.6,0.7c0.6,0.2,1.1,0.5,1.6,0.9c0.5,0.5,1,1.1,1.4,1.7
	c0.4,0.8,0.6,1.7,0.6,2.6v73.9c0.2,1.6-0.5,3.2-1.9,4.1c-1.4,0.9-2.6,1.5-3.4,2c-0.2,0.1-0.4,0.3-0.6,0.6h-0.1l-0.2,0.6
	c-0.4,0.7,0.2,1.2,0.5,1.4l0.1,0.1c0.5,0.3,1,0.6,1.5,0.8c0.9,0.4,1.9,0.6,2.9,0.6c2.2,0,4.4-0.5,6.5-1.4c3.6-1.6,7.6-1.6,11.2,0
	c2,0.9,4.1,1.4,6.3,1.4c1.1,0,2.1-0.2,3.1-0.6c0.5-0.2,1-0.5,1.5-0.8l0.5-0.2l0.8-0.1l-1.3-2.3l-0.3-0.1c-1.2-0.5-2.3-1.1-3.4-1.9
	c-1.3-0.9-2-2.5-1.9-4.1v-31.4c1.3,0.2,2.6,0.4,3.8,0.6c1.5,0.1,2.9,0.4,4.4,0.4c1.9,0.9,3.4,2.4,4.3,4.3c1.3,2.5,2.4,5.2,3.3,7.9
	c1,3,2.1,6.2,3.4,9.5c1.2,3.3,2.9,6.3,4.9,9.2c4.6,6.6,12.4,10.3,20.4,9.8c3,0,5.9-0.6,8.7-1.6c0.7-0.2,1.2-0.8,1.2-1.5
	C529.1,193.2,528.5,192.6,527.8,192.4z M481.8,111c1.1-0.3,2.3-0.4,3.5-0.5c1.2,0,2.1-0.1,2.9-0.1c3.1-0.1,6,1,8.3,3
	c2.3,2.1,3.9,4.8,4.8,7.8c0.9,3.3,1.1,6.8,0.5,10.1c-0.6,3.5-2.1,6.9-4.3,9.7c-2.4,2.9-5.6,5.2-9.1,6.6c-2.7,1.1-5.7,1.6-8.6,1.5
	l0,0c-1.6,0-3.2-0.1-4.8-0.4v-34.2c1-0.9,2.1-1.7,3.3-2.3C479.4,111.7,480.6,111.2,481.8,111z"/>
<path class="st1" d="M594,184.8c1.9-3.2,3.1-6.7,3.7-10.4c0.5-2.9,0.7-5.8,0.8-8.7v-52.6c0-2.1,0.6-3.4,1.8-4.2
	c1-0.7,2.2-1.3,3.4-1.7l0.3-0.2c0.4-0.3,0.5-0.8,0.5-1.3v-0.8l-0.2-0.2c-0.5-0.4-1.1-0.8-1.7-1c-1-0.4-2-0.5-3-0.5
	c-0.9,0-1.8,0.1-2.7,0.5c-0.6,0.4-1.2,0.6-1.7,0.9c-0.4,0.3-0.9,0.6-1.4,0.8c-0.6,0.3-1.3,0.4-2,0.3c-0.6,0-1.3,0-1.9-0.2
	c-0.5-0.2-0.9-0.6-1.5-0.8c-0.5-0.3-1.1-0.7-1.6-0.9c-0.9-0.4-1.8-0.5-2.8-0.5c-1-0.1-2.1,0.1-3,0.5c-0.5,0.3-1,0.6-1.5,0.9
	c-0.4,0.2-0.7,0.7-0.7,1.2l0.1,0.4c0.2,0.4,0.4,0.7,0.7,0.9l0.3,0.2c1.1,0.5,2.2,1.1,3.3,1.7c1.2,0.7,1.7,2.1,1.7,4.2v52.7
	c0,3-0.1,6-0.5,9c-0.3,2.6-1,5.2-2.2,7.6c-1.1,2.1-2.8,3.9-4.8,5.2c-5.4,2.6-11.6,2.6-17,0c-2.1-1.4-3.8-3.2-4.9-5.5
	c-1.2-2.5-2-5.1-2.4-7.8c-0.4-3-0.6-6-0.6-9.1v-52.2c0-2.1,0.6-3.5,1.6-4.2c1-0.7,2-1.3,3.1-1.7c0.6-0.2,1.1-0.7,1.2-1.3
	c0.2-0.5,0-1-0.4-1.3c-0.9-1-2.4-1.6-4.8-1.6c-2.2,0-4.3,0.5-6.3,1.4c-3.6,1.6-7.7,1.6-11.3,0c-2-0.9-4.1-1.4-6.3-1.4
	c-1.7-0.2-3.4,0.4-4.6,1.5c-0.4,0.3-0.6,0.7-0.6,1.2l0.1,0.3c0.1,0.4,0.4,0.7,0.7,0.9l0.4,0.2c1.1,0.4,2.2,1,3.3,1.7
	c1.2,0.7,1.7,2.1,1.7,4.2v52.1c0,4.1,0.6,8.1,1.8,12c1.2,3.9,3.3,7.4,6.3,10.2c3.4,3.2,7.4,5.6,11.9,7c6,1.9,12.4,2.8,18.7,2.7
	c6.6,0,12.1-1.2,16.1-3.6C588.7,191.3,591.7,188.3,594,184.8z"/>
<path class="st1" d="M692.9,83.2c-1.9-1.5-3.4-3.4-4.4-5.6c-1-2.3-1.7-4.6-2.1-7.1c-0.3-2.4-0.5-4.7-0.5-7.1c0-2.1,0.1-3.8,0.2-5.1
	l0.1-0.5c0-0.5-0.3-0.9-0.7-1.2c-0.3-0.3-0.6-0.5-1-0.5c-0.5,0-0.9,0.3-1.2,0.7c-1.2,0.9-2.5,1.7-3.8,2.2c-2,0.8-4.1,1.1-6.2,1.1
	c-1.6,0.1-3.1-0.2-4.5-0.8c-1.4-0.6-3-1.2-4.6-1.9c-1.9-0.7-3.8-1.3-5.7-1.9c-2.6-0.7-5.3-1-8-0.9c-3.5-0.1-7,0.4-10.4,1.3
	c-2.5,0.7-5,1.7-7.3,2.8c-2.1,1.1-4.1,2-5.9,2.8c-1.9,0.8-4,1.2-6.1,1.2c-1.8,0-3.5-0.4-5.1-1.2c-2.4-0.9-5-1.4-7.6-1.3
	c-3.8-0.1-7.6,0.6-11.1,2.1c-2.5,1.1-4.7,2.8-6.3,5.1c-1.3,1.9-2,4.1-2,6.4c0,2,0.7,4,1.9,5.7c0.5,0.8,1.4,1.3,2.3,1.2h0.1
	c1-0.2,1.7-0.9,2-1.9c0.4-2.3,1.6-4.3,3.4-5.7c1.4-1.1,3.2-1.6,5-1.5c1.7,0.1,3.2,0.7,4.5,1.8c1.3,1,2,2.6,1.9,4.2v92.5
	c0.1,5.1-0.7,10.3-2.3,15.1c-1.3,3.5-3.2,6.8-5.6,9.7c-1.8,2.2-4,4.1-6.5,5.5c-1.7,0.9-3.4,1.7-5.2,2.4c-0.5,0.2-1.3,0.6-1.3,1.3
	c0,0.7,0.5,1.4,1.2,1.6c0.7,0.3,1.5,0.5,2.2,0.7c1,0.2,2,0.4,3,0.3c5.1,0,9.2-0.9,12.1-2.7c2.8-1.7,5.4-3.6,7.9-5.7
	c2.3-2,4.7-3.8,7.2-5.5c2.4-1.5,5.8-2.3,10.2-2.3c1,0.1,2.1-0.1,3-0.5c0.5-0.2,1-0.5,1.4-0.9c0.5-0.2,0.9-0.7,0.8-1.3v-0.2l-0.1-0.2
	c-0.2-0.4-0.6-0.7-1-0.8c-0.5-0.3-1-0.5-1.5-0.7c-0.6-0.3-1.1-0.6-1.6-1c-0.5-0.5-1-1-1.3-1.6c-0.4-0.8-0.5-1.7-0.5-2.6v-65.1
	c0-1.4,0.4-2.2,1.2-2.7c0.3-0.2,0.6-0.4,0.9-0.4c1.2,0,2.2,0.6,2.9,1.5c1,1.2,2.3,2.6,3.8,3.9c1.6,1.5,3.4,2.9,5.3,4.1
	c2.6,1.4,5.5,2.1,8.5,2c2.9,0.1,5.7-0.5,8.3-1.9c2.1-1.1,4.1-2.5,5.8-4.2c1.4-1.4,2.6-3,3.6-4.8l1.7-3.3c0.2-0.5,0.2-1,0-1.5
	c-0.2-0.2-0.5-0.4-0.8-0.5c-0.2-0.2-0.5-0.4-0.8-0.5c-0.5-0.2-1.1-0.4-1.6-0.4c-1.6,0-3.1,0.6-4.3,1.6c-1.3,0.9-2.9,1.3-4.4,1.2
	c-2.2,0.1-4.4-0.2-6.5-0.8c-1.7-0.5-3.4-1.1-5-1.9c-1.5-0.7-3-1.4-4.4-2c-1.6-0.7-3.3-1-5-0.9c-3.7,0-6.2,0.5-7.8,1.5
	c-0.6,0.4-1,0.7-1.4,0.9V72.6c1.6-1.9,3.5-3.5,5.7-4.8c3.3-1.9,7-2.8,10.8-2.7c3.7,0,7.4,0.5,11,1.5c2.6,0.9,5.1,2.2,7.2,3.9
	c1.9,1.5,3.6,3.3,5,5.2c1.4,1.9,2.9,3.7,4.2,5.4c1.4,1.7,3,3.1,4.8,4.3c2.1,1.2,4.5,1.8,6.9,1.7c1.1,0,2.2-0.2,3.3-0.6
	c0.8-0.3,1.5-0.7,2.2-1.2c0.4-0.3,0.6-0.7,0.6-1.2C693.6,83.9,693.3,83.4,692.9,83.2z"/>
<g class="st2">
	<defs>
		<path id="SVGID_3_" d="M385.1,96.9c-3.2-0.2-5.6-2.9-5.4-6c0.2-3.2,2.9-5.6,6-5.4c3,0.2,5.4,2.7,5.4,5.7
			C391,94.4,388.3,97,385.1,96.9z M440.5,91.2c0.2-3.3-2.3-6.2-5.7-6.4s-6.2,2.3-6.4,5.7c-0.2,3.3,2.3,6.2,5.7,6.4c0,0,0,0,0,0h0.4
			c3.2,0.1,5.9-2.4,6-5.6V91.2z M548.1,91.2c0.2-3.3-2.3-6.2-5.7-6.4c-3.3-0.2-6.2,2.3-6.4,5.7c-0.2,3.3,2.3,6.2,5.7,6.4h0.4
			c3.2,0.1,5.9-2.4,6-5.6C548.1,91.3,548.1,91.2,548.1,91.2L548.1,91.2z M597.4,91.2c0.2-3.3-2.3-6.2-5.7-6.4
			c-3.3-0.2-6.2,2.3-6.4,5.7c-0.2,3.3,2.3,6.2,5.7,6.4h0.4c3.2,0.1,5.9-2.4,6.1-5.6L597.4,91.2L597.4,91.2z M293.9,216.8
			c2.7-1.6,5.1-3.4,7.4-5.5c2.4-2.1,4.9-4,7.6-5.7c2.8-1.7,6.6-2.7,11.4-2.7c1,0.1,2-0.2,2.9-0.7c-1.1-0.6-2.1-1.3-3.1-2
			c-1.7-1-2.6-2.9-2.6-5.6v-48.1l15-18.7l1.4,0.6c1.5,0.8,2.6,2.3,2.9,4c0.7,2.9,1.3,5.8,1.6,8.7c0.3,3.5,0.7,7.6,0.9,12
			c0.2,4.4,0.7,9,1.3,13.5c0.6,4.5,1.5,9,2.7,13.4c1.1,4.1,2.7,7.9,4.9,11.5c4.3,7.1,12.1,11.4,20.4,11c2.1,0,4.1-0.2,6.2-0.6
			c1.8-0.4,3.5-0.9,5.2-1.5c1.5-0.6,2.8-1.5,4-2.6c-0.1,0-0.2,0.1-0.4,0.1c-0.6,0.1-1.2,0.2-1.7,0.2c-3.6,0.2-7.2-1-10-3.4
			c-2.6-2.4-4.6-5.4-5.8-8.7c-1.5-3.9-2.6-7.9-3.3-12c-0.7-4.4-1.5-9-2.1-13.5c-0.6-4.5-1.5-9.1-2.4-13.5c-0.8-4-2.1-7.9-3.9-11.6
			c-1.5-3.2-3.8-5.9-6.6-8c-2.6-1.8-5.7-2.8-8.8-2.9l-3.6-0.2l30-37.2c1.5-1.9,3.2-3.7,5-5.2c1.5-1.1,3.1-2.2,4.8-3.1
			c1.2-0.6,2.5-1.1,3.8-1.5c0.7-0.2,1.3-0.4,1.6-0.5c-0.3-0.1-0.5-0.2-0.8-0.3c-0.7-0.2-1.4-0.4-2.1-0.4c-2.1,0-4.2,0.4-6.2,1.2
			c-4.7,1.7-9.8,1.7-14.4,0c-2-0.7-4.1-1.1-6.2-1.2c-1.3,0-1.9,0.1-2.1,0.4s-0.4,0.1-0.5,0.2c0.5,0.1,1.2,0.2,1.9,0.5
			c1.2,0.3,2.3,0.9,3.3,1.7c1,1,1.6,2.3,1.6,3.7c0.1,1.6-0.6,3.4-2.2,5.7l-35.4,44.3V84.5c0-2.7,0.8-4.5,2.6-5.6
			c1.4-0.8,2.4-1.4,3.3-1.9c-0.2-0.2-0.4-0.3-0.7-0.4c-0.7-0.3-1.5-0.4-2.2-0.4c-1.9,0-3.8,0.4-5.6,1.2c-2.1,0.8-4.3,1.3-6.5,1.3
			l0,0c-2.1-0.1-4.1-0.6-6-1.4c-2.1-0.8-4.4-1.1-6.6-1c-4.3,0-7.8,0.6-10.2,1.9c-2.2,0.9-4.2,2.5-5.6,4.4c-1.1,1.5-1.6,3.4-1.5,5.2
			c0.1,1.7,0.7,3.4,1.6,4.8l0.2,0.2l0.1,0.2h0.5c0.1,0,0.2-0.2,0.2-0.4c0.8-4.8,4.9-8.4,9.8-8.5h0.5c2,0.1,4,0.9,5.6,2.2
			c1.7,1.3,2.6,3.4,2.6,5.6v92.5c0.2,5.4-0.7,10.7-2.4,15.8c-1.3,3.7-3.4,7.2-5.9,10.2c-2,2.3-4.4,4.3-7.1,5.9
			c-1.6,0.9-3.3,1.7-5,2.3c0.5,0.1,0.9,0.3,1.4,0.5c0.8,0.2,1.7,0.3,2.6,0.2C287.6,219.1,291.3,218.3,293.9,216.8L293.9,216.8z
			 M527.1,192.1c-3.6-1.4-6.6-4-8.5-7.3c-2.1-3.6-3.8-7.4-5.4-11.3c-1.6-4-3.4-8-5.3-11.9c-1.6-3.2-3.9-5.9-6.9-7.9l-2.8-2l3.4-1.2
			c4-1.3,7.7-3.4,10.8-6.2c3.1-2.7,5.6-6,7.3-9.8c1.5-3.4,2-7.2,1.6-10.9c-0.3-3.7-1.8-7.2-4.2-10.1c-2.8-3.4-6.5-6-10.6-7.6
			c-5.6-2.2-11.5-3.2-17.5-3c-5.1,0-10.1,0.4-15.1,1.3c-3.2,0.7-6.4,1.2-9.7,1.3c-2.2,0-4.4-0.5-6.4-1.4c-1.8-0.8-3.7-1.2-5.7-1.2
			c-0.7,0-1.4,0.1-2.1,0.4c-0.3,0.1-0.6,0.3-0.9,0.5c0.2,0.1,0.7,0.4,1.3,0.6c0.8,0.3,1.5,0.7,2.1,1.3c0.7,0.6,1.3,1.4,1.8,2.2
			c0.6,1,0.9,2.2,0.8,3.4v73.9c0.1,2.2-0.9,4.3-2.7,5.6c-1.4,0.8-2.4,1.5-3.3,1.9c0.3,0.1,0.6,0.3,0.8,0.5c0.6,0.3,1.3,0.4,2,0.4
			c2-0.1,3.9-0.4,5.7-1.2c2-0.9,4.2-1.4,6.4-1.4c2.2,0,4.4,0.5,6.4,1.4c1.7,0.8,3.6,1.2,5.5,1.2c0.8,0,1.5-0.1,2.2-0.4
			c0.3-0.2,0.6-0.3,0.9-0.5c-1.1-0.5-2.2-1.1-3.3-1.9c-1.8-1.3-2.8-3.4-2.7-5.6v-33.6l2.3,0.3c1.3,0.2,2.6,0.4,3.7,0.5l4.3,0.3h0.4
			l0.4,0.1c2.3,1,4.2,2.8,5.2,5.1c1.3,2.6,2.4,5.4,3.4,8.1c1,3,2.1,6.2,3.4,9.4c1.1,3.1,2.6,6.1,4.6,8.7c1.9,2.6,4.4,4.8,7.2,6.4
			c3.6,1.8,7.5,2.7,11.5,2.6C522.2,193.3,524.7,192.9,527.1,192.1L527.1,192.1z M498.4,110.3c2.5,2.3,4.3,5.3,5.2,8.6
			c0.9,3.5,1.1,7.2,0.5,10.8c-0.7,3.8-2.3,7.4-4.6,10.5c-2.6,3.2-6,5.7-9.9,7.2c-3,1.1-6.2,1.7-9.4,1.6c-1.7,0-3.3-0.1-5-0.3
			l-1.6-0.2v-36.5l0.6-0.6c1.1-1.1,2.4-2,3.7-2.7c1.3-0.7,2.7-1.1,4.2-1.4c1.2-0.3,2.5-0.4,3.7-0.5c1.2,0,2.2-0.1,3-0.1
			C492.3,106.5,495.8,107.8,498.4,110.3L498.4,110.3z M427,190.1c3.4-1.9,6.3-4.7,8.3-8c1.8-3,3-6.3,3.5-9.8
			c0.4-2.8,0.7-5.7,0.8-8.5v-52.6c0-2.7,0.9-4.6,2.7-5.7c1.1-0.7,2.2-1.3,3.4-1.7l0,0c-0.3-0.2-0.6-0.3-0.9-0.5
			c-0.7-0.3-1.5-0.4-2.2-0.4c-0.6,0-1.2,0.1-1.8,0.4c-0.5,0.2-1,0.5-1.4,0.8c-0.5,0.4-1.1,0.7-1.7,0.9c-1.8,0.6-3.8,0.6-5.6,0
			c-0.6-0.3-1.1-0.6-1.6-0.9c-0.5-0.3-1-0.6-1.5-0.8c-0.6-0.2-1.2-0.3-1.9-0.2c-1.3,0-1.9,0.1-2.1,0.4c-0.3,0.2-0.6,0.4-0.9,0.5
			c1.2,0.5,2.3,1.1,3.3,1.9c1.8,1,2.6,3,2.6,5.7v52.7c0,3.1-0.2,6.3-0.5,9.2c-0.3,2.8-1.1,5.6-2.4,8.1c-1.3,2.4-3.2,4.5-5.5,5.9
			c-2.9,1.6-6.2,2.4-9.5,2.2c-6.3,0.5-12.2-2.8-15.1-8.3c-1.4-2.6-2.2-5.4-2.6-8.3c-0.4-3.1-0.6-6.2-0.6-9.3v-52.3
			c0-2.7,0.8-4.6,2.4-5.7c1-0.8,2.2-1.4,3.4-1.9c-0.9-0.6-2-0.9-3-0.8c-1.9,0.1-3.7,0.5-5.5,1.2c-2,0.9-4.3,1.4-6.5,1.4
			c-2.2,0-4.4-0.5-6.4-1.4c-1.7-0.8-3.6-1.2-5.5-1.2c-1.1-0.1-2.2,0.2-3,0.8c1.2,0.5,2.3,1.1,3.4,1.9c1.8,1,2.6,3,2.6,5.7v52.1
			c0,3.9,0.6,7.8,1.6,11.5c1.1,3.6,3,6.9,5.8,9.4c3.2,2.9,7,5.2,11.2,6.6c5.8,1.8,11.9,2.7,18,2.6
			C418.2,193.4,423.2,192.2,427,190.1L427,190.1z M584.5,190.1c3.4-1.9,6.3-4.7,8.3-8c1.8-3,3-6.3,3.5-9.8c0.4-2.8,0.7-5.7,0.8-8.5
			v-52.6c0-2.7,0.9-4.6,2.7-5.7c1.1-0.7,2.2-1.2,3.4-1.7l0,0c-0.3-0.2-0.6-0.3-0.9-0.5c-0.7-0.3-1.5-0.4-2.2-0.4
			c-0.6,0-1.2,0.1-1.7,0.4c-0.5,0.2-1,0.5-1.4,0.8c-0.5,0.4-1.1,0.7-1.7,0.9c-1.8,0.6-3.8,0.6-5.6,0c-0.6-0.3-1.1-0.6-1.6-0.9
			c-0.5-0.3-1-0.6-1.5-0.8c-0.6-0.2-1.2-0.3-1.9-0.2c-1.3,0-1.9,0.1-2.1,0.4c-0.3,0.1-0.6,0.3-0.9,0.5c1.2,0.5,2.3,1.1,3.3,1.9
			c1.7,1,2.6,3,2.6,5.7v52.7c0,3.1-0.2,6.3-0.5,9.2c-0.3,2.8-1.1,5.6-2.4,8.1c-1.3,2.4-3.2,4.5-5.5,5.9c-2.3,1.5-5.6,2.2-9.5,2.2
			c-6.3,0.5-12.2-2.8-15.1-8.3c-1.4-2.6-2.2-5.4-2.6-8.3c-0.4-3.1-0.6-6.2-0.6-9.3v-52.3c0-2.7,0.8-4.5,2.4-5.7
			c1-0.8,2.2-1.4,3.4-1.9c-0.9-0.6-2-0.9-3-0.8c-1.9,0.1-3.7,0.5-5.5,1.2c-2,0.9-4.3,1.4-6.5,1.4c-2.2,0-4.4-0.5-6.4-1.4
			c-1.7-0.8-3.6-1.2-5.5-1.2c-1.1-0.1-2.2,0.2-3,0.8c1.2,0.5,2.3,1.1,3.4,1.9c1.7,1,2.6,3,2.6,5.7v52.1c0,3.9,0.5,7.8,1.6,11.5
			c1,3.6,3,6.9,5.7,9.4c3.2,2.9,7,5.2,11.1,6.6c5.8,1.8,11.9,2.7,18,2.6C575.7,193.4,580.8,192.2,584.5,190.1L584.5,190.1z
			 M607,200.3c2.7-1.6,5.2-3.4,7.6-5.5c2.3-2.1,4.8-4,7.4-5.7c2.7-1.7,6.5-2.7,11.3-2.7c1.3,0,1.9-0.1,2.1-0.3s0.6-0.2,0.7-0.5
			c-0.4-0.2-0.8-0.3-1.2-0.5c-0.8-0.4-1.5-0.9-2.1-1.4c-0.7-0.6-1.3-1.4-1.7-2.2c-0.5-1.1-0.7-2.2-0.7-3.4V113
			c-0.2-1.7,0.7-3.3,2.1-4.2c0.6-0.4,1.3-0.6,2-0.6c1.7,0,3.3,0.8,4.4,2.1c1,1.2,2.3,2.4,3.7,3.8c1.5,1.4,3.2,2.7,5,3.7
			c2.3,1.2,4.8,1.7,7.4,1.6c2.5,0,5-0.5,7.3-1.6c1.9-1,3.7-2.3,5.3-3.8c1.3-1.3,2.4-2.7,3.3-4.3l1.5-3l-0.1-0.1
			c-0.1-0.1-0.3-0.2-0.5-0.2c-0.3-0.1-0.5-0.1-0.8-0.1c-1.1,0-2.2,0.4-3,1.2c-1.7,1.2-3.7,1.8-5.7,1.6c-2.4,0-4.8-0.3-7.1-0.9
			c-1.8-0.5-3.5-1.2-5.2-2l-4.3-2c-1.3-0.6-2.7-0.8-4.2-0.8c-3.3,0-5.5,0.5-6.6,1.2c-0.6,0.4-1,0.7-1.5,0.9l-3,1.9V70.1l0.3-0.5
			c1.8-2.1,3.9-3.9,6.3-5.3c3.6-2.1,7.7-3.1,11.9-3c4-0.1,7.9,0.5,11.8,1.6c2.8,1,5.5,2.4,7.8,4.3c2,1.6,3.8,3.5,5.4,5.5
			c1.5,2,2.9,3.7,4.2,5.3c1.2,1.5,2.7,2.9,4.3,4c1.7,1,3.7,1.6,5.7,1.5c0.9,0,1.8-0.1,2.6-0.5c0.5-0.2,1-0.4,1.4-0.7
			c-2.1-1.6-3.7-3.7-4.7-6.2c-1.1-2.4-1.9-4.9-2.2-7.6c-0.3-2.4-0.5-4.9-0.5-7.3c0-1.9,0.1-3.5,0.2-4.9c-1.2,0.9-2.6,1.6-4,2.2
			c-2.2,0.9-4.6,1.2-7,1.2c-1.8,0-3.6-0.3-5.2-0.9c-1.4-0.6-2.9-1.2-4.6-1.9s-3.5-1.3-5.5-1.9c-2.4-0.6-4.9-0.9-7.4-0.8
			c-3.3-0.1-6.6,0.3-9.8,1.2c-2.4,0.8-4.8,1.7-7.1,2.7c-2.1,1-4.1,2-6.1,2.8c-2.2,0.9-4.5,1.3-6.9,1.3c-2.1,0-4.1-0.5-6.1-1.3
			c-2.1-0.8-4.4-1.2-6.7-1.2c-3.5-0.2-6.9,0.5-10.1,1.9c-2.2,0.9-4.2,2.5-5.6,4.4c-1.1,1.5-1.7,3.4-1.6,5.3c0,1.7,0.5,3.4,1.5,4.8
			l0.1,0.2c0.1,0.1,0.3,0.1,0.5,0.1c0.1,0,0.2-0.1,0.3-0.5c0.4-2.7,1.9-5,4.1-6.6c1.7-1.2,3.7-1.8,5.7-1.9h0.5
			c2.1,0.1,4,0.9,5.6,2.2c1.7,1.3,2.7,3.4,2.6,5.6v92.5c0.2,5.3-0.7,10.7-2.4,15.7c-1.3,3.7-3.4,7.2-5.9,10.2
			c-2,2.3-4.4,4.3-7.1,5.9c-2,1-3.6,1.9-5,2.4c0.5,0.1,0.9,0.3,1.4,0.3c0.8,0.2,1.7,0.4,2.6,0.4C600.5,202.8,604.3,201.9,607,200.3
			L607,200.3z"/>
	</defs>
	<clipPath id="SVGID_1_" class="st3">
		<use xlink:href="#SVGID_3_"  style="overflow:visible;"/>
	</clipPath>
	<g class="st4">
		<rect x="251.4" y="31.9" class="st5" width="466.3" height="214.3"/>
	</g>
</g>
<g>
	<g class="st6">
		<path d="M350.3,124.3l7.6,0l0,34.6l21.5,0l0,6.4l-29.1,0L350.3,124.3z"/>
	</g>
	<g class="st6">
		<path d="M381.4,144.8c0-12.1,9.4-21.1,22.1-21.1c12.7,0,22.1,8.9,22.1,21.1c0,12.2-9.4,21.1-22.1,21.1
			C390.8,165.9,381.4,157,381.4,144.8z M417.9,144.9c0-8.4-6.1-14.4-14.4-14.4c-8.3,0-14.4,6-14.4,14.4c0,8.4,6.1,14.4,14.4,14.4
			C411.8,159.3,417.9,153.2,417.9,144.9z"/>
		<path d="M430.2,161l2.6-5.9c3.3,2.6,8.5,4.5,13.5,4.5c6.4,0,9.1-2.3,9.1-5.3c0-8.9-24.4-3.1-24.4-18.3c0-6.6,5.3-12.2,16.5-12.2
			c4.9,0,10.1,1.3,13.7,3.6l-2.4,5.9c-3.7-2.2-7.7-3.2-11.3-3.2c-6.3,0-8.9,2.5-8.9,5.6c0,8.7,24.3,3.1,24.3,18.1
			c0,6.6-5.3,12.2-16.6,12.2C440,166,433.6,164,430.2,161z"/>
		<path d="M480.5,160.1l4.3-5.2c2.2,3,4.9,4.7,8.1,4.7c4.2,0,6.4-2.5,6.4-7.6l0-21.2l-14.6,0l0-6.4l22.2,0l0,27.2
			c0,9.7-4.8,14.4-13.8,14.4C488,166,483.3,163.9,480.5,160.1z"/>
	</g>
	<g class="st6">
		<path d="M515.4,147.5l0-23.2l7.6,0l0,22.9c0,8.4,3.8,12.1,10.4,12.1c6.6,0,10.4-3.6,10.4-12.1l0-22.9l7.5,0l0,23.2
			c0,12-6.8,18.5-17.9,18.5C522.1,166,515.4,159.5,515.4,147.5z"/>
	</g>
	<g class="st6">
		<path d="M588,156l-20.5,0l-4.1,9.5l-7.9,0l18.5-41l7.5,0l18.5,41l-8,0L588,156z M585.4,150l-7.7-17.9L570,150L585.4,150z"/>
		<path d="M641.7,124.5l0,41l-6.3,0l-22.6-27.8l0,27.8l-7.6,0l0-41l6.3,0l22.6,27.8l0-27.8L641.7,124.5z"/>
		<path d="M683.5,159.1l0,6.4l-30.8,0l0-41l30,0l0,6.4l-22.3,0l0,10.7l19.8,0l0,6.3l-19.8,0l0,11.3L683.5,159.1z"/>
		<path d="M688.5,161.2l2.6-5.9c3.3,2.6,8.5,4.5,13.5,4.5c6.4,0,9.1-2.3,9.1-5.3c0-8.9-24.4-3.1-24.4-18.3c0-6.6,5.3-12.2,16.5-12.2
			c4.9,0,10.1,1.3,13.7,3.6l-2.4,5.9c-3.7-2.2-7.7-3.2-11.3-3.2c-6.3,0-8.9,2.5-8.9,5.6c0,8.7,24.3,3.1,24.3,18.1
			c0,6.6-5.3,12.2-16.6,12.2C698.3,166.1,691.9,164.1,688.5,161.2z"/>
	</g>
</g>
<polygon points="228.1,115 232.5,115 232.5,134.7 244.7,134.7 244.7,138.4 228.1,138.4 "/>
<path d="M282.5,137.8c-1.2-0.5-2.3-1.4-3.1-2.5l2.5-3c1,1.6,2.7,2.6,4.6,2.7c2.4,0,3.6-1.4,3.6-4.3v-12.1h-8.3V115h12.6v15.5
	c0.1,2.2-0.6,4.5-2,6.2c-1.3,1.4-3.3,2.1-5.9,2.1C285.1,138.7,283.8,138.4,282.5,137.8"/>
<path class="st7" d="M230.7,74.5c-4.3,0-7.7-3.4-7.7-7.7c0-4.3,3.4-7.7,7.7-7.7c4.3,0,7.7,3.4,7.7,7.7
	C238.4,71.1,235,74.5,230.7,74.5 M230.7,62.9c-2.2,0-3.9,1.7-3.9,3.9c0,2.2,1.7,3.9,3.9,3.9c2.2,0,3.9-1.7,3.9-3.9l0,0
	C234.6,64.6,232.9,62.9,230.7,62.9"/>
<path class="st7" d="M250.6,73.7c-5.4,0-9.7-4.3-9.7-9.7s4.3-9.7,9.7-9.7c5.4,0,9.7,4.3,9.7,9.7C260.3,69.3,256,73.7,250.6,73.7
	 M250.6,58.1c-3.3,0-5.9,2.6-5.9,5.9c0,3.3,2.6,5.9,5.9,5.9c3.3,0,5.9-2.6,5.9-5.9v0C256.5,60.8,253.9,58.2,250.6,58.1"/>
<path class="st7" d="M272.8,73.7c-5.4,0-9.7-4.3-9.7-9.7s4.3-9.7,9.7-9.7c5.4,0,9.7,4.3,9.7,9.7C282.5,69.3,278.2,73.7,272.8,73.7
	 M272.8,58.1c-3.3,0-5.9,2.6-5.9,5.9c0,3.3,2.6,5.9,5.9,5.9c3.3,0,5.9-2.6,5.9-5.9v0C278.7,60.8,276.1,58.2,272.8,58.1"/>
<path class="st7" d="M292.7,74.5c-4.3,0-7.7-3.4-7.7-7.7s3.4-7.7,7.7-7.7c4.3,0,7.7,3.4,7.7,7.7C300.4,71.1,297,74.5,292.7,74.5
	L292.7,74.5 M292.7,62.9c-2.2,0-3.9,1.7-3.9,3.9c0,2.2,1.7,3.9,3.9,3.9c2.2,0,3.9-1.7,3.9-3.9l0,0C296.6,64.6,294.9,62.9,292.7,62.9
	"/>
<path class="st7" d="M314.6,154.4c-35.1-5.6-70.9-5.6-106,0l-0.6-3.7c17.7-2.8,35.6-4.3,53.6-4.3c18,0,35.9,1.4,53.6,4.3
	L314.6,154.4z"/>
<path class="st7" d="M314.6,86.9c-35.1-5.6-70.9-5.6-106,0l-0.6-3.7c17.7-2.8,35.6-4.3,53.6-4.3c18,0,35.9,1.4,53.6,4.3L314.6,86.9z
	"/>
<path class="st7" d="M261.7,219.1c-35.6,0-64.5-28.9-64.5-64.5V95.3l1.6-0.3c41.7-6.7,84.2-6.7,125.9,0l1.6,0.3v59.2
	C326.2,190.1,297.3,219,261.7,219.1 M200.9,98.5v56c0,33.6,27.2,60.8,60.8,60.8c33.6,0,60.8-27.2,60.8-60.8v-56
	C282.2,92.2,241.2,92.2,200.9,98.5"/>
<path class="st7" d="M261.7,209.7c-30.5-0.1-55.1-24.7-55.2-55.2v-50.6l1.6-0.3c17.7-2.8,35.6-4.3,53.6-4.3c18,0,35.9,1.4,53.6,4.3
	l1.6,0.3v50.7C316.8,185,292.1,209.7,261.7,209.7 M210.2,107.1v47.4c0,28.4,23,51.4,51.4,51.4s51.4-23,51.4-51.4v-47.4
	C279,101.8,244.3,101.8,210.2,107.1"/>
<rect x="259.8" y="101.1" class="st7" width="3.8" height="106.6"/>
<path class="st7" d="M245.7,181.2c0.6,0.7,0.4,1.8-0.3,2.4c-0.7,0.6-1.8,0.4-2.4-0.3c-0.6-0.8-1.4-3.2-0.7-3.8
	S245.2,180.5,245.7,181.2"/>
<path class="st7" d="M244.4,184.7c-0.8,0-1.5-0.4-2-1c-0.6-0.8-1.9-3.8-0.5-4.8c0.6-0.5,1.5-0.3,2.6,0.3c0.7,0.4,1.4,1,1.9,1.6
	c0.4,0.5,0.6,1.2,0.5,1.8c-0.1,0.7-0.5,1.2-1,1.6C245.5,184.5,245,184.7,244.4,184.7 M242.8,180.1c0,1,0.3,1.9,0.8,2.7
	c0.3,0.4,0.9,0.5,1.3,0.2c0.2-0.2,0.3-0.4,0.4-0.6c0-0.3,0-0.5-0.2-0.7C244.5,181,243.7,180.4,242.8,180.1"/>
<path class="st7" d="M246.4,170.3c0.9-0.4,1.8,0,2.2,0.9c0.4,0.9,0,1.8-0.9,2.2c-0.9,0.4-3.5,0.7-3.8-0.2S245.5,170.7,246.4,170.3"
	/>
<path class="st7" d="M245.6,174.6c-1,0-2-0.2-2.3-1c-0.7-1.6,2-3.5,2.9-3.9c1.2-0.5,2.7,0.1,3.2,1.3c0.5,1.2-0.1,2.7-1.3,3.2
	C247.3,174.5,246.5,174.6,245.6,174.6 M244.6,173c0.9,0.2,1.9,0.1,2.8-0.2c0.2-0.1,0.4-0.3,0.5-0.5c0.1-0.2,0.1-0.5,0-0.7
	c-0.1-0.2-0.3-0.4-0.5-0.5c-0.2-0.1-0.5-0.1-0.7,0C245.8,171.5,245.1,172.2,244.6,173"/>
<path class="st7" d="M230.6,170.3c-0.9-0.4-1.8,0-2.2,0.9c-0.4,0.9,0,1.8,0.9,2.2l0,0c0.9,0.4,3.5,0.7,3.8-0.2
	S231.5,170.7,230.6,170.3"/>
<path class="st7" d="M231.4,174.6L231.4,174.6c-0.8,0-1.7-0.1-2.5-0.4c-0.6-0.2-1.1-0.7-1.3-1.3c-0.2-0.6-0.2-1.3,0-1.9
	c0.2-0.6,0.7-1.1,1.3-1.3c0.6-0.2,1.3-0.2,1.9,0c0.9,0.4,3.5,2.4,2.9,3.9C233.5,174.2,232.7,174.6,231.4,174.6 M229.9,171
	c-0.1,0-0.2,0-0.3,0.1c-0.2,0.1-0.4,0.3-0.5,0.5c-0.1,0.2-0.1,0.5,0,0.7c0.1,0.2,0.3,0.4,0.5,0.5c0.9,0.3,1.9,0.4,2.8,0.2
	c-0.5-0.8-1.2-1.5-2.1-1.9C230.2,171,230.1,171,229.9,171"/>
<path class="st7" d="M240.5,165.5c-0.1-0.9-0.9-1.7-1.8-1.6c-0.9,0.1-1.7,0.9-1.6,1.8c0,0.9,0.9,3.4,1.8,3.4
	C239.8,168.9,240.5,166.4,240.5,165.5"/>
<path class="st7" d="M238.9,169.7c-0.7,0-1.4-0.6-1.9-1.8c-0.4-0.7-0.6-1.5-0.6-2.3c0-0.7,0.2-1.3,0.7-1.8c0.4-0.5,1-0.8,1.7-0.8
	c0.7,0,1.3,0.2,1.8,0.7c0.5,0.4,0.8,1,0.8,1.7c0,0.8-0.2,1.6-0.5,2.4C240.3,169.1,239.7,169.7,238.9,169.7L238.9,169.7 M238.8,164.6
	L238.8,164.6c-0.6,0-1,0.4-1,1c0.1,0.9,0.4,1.9,1,2.6c0.6-0.8,0.9-1.7,0.9-2.7c0-0.3-0.1-0.5-0.3-0.7
	C239.2,164.7,239,164.6,238.8,164.6"/>
<path class="st7" d="M232.1,181.2c-0.6,0.7-0.4,1.8,0.3,2.4c0.7,0.6,1.8,0.4,2.4-0.3l0,0c0.6-0.8,1.4-3.2,0.7-3.8
	S232.6,180.5,232.1,181.2"/>
<path class="st7" d="M233.4,184.7c-0.5,0-1.1-0.2-1.5-0.5c-1.1-0.8-1.3-2.3-0.5-3.4c0,0,0,0,0,0c0.5-0.6,1.2-1.2,1.9-1.6
	c1.1-0.7,2-0.8,2.6-0.3s0.7,1.3,0.4,2.6c-0.2,0.8-0.5,1.5-1,2.2C234.9,184.3,234.2,184.7,233.4,184.7 M232.7,181.7
	c-0.2,0.2-0.2,0.4-0.2,0.7c0,0.3,0.2,0.5,0.4,0.6c0.4,0.3,1,0.2,1.3-0.2c0.5-0.8,0.8-1.7,0.8-2.7C234.1,180.4,233.3,181,232.7,181.7
	"/>
<path class="st7" d="M296.3,197.8c-11.4-2.4-23-3.6-34.6-3.6v-3.8c11.9,0,23.8,1.3,35.4,3.7L296.3,197.8z"/>
<path class="st7" d="M307,185.3c-14.8-4.2-30-6.3-45.4-6.3v-3.8c15.7,0,31.3,2.2,46.4,6.5L307,185.3z"/>
<path class="st7" d="M312.8,172.4c-16.5-5.4-33.8-8.1-51.2-8.1v-3.8c17.8,0,35.5,2.8,52.4,8.3L312.8,172.4z"/>
</svg>
