<?xml version="1.0" encoding="utf-8"?>
<!-- Generator: Adobe Illustrator 23.0.0, SVG Export Plug-In . SVG Version: 6.00 Build 0)  -->
<svg version="1.1" id="Capa_1" xmlns="http://www.w3.org/2000/svg" xmlns:xlink="http://www.w3.org/1999/xlink" x="0px" y="0px"
	 viewBox="0 0 986 263" style="enable-background:new 0 0 986 263;" xml:space="preserve">
<style type="text/css">
	.st0{fill:#D68E35;}
	.st1{fill:#666565;}
</style>
<title>logo_clientes_</title>
<g>
	<g>
		<path class="st0" d="M248.8,115.9c6.1,3.3,11.2,8.2,14.8,14.2c3.6,6,5.5,12.9,5.4,19.9c0.1,7-1.8,14-5.4,20
			c-3.5,6-8.6,11-14.8,14.4c-12.8,7-28.2,7-41,0c-6.1-3.4-11.2-8.4-14.7-14.5c-3.6-6-5.5-13-5.4-20c-0.1-7,1.8-13.8,5.4-19.8
			c3.6-6,8.6-10.9,14.7-14.2C220.5,109,236,109,248.8,115.9 M213.4,124.2c-4.5,2.6-8.3,6.3-11,10.8c-5.4,9.3-5.4,20.7,0,30
			c2.7,4.5,6.5,8.3,11,10.9c4.5,2.7,9.7,4,15,4c5.2,0.1,10.4-1.3,14.9-4c4.5-2.6,8.2-6.4,10.8-10.9c5.4-9.3,5.4-20.7,0-30
			c-2.6-4.5-6.4-8.2-10.8-10.8c-4.5-2.7-9.6-4-14.9-4C223.1,120.2,217.9,121.6,213.4,124.2"/>
		<path class="st0" d="M331.9,136c3.9,4,5.9,9.5,5.9,16.6v36.2h-10.3v-33.4c0-4.9-1.4-8.8-4.1-11.6s-6.6-4.1-11.5-4.1
			c-4.8-0.1-9.4,1.7-12.8,5c-3.3,3.4-5.3,8-5.6,12.8v31.3h-10.3v-58.5h10.3v12.4c3.9-8.3,11.3-12.6,22.2-12.7
			C322.6,129.9,327.9,131.9,331.9,136"/>
		<path class="st0" d="M400.1,138c4.7,5.3,7,12.8,7,22.3c0,1.5,0,2.6-0.1,3.3h-46.3c0.6,4.8,2.9,9.3,6.6,12.5
			c3.7,3.1,8.4,4.8,13.2,4.6c3.3,0,6.6-0.6,9.7-1.9c2.9-1.2,5.6-3,7.8-5.3l5.6,5.9c-2.9,3.1-6.5,5.6-10.4,7.2
			c-4.3,1.7-8.9,2.6-13.5,2.5c-5.3,0.1-10.6-1.2-15.3-3.7c-4.4-2.4-8-6-10.4-10.4c-4.9-9.6-4.9-21.1,0-30.7c2.4-4.4,6-8,10.3-10.5
			c4.6-2.6,9.9-3.9,15.2-3.8C388.6,130,395.5,132.7,400.1,138 M397.8,155.6c-0.3-5.3-2.1-9.5-5.3-12.6c-3.2-3.1-7.5-4.6-12.8-4.6
			c-4.7-0.2-9.3,1.5-12.9,4.6c-3.5,3.3-5.7,7.7-6.1,12.5H397.8z"/>
		<polygon class="st1" points="520.8,111.3 541.6,111.3 515.4,188.8 494.6,188.8 479.9,136 465,188.8 444.2,188.8 418.1,111.3 
			439.9,111.3 455.1,167.9 470.4,111.3 490.2,111.3 505.7,167.9 		"/>
		<path class="st1" d="M586.8,132.1c4.8,2.4,8.8,6.1,11.5,10.7c5.5,10,5.5,22.1,0,32.1c-2.7,4.6-6.7,8.3-11.5,10.7
			c-10.9,5.1-23.4,5.1-34.3,0c-4.8-2.4-8.8-6.1-11.5-10.7c-5.4-10-5.4-22.1,0-32.1c2.7-4.6,6.7-8.3,11.5-10.7
			C563.4,127,576,127,586.8,132.1 M560.4,148.3c-2.4,2.7-3.5,6.3-3.5,10.7s1.2,8,3.5,10.8c4.8,5.2,12.8,5.5,18,0.7
			c0.2-0.2,0.5-0.5,0.7-0.7c2.4-2.7,3.5-6.3,3.5-10.8s-1.2-8.1-3.6-10.7c-2.3-2.7-5.8-4.2-9.3-4.1
			C566.1,144.1,562.7,145.6,560.4,148.3"/>
		<path class="st1" d="M640.2,130.9c3.4-1.9,7.3-2.8,11.2-2.8v18c-1-0.1-2-0.1-3-0.1c-4.6,0-8.4,1.1-11.3,3.3
			c-2.9,2.1-4.7,5.4-5,8.9v30.5h-19.7V129h19.7v10C634.1,135.7,636.9,132.9,640.2,130.9"/>
		<polygon class="st1" points="699,188.8 686.4,166.2 680.3,172.5 680.3,188.8 660.6,188.8 660.6,106.7 680.3,106.7 680.3,149.2 
			699.4,128.9 721.8,128.9 699.9,152.1 722.2,188.8 		"/>
		<path class="st0" d="M753.1,29.5c-27.2,0-49.3,22.1-49.3,49.3V79c0-23.9,19.4-43.2,43.3-43.1c21.2,0,39.2,15.4,42.6,36.3
			c0.3,1.9,0.5,3.9,0.6,5.8c0,0.3,0,0.5,0,0.8s0,0.5,0,0.8c0,0.6,0,1.1-0.1,1.7c0-0.2,0-0.3,0-0.5c-1.1,17-15.7,30-32.8,28.9
			c-16.3-1-29-14.6-29-30.9c0-13.6,11.1-24.6,24.7-24.6c13.6,0,24.6,11,24.6,24.6c0.1-17.1-13.6-31-30.7-31.1
			c-15.9-0.1-29.2,11.9-30.9,27.7c-0.1,1.2-0.2,2.5-0.2,3.8c0,0.4,0,0.8,0,1.3c0,0.2,0,0.3,0,0.5c0.9,23.8,21,42.4,44.8,41.5
			c21.5-0.8,39.2-17.4,41.3-38.8c0.1-1.1,0.2-2.2,0.2-3.4c0-0.5,0-0.9,0-1.4C802.3,51.6,780.2,29.5,753.1,29.5"/>
		<path class="st0" d="M759.2,122.4c-23.2,0-42.3-18.3-43.2-41.5c0-0.4,0-0.9,0-1.3c0-0.3,0-0.5,0-0.8s0-0.5,0-0.8
			c0-1.8,0.2-3.6,0.5-5.3c-0.1,0.9-0.2,1.8-0.3,2.7c1.8-17,17-29.3,34-27.5c15.8,1.7,27.8,15,27.7,30.9c0,13.6-11,24.7-24.6,24.7
			c-13.6,0-24.7-11-24.7-24.6c0,0,0,0,0,0c0,14.7,10.3,27.4,24.7,30.4c16.7,3.5,33.1-7.3,36.5-24c0.3-1.4,0.5-2.9,0.6-4.4
			c0-0.5,0-1.1,0-1.7c0-1.3-0.1-2.7-0.2-4c-0.1-1-0.2-2-0.4-3c-3.7-23.6-25.8-39.7-49.4-36c-21.1,3.3-36.6,21.5-36.5,42.8
			c0,1.6,0.1,3.3,0.3,4.9c2.8,27.1,27,46.8,54.1,44c23.3-2.4,41.7-20.9,44-44.2C799.9,105.7,781.3,122.5,759.2,122.4"/>
		<path class="st1" d="M218,214.2c-2.5-1.1-5.3-1-7.6,0.4c-1.2,0.7-2.3,1.8-3,3c-2.3,4-1,9.1,3,11.4c1.3,0.8,2.8,1.2,4.3,1.1
			c1.2,0,2.3-0.2,3.4-0.7c1.1-0.5,2.1-1.1,2.9-1.9l1.8,2c-1.1,1.1-2.4,1.9-3.8,2.5c-1.4,0.6-2.9,0.9-4.4,0.9c-2,0-4-0.5-5.7-1.5
			c-5.3-3-7.2-9.7-4.2-15c1-1.8,2.5-3.3,4.3-4.3c1.8-1,3.7-1.5,5.8-1.5c1.5,0,3,0.3,4.4,0.9c1.4,0.5,2.6,1.4,3.7,2.4l-1.8,2.1
			C220.1,215.4,219.1,214.7,218,214.2"/>
		<path class="st1" d="M279,212.3c1.7,0.9,3.1,2.3,4.1,4c1,1.7,1.5,3.6,1.5,5.6c0,2-0.5,3.9-1.5,5.6c-1,1.7-2.4,3.1-4.1,4
			c-3.6,2-7.9,2-11.5,0c-3.5-1.9-5.7-5.6-5.7-9.7c0-2,0.5-3.9,1.5-5.6c1-1.7,2.4-3.1,4.1-4C271,210.3,275.4,210.3,279,212.3
			 M269,214.6c-1.3,0.7-2.3,1.8-3.1,3c-1.5,2.6-1.5,5.8,0,8.4c0.7,1.3,1.8,2.3,3.1,3.1c1.3,0.8,2.7,1.1,4.2,1.1
			c1.5,0,2.9-0.4,4.2-1.1c1.3-0.7,2.3-1.8,3-3.1c1.5-2.6,1.5-5.8,0-8.4c-0.7-1.2-1.8-2.3-3-3c-1.3-0.7-2.7-1.1-4.2-1.1
			C271.7,213.4,270.3,213.8,269,214.6"/>
		<polygon class="st1" points="352.2,211 355.3,211 347.9,232.8 344.8,232.8 339.2,214.8 333.5,232.8 330.4,232.8 323,211 
			326.2,211 332,229.6 337.7,211 340.7,211 346.5,229.6 		"/>
		<path class="st1" d="M410.7,212.3c1.7,0.9,3.1,2.3,4.1,4c1,1.7,1.5,3.6,1.5,5.6c0,2-0.5,3.9-1.5,5.6c-1,1.7-2.4,3.1-4.1,4
			c-3.6,2-8,2-11.5,0c-1.7-0.9-3.1-2.3-4.1-4c-1-1.7-1.5-3.6-1.5-5.6c0-2,0.5-3.9,1.5-5.6c1-1.7,2.4-3.1,4.1-4
			C402.8,210.3,407.1,210.3,410.7,212.3 M400.7,214.6c-1.3,0.7-2.3,1.8-3.1,3c-1.5,2.6-1.5,5.8,0,8.4c0.8,1.3,1.8,2.3,3.1,3.1
			c1.3,0.8,2.7,1.1,4.2,1.1c1.5,0,2.9-0.4,4.2-1.1c1.3-0.7,2.3-1.8,3-3.1c1.5-2.6,1.5-5.8,0-8.4c-0.7-1.2-1.8-2.3-3-3
			c-1.3-0.7-2.7-1.1-4.2-1.1C403.5,213.5,402,213.9,400.7,214.6"/>
		<path class="st1" d="M472.1,232.8l-4.3-6.8c-0.5,0-0.9,0.1-1.2,0.1H461v6.8h-3V211h8.5c2.3-0.1,4.6,0.5,6.4,1.9
			c1.5,1.4,2.4,3.4,2.3,5.4c0.1,1.6-0.4,3.1-1.2,4.4c-0.9,1.2-2.1,2.2-3.5,2.6l5.1,7.4L472.1,232.8z M466.6,223.3
			c1.5,0.1,3.1-0.3,4.3-1.2c1-0.9,1.6-2.2,1.5-3.6c0.1-1.3-0.5-2.7-1.5-3.5c-1.3-0.9-2.8-1.3-4.3-1.2H461v9.6L466.6,223.3z"/>
		<polygon class="st1" points="536.1,232.8 532.5,232.8 524.9,222.7 520.9,227.1 520.9,232.8 517.9,232.8 517.9,211 520.9,211 
			520.9,223.2 532,211 535.6,211 527,220.4 		"/>
		<rect x="577.2" y="211" class="st1" width="3" height="21.8"/>
		<polygon class="st1" points="639.3,211 642.2,211 642.2,232.8 639.2,232.8 626.8,215.9 626.8,232.8 623.8,232.8 623.8,211 
			626.8,211 639.3,227.9 		"/>
		<path class="st1" d="M700.9,222.1h2.6v8c-1.2,0.9-2.5,1.6-3.9,2.1c-1.4,0.5-2.9,0.8-4.4,0.8c-2,0-4-0.5-5.8-1.5
			c-3.5-2-5.7-5.7-5.6-9.7c0-2,0.5-3.9,1.5-5.6c1-1.7,2.4-3.1,4.2-4c1.8-1,3.8-1.5,5.8-1.5c1.5,0,3,0.3,4.4,0.8
			c1.4,0.5,2.6,1.2,3.8,2.2l-1.7,2.2c-1.8-1.6-4.1-2.5-6.5-2.6c-1.5,0-3,0.4-4.3,1.1c-1.3,0.7-2.3,1.7-3.1,3c-1.5,2.6-1.5,5.9,0,8.5
			c0.8,1.3,1.8,2.3,3.1,3.1c1.3,0.8,2.8,1.1,4.3,1.1c0.9,0,1.9-0.2,2.8-0.4c0.9-0.3,1.8-0.7,2.6-1.3L700.9,222.1z"/>
	</g>
</g>
</svg>
