<?xml version="1.0" encoding="utf-8"?>
<!-- Generator: Adobe Illustrator 24.1.2, SVG Export Plug-In . SVG Version: 6.00 Build 0)  -->
<svg version="1.1" id="Capa_1" xmlns="http://www.w3.org/2000/svg" xmlns:xlink="http://www.w3.org/1999/xlink" x="0px" y="0px"
	 viewBox="0 0 925 263" style="enable-background:new 0 0 925 263;" xml:space="preserve">
<style type="text/css">
	.st0{display:none;fill:#ED1C24;}
	.st1{fill:#4C4C4C;}
</style>
<path class="st0" d="M544.6,195h-32.7c-5.6,0-4.4-5.3-4.4-5.3l1.6-10.2c0,0,0.4-4.5,4.9-4.5h30.6c10.5,0,15.8-1.8,15.8-7.4
	c0-7.1-7.7-6.5-12-6.5c-8.2,0-33.5,2.5-33.5-25.9c0-27.4,29-27.4,36.6-27.4h29.1c4.1,0,3.3,4.6,3.3,4.6l-2.1,11.1
	c-0.6,2.6-2.9,4.5-5.6,4.4h-24.7c-3.6,0-15.8-1.6-15.8,7.4c0,7.2,8.7,5.9,12.1,5.9c10.2,0,33.5-0.4,33.5,26.5
	C581.2,195,553.7,195,544.6,195z"/>
<path class="st0" d="M468.2,195h-32.7c-5.6,0-4.4-5.3-4.4-5.3l1.6-10.2c0,0,0.4-4.5,4.9-4.5h30.6c10.5,0,15.8-1.8,15.8-7.4
	c0-7.1-7.7-6.5-12-6.5c-8.2,0-33.6,2.5-33.6-25.9c0-27.4,29-27.4,36.6-27.4h29.1c4.1,0,3.3,4.6,3.3,4.6l-2.1,11.1
	c-0.6,2.6-2.9,4.5-5.6,4.4H475c-3.6,0-15.8-1.6-15.8,7.4c0,7.2,8.7,5.9,12.2,5.9c10.2,0,33.4-0.4,33.4,26.5
	C504.8,195,477.3,195,468.2,195z"/>
<path class="st0" d="M355.4,196c-1.4,0-2.8-0.6-3.7-1.7c-0.9-1.1-1.3-2.6-1-4.1l14.1-74.9c0.4-2.4,2.3-4.1,5.5-5l11.1-2.6h0.2
	c1.4,0,2.8,0.6,3.7,1.7c0.9,1.1,1.3,2.6,1,4l-0.5,3c7-6.5,14.4-9.8,21.9-9.8c16.5,0,25.3,10.8,25.3,31.2c-0.2,10.7-3.4,21.1-9.3,30
	c-5.4,7.9-15.4,17.3-32.6,17.3c-6,0.1-11.8-1.9-16.5-5.7l-2.9,11.5c-0.6,2.9-3.1,5-6,5.1L355.4,196z M400.6,126.9
	c-6.5,0-17.7,6.2-18.7,11.6c-1,5.2-1.3,6.8-2,11.1c-0.5,2.6-1.1,6.3-2.2,12.5c-0.1,0.3,0,0.7,0.2,0.9c1.5,1.8,8.2,1.8,11.1,1.8h0.4
	c17.4,0,21.8-14.5,22.9-20.8s0.5-10.8-1.9-13.6C408.4,128.1,405.1,126.9,400.6,126.9L400.6,126.9z"/>
<path class="st0" d="M698.8,124.9c-0.3,1.6-1.7,2.7-3.3,2.8h-91c-1.3,0-2.3-0.9-2.3-2.2c0-0.2,0-0.4,0.1-0.6l2.5-14.5
	c0.3-1.6,1.7-2.7,3.3-2.8h91c1.2-0.1,2.3,0.9,2.3,2.2c0,0.2,0,0.4-0.1,0.6L698.8,124.9z"/>
<path class="st0" d="M718.9,158.8c-0.3,1.6-1.7,2.7-3.3,2.8H600.1c-1.2,0.1-2.3-0.9-2.3-2.2c0-0.2,0-0.4,0.1-0.6l2.5-14.4
	c0.3-1.6,1.7-2.7,3.3-2.8h115.5c1.3,0,2.3,1,2.3,2.2c0,0.2,0,0.4-0.1,0.6L718.9,158.8z"/>
<path class="st0" d="M738.6,192.7c-0.3,1.6-1.7,2.7-3.3,2.8H594.2c-1.3,0-2.3-0.9-2.3-2.2c0-0.2,0-0.4,0.1-0.6l2.5-14.5
	c0.3-1.6,1.7-2.7,3.3-2.8h141.1c1.3,0,2.3,0.9,2.3,2.2c0,0.2,0,0.4-0.1,0.6L738.6,192.7z"/>
<path class="st0" d="M248.5,124.9c-0.3,1.2,0.4,2.4,1.6,2.7c0.2,0.1,0.4,0.1,0.6,0.1h91c1.6-0.1,3-1.2,3.3-2.8l2.7-14.5
	c0.3-1.2-0.4-2.4-1.6-2.7c-0.2-0.1-0.4-0.1-0.6-0.1h-91c-1.6,0.1-3,1.2-3.3,2.8L248.5,124.9z"/>
<path class="st0" d="M216,158.8c-0.3,1.2,0.4,2.4,1.6,2.7c0.2,0.1,0.4,0.1,0.6,0.1h115.6c1.6-0.1,3-1.2,3.3-2.8l2.7-14.4
	c0.3-1.2-0.5-2.4-1.7-2.7c-0.2,0-0.4-0.1-0.6-0.1H222.1c-1.6,0.1-3,1.2-3.3,2.8L216,158.8z"/>
<path class="st0" d="M184.1,192.7c-0.3,1.2,0.4,2.4,1.6,2.7c0.2,0.1,0.4,0.1,0.6,0.1h141.1c1.6-0.1,3-1.2,3.3-2.8l2.7-14.5
	c0.3-1.2-0.4-2.4-1.7-2.7c-0.2,0-0.4-0.1-0.6-0.1H190.1c-1.6,0.1-3,1.2-3.3,2.8L184.1,192.7z"/>
<path class="st1" d="M474.4,206.3H341.9c-17.2,0-28.7-10.5-28.7-27v-56c0-16.4,11.5-27,28.7-27h132.5c17.2,0,28.8,10.5,28.8,27v56
	C503.2,195.8,491.6,206.3,474.4,206.3z M470.1,111.6H346.4c-10.2,0-16,5.7-16,15v49.3c0,9.3,5.7,15,16,15H470c10.1,0,16-5.7,16-15
	v-49.3C486,117.4,480.2,111.6,470.1,111.6L470.1,111.6z"/>
<path class="st1" d="M580.1,204.7h-17.8L516.9,97.8h19.4l35,86l34.7-86h19.4L580.1,204.7z"/>
</svg>
