<?xml version="1.0" encoding="utf-8"?>
<!-- Generator: Adobe Illustrator 23.1.0, SVG Export Plug-In . SVG Version: 6.00 Build 0)  -->
<svg version="1.1" id="Capa_1" xmlns="http://www.w3.org/2000/svg" xmlns:xlink="http://www.w3.org/1999/xlink" x="0px" y="0px"
	 viewBox="0 0 968 263" style="enable-background:new 0 0 968 263;" xml:space="preserve">
<style type="text/css">
	.st0{fill:#DEA030;}
	.st1{fill:#D68E35;}
	.st2{fill:#666565;}
	.st3{opacity:0.9;}
	.st4{clip-path:url(#SVGID_2_);}
	.st5{clip-path:url(#SVGID_4_);fill:url(#SVGID_5_);}
	.st6{fill:#326387;}
	.st7{fill:#A02C56;}
	.st8{fill:none;stroke:#376E9A;stroke-miterlimit:10;}
	.st9{fill:#C0272D;}
	.st10{fill:#ED1C24;}
	.st11{fill:#00C2BE;}
	.st12{fill:#333333;}
	.st13{fill:url(#SVGID_6_);}
</style>
<g>
	<g>
		<path d="M234.8,192.6L234,193l-6.6,3.6l-2.2,1.3c-0.4,0.4-0.7,0.9-1.3,1.1c-1.1,0.7-2.7-0.5-2.7-1.6c0-1.3,0.5-2.2,1.3-2.9
			c1.1-0.9,2.1-1.6,3.2-2.3c2.7-2,5.6-3.8,8.2-5.6l4.7-2.9c0.9-0.4,1.4-1.3,1.8-2.1l2-3.9c0.7-1.3,1.3-2.5,2-3.6l3.8-7.2l6.1-10.6
			c0.5-1.1,1.3-2.1,2-3l2.1-2.9c0.7-1.3,1.6-2.3,2.9-3c1.8-1.1,3.9-0.5,5,1.3c0.7,1.3,0.5,2.7-0.2,3.9l-1.3,2.3l-1.6,2.1l-1.6,2.7
			l-3.4,5.2l-3.2,5c-1.1,1.8-2.3,3.6-3.4,5.6l-0.4,0.5c0,0.2,0,0.2,0.2,0.2l0.9-0.5l4.5-2.3l2-1.3l4.3-2.5c0.7-0.4,1.4-0.9,2.3-1.3
			l2.3-1.4l8.1-5l6.4-3.8l3.2-2.1l4.3-2.7l4.1-2.3l4.1-2.7l6.8-4.3c1.4-0.9,2.9-2,4.5-2.9l5.4-3.4c1.3-0.7,2.3-1.6,3.4-2.3l5.6-3.8
			l5.6-3.8c2.5-1.8,5-3.4,7.3-5.2c2.7-1.8,5.2-3.6,7.7-5.6c1.1-0.7,2.1-1.3,3-2c0.7-0.5,1.3-1.3,2-1.6c1.6-1.3,3.2-2.5,4.8-3.6
			c1.6-1.4,3.2-2.7,5-3.9c1.4-1.3,2.9-2.5,4.3-3.6l4.1-3.4l2.3-2.1l2.5-2.2l4.5-4.3l3.2-3l2.7-3.2c1.4-1.6,2.9-3,4.1-4.8
			c0.9-1.3,2-2.7,2.7-4.3c0.9-1.3,1.4-2.7,2.2-4.1c0.5-1.3,0.7-2.7,0.7-4.1c0-1.3-0.5-2.3-1.4-3c-1.3-1.3-2.9-2-4.5-2.3
			c-2.9-0.7-5.7-1.1-8.8-1.1c-1.1,0-2.3,0-3.6,0.2l-6.1,0.5l-4.5,0.5c-2.9,0.5-5.6,1.1-8.2,1.8c-2.9,0.7-5.6,1.4-8.4,2.3
			c-1.8,0.4-3.6,0.9-5.4,1.6l-6.1,2.2c-3.4,1.3-6.6,2.7-9.9,4.1c-3.4,1.4-6.6,2.9-9.9,4.5l-7.2,3.8c-2.1,1.1-4.3,2.3-6.4,3.6
			l-6.8,4.3l-5.4,3.4l-5.7,3.9l-5.2,3.9l-2.5,1.8c-1.1,0.9-2,1.8-3,2.5c-1.8,1.6-3.6,3-5.6,4.5c-1.3,1.3-2.5,2.5-3.9,3.6l-5.4,5
			l-4.8,5c-2,1.8-3.8,3.8-5.6,5.7c-2.1,2.3-4.1,4.7-6.1,7.2c-2,2.3-3.9,4.7-5.7,7.2c-1.6,2-3.2,4.1-4.7,6.4c-2,2.9-3.8,5.9-5.7,9
			c-0.7,1.1-1.3,2.1-1.8,3.4c-1.4,2.7-2.9,5.6-4.1,8.4c-0.5,1.3-0.9,2.5-1.4,3.6c-0.2,0.7-0.2,1.4,0,2.2c0.4,0.9,0,1.4-0.7,1.8
			c-0.7,0.4-1.4,0.4-2-0.4c-0.7-0.7-1.1-1.4-0.9-2.5c0.2-2.1,0.9-4.1,1.8-6.1c0.5-1.3,0.9-2.5,1.6-3.8l4.1-8.2l2.9-4.8
			c1.1-1.6,2-3.2,3-4.7l2.3-3.6l3.8-5l2.7-3.4c1.4-1.8,2.9-3.6,4.5-5.2l5.6-6.3c1.3-1.3,2.3-2.5,3.6-3.6l5.2-5.2l6.8-6.1
			c1.1-1.1,2.3-2.2,3.8-3.2l3.9-3.6l4.7-3.6c2-1.6,3.9-3,5.9-4.5l3.9-2.7l4.5-3.2c1.4-0.9,2.9-2,4.5-2.9l4.5-2.9
			c2.2-1.3,4.3-2.5,6.4-3.6c2.2-1.4,4.5-2.7,6.8-3.8l8.2-4.1l9-3.9c2-0.9,3.9-1.8,5.9-2.5c1.8-0.7,3.6-1.3,5.4-1.8
			c3-1.1,6.1-2.1,9.3-3c3-0.9,6.1-1.6,9.1-2.3c3.2-0.7,6.3-1.3,9.3-1.8c1.8-0.4,3.8-0.5,5.6-0.7l5.6-0.4c1.8,0,3.8,0.2,5.4,0.4
			c2.3,0.2,4.7,0.7,6.8,1.4c2.5,1.1,4.7,2.5,6.1,4.8c0.7,0.9,1.1,2,1.3,3c0.4,1.4,0.5,2.7,0.4,4.1c-0.2,1.1-0.2,2.1-0.5,3.2
			c-0.5,2.3-1.4,4.7-2.7,6.6l-3.8,5.7c-1.4,2-3,3.8-4.7,5.7l-3.9,4.1l-3.6,3.8l-7,6.3l-3.9,3.6l-2.2,1.6l-3.6,3l-3.8,2.9l-2.1,1.6
			l-4.8,3.8l-5.9,4.3l-2.3,1.8l-3.8,2.7l-3.8,2.5c-1.1,0.9-2.3,1.6-3.6,2.5c-1.3,0.9-2.5,1.6-3.6,2.5c-1.1,0.5-2,1.3-2.9,1.8
			l-6.1,4.1l-3.4,2.1l-3.2,2.2l-3.2,2c-0.7,0.4-1.4,0.9-2.1,1.4l-3.9,2.5c-1.6,0.9-3.2,2-4.8,3c-2.1,1.3-4.3,2.7-6.6,3.9l-2.2,1.3
			l-2.9,1.8l-1.8,0.9l-1.4,1.1c-2,1.1-3.9,2.1-5.7,3.4c-1.6,0.9-3.2,1.8-4.8,2.9l-5.9,3.4c-1.6,0.9-3.2,1.8-4.8,2.9l-11.1,6.1
			c-1.4,0.7-2.9,1.4-4.3,2.3l-2.9,1.4c-1.1,0.4-1.6,1.1-2.2,2.2l-2.1,3.6l-4.1,7c-0.9,1.6-1.8,3.2-2.9,4.8c-0.7,1.3-1.6,2.5-2.3,3.9
			l-1.8,3.2c-0.2,0.2-0.2,0.5-0.2,0.9c-0.2,0.9-0.7,1.4-1.4,1.4c-1.1,0.2-1.8-0.5-2-1.4c-0.2-0.7,0-1.4,0.2-2.1l3.2-7.3l1.3-3
			c1.1-2,2.2-3.9,3-6.1l0.9-1.6L234.8,192.6z"/>
		<path d="M331.7,169.7c-0.5,0.2-1.3,0.4-1.8,0.7l-7.7,3.6l-4.5,1.8c-1.4,0.5-3,1.1-4.7,1.3c-2.2,0.2-3.8-1.4-3.2-3.6
			c0.4-1.1,0.9-2.1,1.4-3c1.3-1.4,2.3-2.9,3.9-3.9c1.4-1.3,2.9-2.5,4.5-3.6c1.4-1.1,3-2,4.7-2.9c2.9-1.8,6.1-2.7,9.3-3
			c2-0.2,3.8,0,5.4,1.1l1.8,1.6c0.5,0.5,0.5,0.5,1.1,0.2l3.2-1.8c1.3-0.5,2.5-0.9,3.8-0.4c2.1,0.7,2.9,3.2,1.3,5
			c-0.4,0.5-1.1,0.9-1.6,1.3l-3.9,2l-6.4,4.3c-0.9,0.7-1.8,1.4-2.7,2c0,0.2-0.2,0.4-0.4,0.4l0.2,0.2l1.8-0.5c3.8-1.4,7.3-3,10.9-4.8
			l6.1-2.7l5.2-2.7c0.5-0.4,1.1-0.5,1.6-0.2c0.9,0.7,1.1,1.8,0.2,2.3l-3.8,2.1l-8.8,4.3c-1.8,0.9-3.6,1.6-5.4,2.3
			c-2,0.9-3.9,1.8-5.9,2.3c-1.1,0.5-2.3,0.7-3.6,0.9c-1.3,0.2-2.3,0-3-1.1c-0.9-1.1-0.5-2.3-0.2-3.4l0.9-1.4L331.7,169.7z
			 M334,164.9c-0.5,0-1.3,0-2,0.2c-2.3,0.5-4.7,1.1-6.8,2.1c-3,1.4-5.9,3-8.8,5c0,0.2,0,0.2-0.2,0.4c6.3-2,12-4.8,17.7-7.5
			L334,164.9L334,164.9z"/>
		<path d="M363,166.3l2.2-0.9c2.9-1.1,5.7-2.2,8.6-3c2.3-0.7,4.7-1.3,7.2-1.4c1.4-0.2,3-0.2,4.5,0.2c1.6,0.4,2.7,1.4,2.9,3
			c0,0,0,0.2,0.2,0.2c0.5,0,1.1-0.2,1.6-0.4c2.1-0.7,4.3-1.3,6.4-1.8l2.3-0.5c0.7-0.2,1.3,0.2,1.4,0.9c0.2,0.7-0.2,1.4-0.9,1.6
			c-2.3,0.7-4.7,1.4-7,2l-4.5,1.6c-0.5,0.2-0.9,0.4-1.3,0.7c-1.1,1.3-2.3,2.3-3.6,3.2c-2,1.6-4.1,2.9-6.3,3.9
			c-2.3,1.1-4.8,2-7.3,2.7c-1.6,0.4-3.2,0.5-4.7,0.4c-1.3-0.2-2.3-0.7-2.7-2c-0.5-1.1,0-2.5,1.3-3.2c1.4-0.7,2.9-1.6,4.5-2.1
			c2.5-1.1,5-2,7.7-2.9l4.3-1.3c1.1-0.4,2.1-1.1,2.9-2.1c-0.9,0.2-1.8,0.2-2.7,0.2c-1.8,0.2-3.6,0.5-5.4,1.1c-2,0.5-3.9,1.3-5.9,2
			c-2.9,1.1-5.6,2.3-8.2,3.4l-4.3,1.8l-3.6,1.6c-0.7,0.4-1.6,0.5-2.3,0c-1.1-0.4-1.4-1.8-0.9-2.7c0.7-1.4,1.8-2.5,2.9-3.6l3.8-3.8
			l2.7-2.3l2.3-2.1l2-1.6l1.1-1.1l4.8-3.9c1.3-1.1,2.5-2.2,3.8-3c2.7-2.2,5.4-4.3,8.6-5.9l2.9-1.4c1.1-0.4,2.1,0,2.9,0.5
			c0.7,0.7,1.1,1.6,1.1,2.5c0,1.3-0.9,2-1.8,2.5l-4.3,3c-2.1,1.4-4.3,2.9-6.3,4.5l-5,3.6l-7.5,5.9L363,166.3z"/>
		<path d="M397.2,172.6c1.3,0.2,2.5-0.2,3.6-0.7l9.5-4.3c2.5-1.1,4.8-2.3,7.3-3.6l3.8-2.1c0.7-0.4,1.6-0.2,2.1,0.5
			c0.4,0.5,0.4,1.3-0.5,1.8c-1.6,1.1-3.2,2-4.8,2.9c-2,0.9-3.8,1.8-5.6,2.9l-6.8,3.2l-3.9,1.6c-1.8,0.7-3.6,1.3-5.6,1.1
			c-2.9-0.4-4.1-2.3-3.6-5c0.4-2,1.3-3.6,2.3-5.2c1.8-2.5,3.8-4.7,5.9-6.8c1.4-1.6,2.9-3.2,4.5-4.7l2.5-2.3l4.5-3.6
			c1.3-1.1,2.7-2,4.1-3l3-2.2c0.5-0.4,1.3-0.7,2-0.9c1.3-0.4,2.2,0,2.9,0.9c0.9,1.1,1.1,2.2,0.5,3.4c-0.5,1.1-1.3,1.8-2.2,2.5
			l-4.7,3.6c-2.1,1.6-4.3,3-6.3,4.7l-4.5,3.6c-1.1,0.7-2,1.4-2.9,2.3c-2.5,2.3-5,4.5-7,7c-0.5,0.7-1.1,1.4-1.3,2.5L397.2,172.6
			L397.2,172.6z"/>
		<path d="M422.5,172.4l2-0.5c2-0.5,3.9-1.6,5.6-2.9c2-1.3,3.8-2.7,5.6-4.1c1.6-1.3,2.3-1.1,3.9-1.1c5.2,0.2,1.1,0.7,10.2-2.1
			c0.5-0.2,1.1-0.2,1.6,0.2c1.1,0.7,0.7,2.3-0.5,2.9c-5.4,1.8-6.4,3-11.1,3c-0.5,0-1.1,0-1.6,0.4c-2.3,2-4.8,3.9-7.5,5.6
			c-1.8,0.9-3.6,2-5.6,2.5c-1.4,0.4-2.9,0.7-4.3,0.4c-1.6-0.5-2.5-1.6-2.9-3.2c-0.5-2.1-0.2-4.1,0.7-6.1c0.7-2,1.8-3.6,3.2-5
			c1.1-1.1,2.3-2.1,3.8-3c1.8-1.1,3.8-1.8,5.9-2.2c1.1-0.2,2.1-0.2,3.2,0.4c1.4,0.7,2.7,2,2.7,3.6c0,1.6-1.3,3-2.9,3.4h-1.4
			l-2.9,0.9l-2.9,1.4c-1.8,1.1-3.6,2.5-4.7,4.5c-0.2,0.4-0.4,0.7-0.4,1.1L422.5,172.4z"/>
		<path d="M593.3,70.3c2.9,1.3,4.7,3.4,5.4,6.3c0.5,2.3,0.4,4.7-0.2,7c-0.5,2-1.1,3.8-1.8,5.4c-1.1,2.5-2.1,5-3.6,7.2
			c-1.4,2.1-2.9,4.3-4.1,6.4l-3.6,5c-1.4,2.1-3,4.1-4.7,6.3l-4.1,4.8c-1.3,1.6-2.7,3.2-4.1,4.8c-1.3,1.4-2.3,2.9-3.8,4.3
			c-2.1,2.3-4.3,4.8-6.6,7.2l-7.7,7.9c-2.3,2.3-4.8,4.8-7.5,7.2c-2.5,2.3-5,4.7-7.9,6.6c-0.7,0.5-1.6,1.1-2.5,1.3
			c-1.3,0.5-2.3-0.2-2.5-1.4c-0.2-0.7,0.4-1.6,1.1-1.6c0.9,0,1.6-0.4,2.2-0.9c2.5-2.2,5-4.1,7.3-6.3l5.9-5.7l1.6-1.6l2.5-2.7
			l3.6-3.8c1.3-1.4,2.7-2.9,3.9-4.5l3.4-3.8l2.5-2.9l3.8-4.5l4.5-5.7c1.3-1.4,2.5-3,3.6-4.7l3.2-4.3l3.8-5.9l2.9-4.8
			c0.9-2,1.8-3.9,2.5-5.9c0.5-1.6,1.1-3.4,1.3-5.2c0-1.1,0-2.1-0.4-3.2c-0.2-1.3-1.1-1.8-2.2-2.1c-1.8-0.4-3.6,0-5.4,0.4
			c-2.5,0.5-5,1.3-7.5,2.3c-1.1,0.4-2.3,1.1-3.6,1.4l-2.3,1.1c-0.9,0.4-1.6,0.9-2.3,1.3c-0.7,0.5-1.6,0.7-2.3,1.3l-2.1,1.3
			c-0.5,0.4-1.1,0.5-1.6,0.7c-1.1,0.9-2.3,1.6-3.4,2.3c-1.8,1.1-3.6,2.3-5.4,3.6l-8.4,5.9l-2.7,1.8c-1.1,0.9-2.1,2-3.4,2.9l-3.9,3.2
			l-1.8,1.4l-2.5,2.2l-3.4,3.2l-2.7,2.5l-4.3,4.1l-1.4,1.1l-2,2.3l-3.9,3.9c-0.4,0.4-0.5,0.7-0.9,0.9l-2.7,3l-4.3,4.7l-5.6,6.3
			l-4.7,5.6c-1.8,2.3-3.8,4.5-5.6,7l-3.9,4.8c-1.3,1.8-2.5,3.6-3.9,5.4c-0.4,0.7-0.9,1.4-1.4,2.1l-2.3,3.2c-1.1,2-2.3,3.8-3.6,5.7
			c-1.1,1.6-2,3.4-3,5.2l-1.8,3.6c-0.9,2.1-1.6,4.3-2.5,6.3c-0.5,1.6-0.7,3.2-0.7,5c0,1.4,0.5,2.5,1.8,3c1.3,0.5,2.7,0.7,4.1,0.7
			c3.8-0.2,7.3-1.3,10.9-2.5c2-0.7,4.1-1.3,6.1-2.1l10.9-4.3c3.9-1.6,7.9-3.4,11.8-5.2c2.3-0.9,4.5-2,6.6-3l7.3-3.6l7.7-4.1
			c3-1.6,6.1-3.2,9-5.2c3-1.8,6.1-3.9,9.1-5.9l2.9-2.2c0.5-0.5,1.4-0.5,2,0c0.7,0.5,0.9,1.3,0.5,2l-0.5,0.7l-6.1,4.3
			c-2,1.4-3.9,2.9-6.1,4.1c-2.1,1.4-4.5,2.7-6.6,3.9c-2.3,1.4-4.8,2.7-7.3,3.9c-2.1,1.3-4.3,2.3-6.4,3.4c-3.4,1.8-6.8,3.4-10.4,5
			c-2.9,1.4-5.9,2.7-9,4.1l-6.5,2.7l-12.4,4.8c-1.8,0.7-3.8,1.4-5.6,2c-2.9,0.9-5.6,1.6-8.6,1.8c-1.4,0-3,0-4.7-0.5
			c-2.2-0.7-3.8-1.8-5-3.8c-0.9-1.6-1.3-3.2-1.3-4.8c0-2.9,0.5-5.6,1.4-8.1c0.4-1.6,0.9-3.2,1.6-4.7c0.7-1.8,1.4-3.6,2.3-5.4
			c1.1-2.1,2-4.1,3.2-6.3c1.1-2.1,2.3-4.1,3.6-6.1l2.9-4.7l2.2-3.2l2.1-3l1.6-2.3c0.5-0.5,0.9-1.1,1.3-1.6c0.4-0.4,0.5-0.9,0.7-1.1
			c0.7-0.7,1.3-1.4,1.8-2.2c0.5-0.7,1.1-1.4,1.4-2.1c1.1-1.3,2.1-2.5,3-3.9l2.1-2.7l3-3.6l2.3-2.9l1.8-2l1.4-1.6
			c0.4-0.7,0.9-1.3,1.4-1.8c0.9-0.9,1.6-1.8,2.3-2.7c0.5-0.4,0.9-0.9,1.4-1.4l2.7-2.9l4.5-4.7c1.3-1.3,2.5-2.7,3.9-3.9l3.6-3.2
			l2.5-2.5l3.4-2.9l3-2.7l5.2-4.3c1.1-0.9,2.1-1.8,3.4-2.5c0.7-0.7,1.6-1.3,2.3-1.8l3.4-2.3l2.9-2l3-2.1l0.9-0.5
			c0.5-0.2,1.1-0.5,1.6-0.9c0.7-0.4,1.4-0.9,2.3-1.3c1.3-0.9,2.7-1.6,4.1-2.3c1.1-0.7,2.3-1.4,3.6-2l4.1-1.8c2.5-1.1,5.2-2.1,7.9-3
			c1.8-0.7,3.6-1.1,5.4-1.4c2-0.5,4.1-0.9,6.3-0.9C589.2,69.4,591.4,69.6,593.3,70.3z"/>
		<path d="M554.8,172.4l2-0.5c2-0.5,3.9-1.6,5.6-2.9c2-1.3,3.8-2.7,5.6-4.1c1.6-1.3,2.3-1.1,3.9-1.1c5.2,0.2,1.1,0.7,10.2-2.1
			c0.5-0.2,1.1-0.2,1.6,0.2c1.1,0.7,0.7,2.3-0.5,2.9c-5.4,1.8-6.4,3-11.1,3c-0.5,0-1.1,0-1.6,0.4c-2.3,2-4.8,3.9-7.5,5.6
			c-1.8,0.9-3.6,2-5.6,2.5c-1.4,0.4-2.9,0.7-4.3,0.4c-1.6-0.5-2.5-1.6-2.9-3.2c-0.5-2.1-0.2-4.1,0.7-6.1c0.7-2,1.8-3.6,3.2-5
			c1.1-1.1,2.3-2.1,3.8-3c1.8-1.1,3.8-1.8,5.9-2.2c1.1-0.2,2.1-0.2,3.2,0.4c1.4,0.7,2.7,2,2.7,3.6c0,1.6-1.3,3-2.9,3.4h-1.4
			l-2.9,0.9l-2.9,1.4c-1.8,1.1-3.6,2.5-4.7,4.5c-0.2,0.4-0.4,0.7-0.4,1.1L554.8,172.4z"/>
		<path d="M580.2,172.6c1.3,0.2,2.5-0.2,3.6-0.7l9.5-4.3c2.5-1.1,4.8-2.3,7.3-3.6l3.8-2.1c0.7-0.4,1.6-0.2,2.1,0.5
			c0.4,0.5,0.4,1.3-0.5,1.8c-1.6,1.1-3.2,2-4.8,2.9c-2,0.9-3.8,1.8-5.6,2.9l-6.8,3.2l-3.9,1.6c-1.8,0.7-3.6,1.3-5.6,1.1
			c-2.9-0.4-4.1-2.3-3.6-5c0.4-2,1.3-3.6,2.3-5.2c1.8-2.5,3.8-4.7,5.9-6.8c1.4-1.6,2.9-3.2,4.5-4.7l2.5-2.3l4.5-3.6
			c1.3-1.1,2.7-2,4.1-3l3-2.2c0.5-0.4,1.3-0.7,2-0.9c1.3-0.4,2.2,0,2.9,0.9c0.9,1.1,1.1,2.2,0.5,3.4c-0.5,1.1-1.3,1.8-2.2,2.5
			l-4.7,3.6c-2.1,1.6-4.3,3-6.3,4.7l-4.5,3.6c-1.1,0.7-2,1.4-2.9,2.3c-2.5,2.3-5,4.5-7,7c-0.5,0.7-1.1,1.4-1.3,2.5L580.2,172.6
			L580.2,172.6z"/>
		<path d="M603.7,172.6c1.3,0.2,2.5-0.2,3.6-0.7l9.5-4.3c2.5-1.1,4.8-2.3,7.3-3.6l3.8-2.1c0.7-0.4,1.6-0.2,2.1,0.5
			c0.4,0.5,0.4,1.3-0.5,1.8c-1.6,1.1-3.2,2-4.8,2.9c-2,0.9-3.8,1.8-5.6,2.9l-6.8,3.2l-3.9,1.6c-1.8,0.7-3.6,1.3-5.6,1.1
			c-2.9-0.4-4.1-2.3-3.6-5c0.4-2,1.3-3.6,2.3-5.2c1.8-2.5,3.8-4.7,5.9-6.8c1.4-1.6,2.9-3.2,4.5-4.7l2.5-2.3l4.5-3.6
			c1.3-1.1,2.7-2,4.1-3l3-2.2c0.5-0.4,1.3-0.7,2-0.9c1.3-0.4,2.2,0,2.9,0.9c0.9,1.1,1.1,2.2,0.5,3.4c-0.5,1.1-1.3,1.8-2.2,2.5
			l-4.7,3.6c-2.1,1.6-4.3,3-6.3,4.7l-4.5,3.6c-1.1,0.7-2,1.4-2.9,2.3c-2.5,2.3-5,4.5-7,7c-0.5,0.7-1.1,1.4-1.3,2.5L603.7,172.6
			L603.7,172.6z"/>
		<path d="M629,172.4l2-0.5c2-0.5,3.9-1.6,5.6-2.9c2-1.3,3.8-2.7,5.6-4.1c1.6-1.3,2.3-1.1,3.9-1.1c5.2,0.2,1.1,0.7,10.2-2.1
			c0.5-0.2,1.1-0.2,1.6,0.2c1.1,0.7,0.7,2.3-0.5,2.9c-5.4,1.8-6.4,3-11.1,3c-0.5,0-1.1,0-1.6,0.4c-2.3,2-4.8,3.9-7.5,5.6
			c-1.8,0.9-3.6,2-5.6,2.5c-1.4,0.4-2.9,0.7-4.3,0.4c-1.6-0.5-2.5-1.6-2.9-3.2c-0.5-2.1-0.2-4.1,0.7-6.1c0.7-2,1.8-3.6,3.2-5
			c1.1-1.1,2.3-2.1,3.8-3c1.8-1.1,3.8-1.8,5.9-2.2c1.1-0.2,2.1-0.2,3.2,0.4c1.4,0.7,2.7,2,2.7,3.6c0,1.6-1.3,3-2.9,3.4h-1.4
			l-2.9,0.9l-2.9,1.4c-1.8,1.1-3.6,2.5-4.7,4.5c-0.2,0.4-0.4,0.7-0.4,1.1L629,172.4z"/>
		<path d="M670.7,165.9l-2.5,1.3l-3.4,1.8l-3,1.8l-5.6,2.7l-4.8,2.2c-0.7,0.4-1.6,0.5-2.5,0.2c-1.4-0.4-2-1.8-1.6-3.2
			c0.2-0.9,0.7-1.8,1.3-2.7c0.9-1.4,2.1-2.9,3.2-4.1c1.1-1.3,2.3-2.1,3.4-3.2c0.9-0.9,1.6-1.8,2.7-2.5l4.3-3.2
			c0.7-0.4,1.4-0.4,2.3-0.2c1.3,0.5,2,1.6,2,2.9c0,1.1-0.4,1.8-1.3,2.5l-1.6,1.3c-1.1,0.9-2.1,1.8-3.2,2.5l-4.5,3.9l-0.2,0.2
			c0.5-0.2,0.9-0.5,1.3-0.7l2.9-1.6l4.8-2.7c2.7-1.4,5.2-2.9,7.9-4.1c1.1-0.7,2.2-1.3,3.2-1.6c0.5-0.4,1.1-0.4,1.6-0.4
			c1.8,0,2.9,1.4,2.5,3.2c-0.2,0.7-0.7,1.4-1.1,2.2c0,0.2-0.2,0.2-0.2,0.4v0.2l1.1-0.5l5.7-2.7c2.1-1.1,4.3-2,6.4-2.9
			c0.9-0.5,2-0.9,3-0.9c1.6-0.2,3.6,1.8,2.7,3.8c-0.4,1.1-0.9,2-1.8,2.7l-5.2,4.8l-1.8,1.6l0.2,0.2c0.7,0,1.6-0.2,2.3-0.4
			c3.9-1.6,8.1-3,12-4.5l7.7-3.2l1.4-0.7c0.7-0.4,1.6-0.2,2,0.5c0.2,0.7,0.2,1.3-0.7,1.8l-2.1,1.1l-4.8,2.1
			c-3.4,1.4-6.8,2.9-10.2,4.1c-2.1,0.9-4.3,1.6-6.4,2.3c-0.9,0.2-2,0.4-3,0.4c-2-0.2-3.2-1.6-2.7-3.8c0.2-1.6,1.1-2.9,2-4.1l0.7-1.1
			c-0.2,0.2-0.4,0.2-0.5,0.2l-5.4,2.5l-4.5,2c-1.6,0.7-3,1.3-4.7,1.8c-0.9,0.4-1.8,0.2-2.5-0.7c-0.7-0.9-0.7-2-0.2-2.9L670.7,165.9z
			"/>
		<path d="M715.7,166.3l2.2-0.9c2.9-1.1,5.7-2.2,8.6-3c2.3-0.7,4.7-1.3,7.2-1.4c1.4-0.2,3-0.2,4.5,0.2c1.6,0.4,2.7,1.4,2.9,3
			c0,0,0,0.2,0.2,0.2c0.5,0,1.1-0.2,1.6-0.4c2.1-0.7,4.3-1.3,6.4-1.8l2.3-0.5c0.7-0.2,1.3,0.2,1.4,0.9c0.2,0.7-0.2,1.4-0.9,1.6
			c-2.3,0.7-4.7,1.4-7,2l-4.5,1.6c-0.5,0.2-0.9,0.4-1.3,0.7c-1.1,1.3-2.3,2.3-3.6,3.2c-2,1.6-4.1,2.9-6.3,3.9
			c-2.3,1.1-4.8,2-7.3,2.7c-1.6,0.4-3.2,0.5-4.7,0.4c-1.3-0.2-2.3-0.7-2.7-2c-0.5-1.1,0-2.5,1.3-3.2c1.4-0.7,2.9-1.6,4.5-2.1
			c2.5-1.1,5-2,7.7-2.9l4.3-1.3c1.1-0.4,2.1-1.1,2.9-2.1c-0.9,0.2-1.8,0.2-2.7,0.2c-1.8,0.2-3.6,0.5-5.4,1.1c-2,0.5-3.9,1.3-5.9,2
			c-2.9,1.1-5.6,2.3-8.2,3.4l-4.3,1.8l-3.6,1.6c-0.7,0.4-1.6,0.5-2.3,0c-1.1-0.4-1.4-1.8-0.9-2.7c0.7-1.4,1.8-2.5,2.9-3.6l3.8-3.8
			l2.7-2.3l2.3-2.1l2-1.6l1.1-1.1l4.8-3.9c1.3-1.1,2.5-2.2,3.8-3c2.7-2.2,5.4-4.3,8.6-5.9l2.9-1.4c1.1-0.4,2.1,0,2.9,0.5
			c0.7,0.7,1.1,1.6,1.1,2.5c0,1.3-0.9,2-1.8,2.5l-4.3,3c-2.1,1.4-4.3,2.9-6.3,4.5l-5,3.6l-7.5,5.9L715.7,166.3z"/>
	</g>
	<g>
		<path d="M713.7,199.4c-1.6,0-3-1.3-3.2-2.9c0-0.4-0.2-0.4-0.4-0.5c-2.7-0.5-5.2-1.3-7.9-1.6l-6.4-0.9l-6.3-0.5
			c-1.8-0.2-3.4-0.4-5-0.4c-1.6,0-3.2-0.2-4.7-0.2h-17c-2.3,0.2-4.7,0.2-7,0.2h-4.7c-1.1,0.2-2.1,0.2-3.2,0.2l-6.8,0.4
			c-1.8,0-3.6,0-5.2,0.2l-6.6,0.4c-2.7,0-5.2,0.4-7.7,0.4l-7.3,0.5l-7.7,0.5l-5.7,0.5l-8.1,0.7l-7.9,0.9c-3,0.4-6.3,0.7-9.5,1.3
			l-9.3,1.3l-7.3,1.4l-3.8,0.5l-4.8,1.1l-8.1,2l-6.1,1.8c-2,0.5-3.8,1.1-5.7,1.8c-0.7,0.2-1.4,0.4-2.1-0.2c-0.5-0.4-0.7-0.9-0.5-1.6
			c0-1.1,0.9-1.4,1.8-1.8l7.3-2.3c2.9-0.9,5.6-1.6,8.4-2.3l4.3-1.1l6.1-1.3l4.3-0.9l4.5-0.7c2.3-0.4,4.5-0.9,6.8-1.1l5.4-0.9
			l4.8-0.5c2.5-0.4,5-0.7,7.5-0.9c2-0.4,3.9-0.5,5.7-0.7l11.6-1.1c3-0.4,6.1-0.5,9.1-0.7c2.3-0.4,4.7-0.4,7.2-0.5l7.3-0.5l5.9-0.4
			l5.9-0.4l12.5-0.5c2.3,0,4.7,0,6.8-0.2c1.3,0,2.5,0,3.8-0.2h6.4c1.3,0,2.5-0.2,3.9-0.2h14l8.6,0.5l8.8,0.7l4.3,0.7
			c1.3,0.4,2.7,0.7,3.9,0.9c2,0.5,3.6,1.1,5,2.5c0.7,1.1,1.1,2.1,0.9,3.2c-0.2,1.3-0.9,2.1-2,2.7c-0.9,0.7-2.1,0.9-3.2,0.7
			L713.7,199.4L713.7,199.4z"/>
	</g>
</g>
</svg>
