<?xml version="1.0" encoding="utf-8"?>
<!-- Generator: Adobe Illustrator 23.1.0, SVG Export Plug-In . SVG Version: 6.00 Build 0)  -->
<svg version="1.1" id="Capa_1" xmlns="http://www.w3.org/2000/svg" xmlns:xlink="http://www.w3.org/1999/xlink" x="0px" y="0px"
	 viewBox="0 0 925 263" style="enable-background:new 0 0 925 263;" xml:space="preserve">
<style type="text/css">
	.st0{fill:#DD9F30;}
	.st1{fill:#D58D35;}
	.st2{fill:#666565;}
	.st3{opacity:0.9;}
	.st4{clip-path:url(#SVGID_2_);}
	.st5{clip-path:url(#SVGID_4_);fill:url(#SVGID_5_);}
	.st6{fill:#326386;}
	.st7{fill:#9F2C56;}
	.st8{fill:none;stroke:#376E99;stroke-miterlimit:10;}
	.st9{fill:#BF272D;}
	.st10{fill:#EC1C24;}
	.st11{fill:#00C1BD;}
	.st12{fill:#333333;}
	.st13{fill:url(#SVGID_6_);}
	.st14{fill:#002C85;}
	.st15{clip-path:url(#SVGID_8_);}
	.st16{clip-path:url(#SVGID_10_);fill:#AE8A76;}
	.st17{clip-path:url(#SVGID_12_);fill:#AE8A76;}
	.st18{fill:#674B3C;}
	.st19{fill:#FFFFFF;}
</style>
<g>
	<path class="st14" d="M644.6,212.6c-0.4-3.4-0.7-6.7-1.1-9.9c-0.1-0.6-0.3-0.9-1-0.9c-1.3,0-2.6,0-4,0c-0.3,0-0.8,0.3-0.9,0.5
		c-0.4,3.4-0.8,6.7-1.1,10.2c1,0,1.9,0,2.9,0c0,1.9,0,3.7,0,5.6c-4.1,0-8.2,0-12.4,0c0-1.8,0-3.6,0-5.6c0.9,0,1.8,0,2.8,0
		c1.7-12,3.5-23.8,5.2-35.9c-1.1,0-2.1,0-3.2,0c0-1.9,0-3.7,0-5.6c5.7,0,11.5,0,17.3,0c0,1.8,0,3.6,0,5.6c-1,0-2.1,0-3.2,0
		c1.7,12,3.5,23.9,5.2,35.8c1,0,1.9,0,2.8,0c0,1.9,0,3.7,0,5.6c-4.1,0-8.2,0-12.4,0c0-1.8,0-3.7,0-5.6
		C642.7,212.6,643.6,212.6,644.6,212.6z M643,196.1c0-0.5,0-0.8,0-1.2c-0.6-6.1-1.2-12.1-1.8-18.2c-0.1-0.6-0.4-1.1-0.6-1.6
		c-0.2,0.6-0.5,1.1-0.5,1.7c-0.4,4-0.8,7.9-1.2,11.9c-0.2,2.5-0.4,4.9-0.7,7.5C639.8,196.1,641.3,196.1,643,196.1z"/>
	<path class="st14" d="M309.5,176.8c-2.1,0-4,0-5.9,0c0,4.7,0,9.4,0,14.2c1.5,0,3,0,4.6,0c0,1.9,0,3.7,0,5.6c-1.5,0-3,0-4.6,0
		c0,5.3,0,10.5,0,15.8c1.9,0,3.8,0,5.9,0c0-2.9,0-5.7,0-8.6c1.9,0,3.7,0,5.5,0c0,4.7,0,9.5,0,14.3c-7.1,0-14.3,0-21.5,0
		c0-1.8,0-3.6,0-5.6c1.1,0,2.2,0,3.3,0c0-12,0-23.8,0-35.8c-1.1,0-2.1,0-3.3,0c0-1.9,0-3.7,0-5.6c7.1,0,14.2,0,21.5,0
		c0,4.5,0,8.9,0,13.5c-1.8,0-3.5,0-5.5,0C309.5,182.1,309.5,179.5,309.5,176.8z"/>
	<path class="st14" d="M283.1,173.3c0-0.9,0.1-1.5,0.1-2.1c1.8,0,3.6,0,5.5,0c0,5,0,10,0,15.1c-1.8,0-3.6,0-5.4,0
		c-0.2-1.8-0.3-3.6-0.7-5.3c-0.3-1.2-0.8-2.3-1.5-3.4c-0.6-1-1.7-1.3-2.8-1.1c-1.1,0.2-1.8,1-1.9,2c-0.3,1.8-0.7,3.7-0.7,5.6
		c0,7.3,0.1,14.6,0.2,21.9c0,1.4,0.3,2.9,0.7,4.2c0.5,1.7,1.5,2.5,2.8,2.6c1.3,0,2.5-0.8,2.9-2.4c0.5-2.4,0.7-4.9,1.1-7.4
		c0.1-0.4,0-0.9,0-1.5c1.9,0.5,3.7,1,5.4,1.5c0.2,0.1,0.4,0.4,0.4,0.6c-0.2,4.1-0.6,8.1-3,11.7c-3.4,5-10.2,5.1-13.8,0.2
		c-1.5-2.1-2.4-4.5-2.9-7c-1.3-6.1-1.4-12.4-1.1-18.6c0.2-4,0.5-8.1,1.8-11.9c0.5-1.5,1.1-2.9,1.9-4.2
		C274.4,169.6,280.2,168.9,283.1,173.3z"/>
	<g>
		<g>
			<defs>
				<path id="SVGID_7_" d="M542.8,87.5l14,18l9,13l3,35l-20-1c0,0-12-42-10.7-44.8c1.3-2.8,0-20.6,0-20.6L542.8,87.5z M425.8,84.5
					c0,0-5-6-9-10s-37,42-37,42l-3,27l2,11h14l-2.1-8.9l3.6-13.6l4-10l5-8l-3-8c0,0-5.3-9.6-0.2-10.3c5.2-0.7,11.2,2.3,11.2,2.3
					L425.8,84.5z"/>
			</defs>
			<clipPath id="SVGID_2_">
				<use xlink:href="#SVGID_7_"  style="overflow:visible;"/>
			</clipPath>
			<g class="st4">
				<defs>
					<path id="SVGID_9_" d="M555.8,150.5c0,45.8-37.2,83-83,83c-45.8,0-83-37.2-83-83s37.2-83,83-83
						C518.6,67.5,555.8,104.7,555.8,150.5z M472.8,59.5c-50.3,0-91,40.7-91,91s40.7,91,91,91c50.3,0,91-40.7,91-91
						S523.1,59.5,472.8,59.5z"/>
				</defs>
				<clipPath id="SVGID_4_">
					<use xlink:href="#SVGID_9_"  style="overflow:visible;"/>
				</clipPath>
				<path style="clip-path:url(#SVGID_4_);fill:#AE8A76;" d="M513.9,143.5c6.8,8,11.7,17.3,13.2,27.6c2.1,14.7,0.4,29.2-6.6,42.6
					c-5.3,10.2-13.6,16.3-25.6,16.6c15.8-8.4,25.1-21.5,28.1-39C526.1,174.3,522.7,158.4,513.9,143.5z M460.1,52
					c-10.7,1-18.5,4.8-25.8,13.2c-15.2,17.3-20.3,49.5-9.2,73c0.5,1.1,1.5,2,2.3,3.1C414.1,102,423.8,71.9,460.1,52z M536.2,87.2
					c-25.8-8.6-49.4-5.2-69.7,14c-0.2,0.1-0.1,0.5-0.3,1.5c14.3-12.5,30.4-17.9,48.6-16.1c18.3,1.8,33,10.1,44,25
					C555.7,99.3,547.8,91.1,536.2,87.2z M407.8,206.6c7.2,5.4,15.7,7.4,24.5,7.5c22.2,0.2,39.6-10.4,55.2-24.9
					c1.2-1.1,1.4-3.2,2-4.9c-27,26.7-56,34.8-90.4,13.9C402,201,404.6,204.2,407.8,206.6z M512.1,155.9c4.5,16.9,3.5,33.5-4.4,49.1
					c-8.2,16.2-21.6,25.6-39.7,28.3c11.7,2.5,21.6-1,29.8-8.9c14.3-13.8,21.1-30.7,19.3-50.6c-0.5-6.1-2.3-12.1-3.5-18.1
					C513,155.7,512.5,155.8,512.1,155.9z M498.2,77.8c17.9-3.2,34.3,0.7,49.1,12.1c0-0.7,0.1-1,0-1.3c-0.2-0.6-0.5-1.2-0.8-1.8
					c-3.2-6.7-8.7-10.6-15.8-12.3c-8.8-2.1-17.5-1.2-26.2,0.6c-10,2.1-20.3,3.5-29.3,8.8c-8.6,5.1-15.5,11.7-20,20.8
					C466.1,90.1,480.4,81,498.2,77.8z M380.1,143.6c-1.3,8.5,0.7,16.6,6.3,23.5c15.4,18.7,35.7,25.9,59.4,24.8
					c5.9-0.3,11.6-1.7,17.2-4.7C422.2,196.8,395,181.9,380.1,143.6z M535.6,174.2c1.7,17.7-3.9,33-15.7,46.2
					c8-4,13.2-10.2,16.2-18.4c3.8-10.4,3.6-21.1,1.3-31.7c-3.6-16-9.3-30.9-25.7-38.7C525.1,142.8,533.8,156.6,535.6,174.2z
					 M498.9,176.8c-5.4,17-16.1,29.5-31.8,37.4c-16,8-32.4,8.7-49.3,2.4c4.3,3.7,9.2,5.9,14.5,7.1c19.2,4.3,42.8-5.5,54.4-22.5
					c3-4.4,6.3-8.6,9.1-13.2c1.9-3.3,3.2-6.9,4.7-10.4C499.9,177.2,499.4,177,498.9,176.8z M452,61.8c-17.8,15.9-25,36.2-23.6,59.7
					c0.1,2.5,1.1,5,1.7,7.4c0.3,0,0.6-0.1,0.9-0.1c-2.6-18.1,0.5-35,10.4-50.3c10.1-15.7,24.5-25,43.2-27.2
					C472.1,49.7,461.2,53.6,452,61.8z M435.3,57.5c-13,6.6-21,16.8-24.2,30.6c-4.4,18.7-0.9,36.4,8.4,52.9c2.4,4.3,5.5,8.1,8.3,12.2
					C404.1,119.2,406,87.6,435.3,57.5z M383.9,138.4c4.9,17.3,16.4,29.1,31.7,37.5c11.5,6.3,23.4,8.4,33.8,6.6
					c-37.2-0.8-67-29.8-65.2-65.4C382.1,124.2,381.9,131.3,383.9,138.4z M468.8,229.4c15-6.5,26.3-16.9,33.2-32
					c4.2-9.3,6.4-19.1,5.7-29.4c-3.5,39.8-25.8,59.5-64.7,61.6C451.8,233,460.3,233.1,468.8,229.4z M401.2,190.3c-0.5,0-1,0-1.5,0
					c0,0,0.1,0,0.1,0c3.2,2.4,6.1,5.5,9.7,7.1c16.7,7.4,33.8,7.2,50.7,0.6c5.8-2.3,11.1-5.5,15.4-10.2c-2.2,0.9-4.2,2.2-6.3,3.3
					c-21.6,11-43.1,11.8-64.5-0.4c-0.9-0.5-2.2-0.4-3.3-0.5C401.5,190.2,401.4,190.2,401.2,190.3z M445.3,110.3
					c6.4-17.1,17.3-30.2,33.7-38.1c16.7-8,33.7-8.3,50.9-1.2c-8.9-7.2-19.3-9.2-30.2-7.5c-22.9,3.5-40.6,14.9-51,36.2
					c-1.6,3.3-2.9,6.8-4.4,10.2C444.7,110,445,110.2,445.3,110.3z M562.9,158.4c2-8.3,0.6-16-3.8-23.1
					c-7.7-12.5-19.2-20.6-32.5-26.4c-2.2-1-4.7-1.3-7.1-2c24.1,9.8,38.5,27.2,42.5,53.8C562.6,159.4,562.8,159,562.9,158.4z
					 M410.7,143.4c-13.5-22.9-12.5-51,3.3-72.6C390.8,87.1,394.9,126.5,410.7,143.4z M553.3,112.7c-10.8-11-24.4-15.7-39.2-17.6
					c-10.5-1.4-20.7-0.6-30.5,3.4c-2.2,0.9-4.2,2.1-6.3,3.2c0.1,0.4,0.3,0.8,0.4,1.2c16.1-7.6,32.5-9.4,49.4-3.3
					c17,6.1,28.8,17.8,36.5,35.1C563,126.7,559.2,118.7,553.3,112.7z M555,181.3c4.8-8.5,4.3-17.1,0.7-25.7
					c-4-9.6-10.5-17.5-17.1-25.4c-9.9-11.9-22.8-17.5-37.9-18.5c-0.7,0-1.3,0.1-2,0.2c17.3,2.8,31.9,10,43,23.6
					c11.3,13.8,15.1,29.5,12.4,47.2C554.4,182.1,554.7,181.7,555,181.3z M541.8,154.6c7.3,16.3,6.2,32.6-1.9,49.4
					c5.6-5.8,9.1-14.1,9.6-21.6c1-15.6-4.6-29-13.8-41.3c-7.5-10-18-15.6-29.3-20.3C522.3,127.8,534.7,138.5,541.8,154.6z M508.4,58
					c-26.3-9.4-55.2,11.7-64.6,34.5C458.9,68.6,480.3,57.3,508.4,58z M400,144c-9.6-15.6-11.4-32.3-5.5-49.7
					c-5.6,8.9-6.9,18.5-4.7,28.6c4.1,19,15.1,33.3,30.9,44.1c5.8,4,12.1,6.9,19.2,7.9C422.9,169.2,409.4,159.2,400,144z
					 M398.2,187.8c-0.6-1.1-0.9-2.3-1.7-3.1c-1.6-1.6-3.6-2.8-5.1-4.6c-1.6-1.9-2.6-4.2-3.9-6.3c0.8,3.1,2,6,3.7,8.5
					c1.7,2.5,3.3,5.6,7.2,5.4C398.3,187.6,398.2,187.8,398.2,187.8z M437,118.3c0.6-4.3,1.2-8.6,1.8-13c-0.2,0-0.4-0.1-0.5-0.1
					c-0.7,4.3-1.5,8.6-2.2,13C436.3,118.2,436.7,118.2,437,118.3z M399.8,190.3c0,0-0.1,0-0.1,0c0.5,0,1,0,1.5,0
					c0.2,0,0.3-0.1,0.3-0.1c-0.2-0.6-0.4-1.3-0.6-1.9l-0.1-0.1c0,0,0.1,0.1,0.1,0.2c-0.6-0.3-1.2-0.6-1.8-0.9l0,0.2
					c0,0,0.1-0.2,0.1-0.2c-0.3,0.1-0.7,0.2-1,0.3c0,0,0.1-0.1,0.1-0.1C398.8,188.5,399.3,189.4,399.8,190.3z"/>
			</g>
		</g>
		<g>
			<defs>
				<path id="SVGID_11_" d="M425.8,84.5c0,0,0,6,31,32c0,0-5,6-5,8c0,0-9,0-24-13s-20-16-20-16l18-12V84.5z M537.8,104.5
					c-1,0-2,3-2,5s-1,6-2,7s0,2,0,4s-3,2-3,3s2,3,0,6s-8,1-8,1c-1,4-10.4,22-10.4,22h40.4C554.8,134.5,538.8,104.5,537.8,104.5z"/>
			</defs>
			<clipPath id="SVGID_5_">
				<use xlink:href="#SVGID_11_"  style="overflow:visible;"/>
			</clipPath>
			<circle style="clip-path:url(#SVGID_5_);fill:#AE8A76;" cx="472.3" cy="150" r="78.5"/>
		</g>
		<path class="st18" d="M674.8,237.2c-0.6,0-1.3-0.1-1.9-0.1c-140.3,0-280.6,0-420.9,0c-0.6,0-1.2,0-1.8,0c0-28.9,0-57.7,0-86.7
			c0.5,0,1,0,1.4,0c45.9,0,91.9,0,137.8,0c0.7,0,1.4,0.2,2,0.6c4.2,2.8,8.7,3.3,13.2,1.1c3.1-1.5,6.2-1.8,9.5-1.8
			c4.7,0.1,9.4-0.1,14.1,0.1c2.3,0.1,4.6,0.7,7,1c0,1.7,0,3.2,0,4.9c-0.7,0-1.3,0-1.9,0c-58.4,0-116.8,0-175.2,0c-2.4,0-2-0.2-2,2.1
			c0,23.6,0,47.2,0,70.7c0,0.6,0,1.1,0,1.9c0.7,0,1.3,0,1.9,0c56,0,112.1,0,168.1,0c80.1,0,160.3,0,240.4,0c0.4,0,0.7,0,1.1,0
			c1.1,0.2,1.3-0.3,1.3-1.4c0-10.8,0-21.5,0-32.3c0-13.1,0-26.3,0-39.4c0-1.6,0-1.6-1.7-1.6c-51.9,0-103.9,0-155.8,0
			c-0.5,0-1,0-1.7,0c1.6-2,3.1-3.9,4.7-5.8c0.2-0.2,0.7-0.3,1.1-0.3c11.7,0,23.4,0,35.1,0c2.8,0,5.7,0.1,8.5,0.1c38,0,76,0,114,0
			c0.6,0,1.1,0,1.7,0C674.8,179.3,674.8,208.3,674.8,237.2z"/>
		<path class="st14" d="M322.2,176.7c-0.9,0-1.6,0.1-2.4,0c-0.3,0-0.7-0.4-0.7-0.6c-0.1-1.6,0-3.2,0-5c1.1,0,2.1,0,3,0
			c2.1,0,4.2,0.1,6.2,0c0.9,0,1.3,0.3,1.6,1.2c3,9.4,6,18.8,8,28.6c0.1,0.3,0.2,0.6,0.3,1.2c-0.3-8.6-0.5-16.8-0.7-25.1
			c-0.3,0-0.6-0.1-0.8-0.1c-2.2-0.1-2.2-0.1-2.2-2.3c0-1.1,0-2.1,0-3.2c4.1,0,8,0,12,0c0,1.8,0,3.6,0,5.6c-1,0-2,0-3.1,0
			c0,13.9,0,27.7,0,41.6c-1.7,0-3.2,0-4.8,0c-0.3,0-0.6-0.4-0.7-0.7c-3.1-9.8-6.6-19.4-8.8-29.5c-0.4-1.7-0.8-3.5-1.5-5.2
			c0.2,9.9,0.3,19.7,0.5,29.7c1,0,1.9,0,3,0c0,1.9,0,3.7,0,5.6c-4,0-7.9,0-12,0c0-1.8,0-3.6,0-5.6c1.1,0,2,0,3.1,0
			C322.2,200.6,322.2,188.7,322.2,176.7z"/>
		<path class="st14" d="M403.5,212.6c0,2,0,3.8,0,5.7c-2.5,0-4.9,0-7.3,0c-0.3,0-0.7-0.6-0.8-1c-1.7-6.2-3.3-12.3-5-18.5
			c-0.2-0.7-0.4-1.3-0.6-2c-0.8,0-1.7,0-2.6,0c0,5.3,0,10.4,0,15.8c1.1,0,2.1,0,3.3,0c0,1.9,0,3.7,0,5.6c-4.7,0-9.3,0-14,0
			c0-1.8,0-3.6,0-5.5c1.3,0,2.6,0,3.9,0c0-12,0-23.9,0-35.9c-1.3,0-2.6,0-3.9,0c0-1.9,0-3.7,0-5.6c0.3,0,0.7-0.1,1.1-0.1
			c3.7,0,7.4,0,11,0c7.5,0,12.4,5,12.5,12.5c0,4.5-1.3,8.3-5.1,11.1c-0.2,0.2-0.4,0.7-0.3,1c1.5,5.4,3.1,10.9,4.7,16.3
			c0.1,0.3,0.6,0.6,0.9,0.6C402.1,212.7,402.8,212.6,403.5,212.6z M387.2,191.1c4,0.2,6.4-1.5,6.9-5.2c0.2-1.5,0.1-3.1-0.1-4.6
			c-0.4-3.2-3.3-4.8-6.8-4.3C387.2,181.6,387.2,186.3,387.2,191.1z"/>
		<path class="st14" d="M453.8,218.2c0-1.9,0-3.7,0-5.7c1.1,0,2.2,0,3.5,0c0-0.6,0-1.1,0-1.6c0-10.9,0-21.8,0-32.7
			c0-1.6,0-1.6-1.6-1.6c-0.6,0-1.2,0-1.8,0c0-1.9,0-3.7,0-5.5c0.2,0,0.4-0.1,0.6-0.1c3,0,6-0.1,9,0c6.1,0.1,10.3,3.3,12.4,9.3
			c1.8,5.1,2,10.5,1.9,15.8c-0.1,4.4-0.5,8.7-2,12.8c-2.1,5.9-6.3,9-12.5,9.1C460,218.3,457,218.2,453.8,218.2z M463.9,212.5
			c2.3,0.1,4.1-1.1,4.9-3.3c0.6-1.7,1-3.5,1.2-5.3c0.7-6,0.6-12.1,0-18.2c-0.2-2.1-0.8-4.3-1.6-6.3c-0.8-2-2.6-2.8-4.5-2.5
			C463.9,188.7,463.9,200.6,463.9,212.5z"/>
		<path class="st14" d="M427.5,195c0,5.2-0.3,10.5-1.8,15.5c-0.7,2.4-1.7,4.6-3.5,6.3c-3.2,3.1-8.7,2.9-11.7-0.4
			c-2.2-2.4-3.2-5.4-3.7-8.6c-1.6-9.1-1.6-18.3,0.4-27.3c0.7-2.9,1.8-5.7,4-7.9c3.3-3.3,8.3-3.1,11.4,0.4c2.3,2.7,3.5,6,4,9.5
			c0.6,4.1,0.9,8.3,1.3,12.5C427.7,195,427.6,195,427.5,195z M420.5,195.7c-0.2-5-0.3-9.2-0.7-13.3c-0.1-1.5-0.5-3.1-1.1-4.5
			c-0.9-1.9-3.1-1.9-4-0.1c-0.5,1-0.9,2.2-1,3.4c-0.9,8.5-0.8,17-0.2,25.5c0.1,1.3,0.4,2.6,0.8,3.9c0.3,1.2,1,2.2,2.4,2.3
			c1.1,0.1,2-0.7,2.5-2.2c0.2-0.7,0.5-1.5,0.5-2.2C420,203.9,420.3,199.4,420.5,195.7z"/>
		<path class="st14" d="M529.4,176.7c-1.2,0-2.4,0-3.7,0c0-1.9,0-3.7,0-5.6c0.4,0,0.8-0.1,1.2-0.1c3.6,0,7.1,0,10.7,0
			c6.6,0,11.3,4,12.4,10.5c0.6,3.5,0.5,6.9-0.5,10.3c-1.5,4.7-4.7,7.2-9.6,7.9c-1,0.1-2,0.1-3,0.3c-0.3,0-0.8,0.4-0.8,0.6
			c0,3.9,0,7.8,0,11.9c1.3,0,2.5,0,3.8,0c0,1.9,0,3.7,0,5.6c-4.7,0-9.5,0-14.2,0c0-1.8,0-3.6,0-5.5c1.2,0,2.4,0,3.7,0
			C529.4,200.6,529.4,188.7,529.4,176.7z M536.3,194.2c3.7,0.5,5.9-0.9,6.7-4.4c0.7-2.9,0.7-5.9-0.1-8.8c-0.8-3-3.5-4.7-6.6-4.2
			C536.3,182.7,536.3,188.5,536.3,194.2z"/>
		<path class="st14" d="M495.8,191c0,2,0,3.7,0,5.7c-1.3,0-2.6,0-3.8,0c-0.5,0-0.9,0-0.9,0.7c0,5,0,10,0,15.1c2,0,3.9,0,6,0
			c0-2.9,0-5.7,0-8.7c1.8,0,3.5,0,5.2,0c0.2,0,0.5,0.4,0.5,0.6c0,4.6,0,9.2,0,13.8c-7.3,0-14.4,0-21.6,0c0-1.8,0-3.6,0-5.6
			c1.1,0,2.1,0,3.3,0c0-12,0-23.8,0-35.8c-1,0-2.1,0-3.3,0c0-2,0-3.8,0-5.6c7.2,0,14.3,0,21.5,0c0,4.5,0,8.9,0,13.5
			c-1.8,0-3.6,0-5.6,0c0-2.6,0-5.2,0-7.9c-2,0-3.9,0-5.9,0c0,4.7,0,9.4,0,14.2C492.7,191,494.2,191,495.8,191z"/>
		<path class="st14" d="M552.6,212.6c1.1,0,2.1,0,3.2,0c0-12,0-23.8,0-35.9c-0.8,0-1.6,0-2.4,0c-0.6,0-0.9-0.1-0.9-0.8
			c0-1.6,0-3.1,0-4.8c7.2,0,14.3,0,21.6,0c0,4.5,0,8.9,0,13.5c-1.8,0-3.5,0-5.5,0c0-2.1,0-4.2,0-6.3c0-1.6,0-1.6-1.6-1.6
			c-1.4,0-2.8,0-4.3,0c0,4.8,0,9.5,0,14.3c1.5,0,3.1,0,4.7,0c0,1.9,0,3.7,0,5.6c-1.5,0-3,0-4.6,0c0,5.3,0,10.5,0,15.8
			c1.9,0,3.8,0,5.9,0c0-2.9,0-5.7,0-8.7c1.8,0,3.4,0,5.1,0c0.2,0,0.5,0.4,0.5,0.6c0,4.6,0,9.1,0,13.7c-7.2,0-14.4,0-21.6,0
			C552.6,216.3,552.6,214.5,552.6,212.6z"/>
		<path class="st14" d="M591.1,172.2c0.1-0.5,0.1-0.8,0.2-1.1c1.8,0,3.6,0,5.5,0c0,4.6,0,9.2,0,13.9c-1.8,0-3.6,0-5.6,0
			c0-1.4,0.1-2.7,0-4c-0.1-1-0.2-2.1-0.4-3.1c-0.5-1.6-1.6-2.2-3.2-2c-1.3,0.2-2,1.1-2.2,2.6c-0.3,2.8,0.6,5.3,2.2,7.5
			c1.4,2,3,3.9,4.5,5.8c3.2,4.1,5.8,8.4,6.5,13.7c0.4,3.6-0.1,7.1-2.2,10.2c-2.7,3.9-7.8,4.2-10.6,1.5c-0.1-0.1-0.2-0.2-0.5-0.3
			c-0.1,0.5-0.1,0.8-0.1,1.2c-1.8,0-3.6,0-5.5,0c0-5.3,0-10.7,0-16.1c1.8,0,3.6,0,5.6,0c0,1.5-0.1,3,0,4.5c0.1,1.4,0.2,2.9,0.5,4.3
			c0.3,1.5,1.3,2.3,2.8,2.4c1.4,0.1,2.6-0.6,3.1-2c0.4-1.1,0.6-2.3,0.5-3.4c-0.2-2.9-1.2-5.5-3-7.8c-2.3-3-4.6-6-6.8-9.1
			c-3.2-4.5-4-9.5-2.5-14.8c0.4-1.4,1.2-2.7,2.1-3.8c2.3-2.7,5.8-2.9,8.6-0.7C590.6,171.8,590.7,172,591.1,172.2z"/>
		<path class="st14" d="M365.2,212.6c1.2,0,2.3,0,3.5,0c0,1.9,0,3.7,0,5.6c-4.6,0-9.2,0-13.9,0c0-1.9,0-3.7,0-5.6c1.2,0,2.4,0,3.6,0
			c0-12.2,0-24.3,0-36.5c-1.3,0-2.5,0-4,0c0,4,0,8.1,0,12.1c-1.7,0-3.2,0-4.8,0c0-5.6,0-11.3,0-17c8.1,0,16.1,0,24.3,0
			c0,5.6,0,11.3,0,17c-1.5,0-3.1,0-4.8,0c0-4,0-8.1,0-12.1c-1.4,0-2.7,0-4,0C365.2,188.2,365.2,200.3,365.2,212.6z"/>
		<path class="st14" d="M618.4,173.3c0.1-0.9,0.1-1.5,0.1-2.2c1.9,0,3.7,0,5.6,0c0,5.1,0,10.1,0,15.1c-1.9,0-3.7,0-5.5,0
			c-0.2-1.8-0.3-3.5-0.7-5.2c-0.2-1.1-0.7-2.3-1.3-3.3c-0.6-1.1-1.8-1.5-3-1.2c-1.2,0.2-1.8,1.1-1.9,2.2c-0.3,2.6-0.7,5.2-0.7,7.7
			c0,6.7,0.1,13.3,0.3,20c0,1.4,0.4,2.9,0.9,4.3c0.4,1.2,1.2,2.1,2.6,2.1c1.4,0,2.4-0.8,2.7-2c0.6-2.4,0.9-4.8,1.3-7.3
			c0.1-0.7,0-1.3,0-2.1c1.9,0.5,3.6,1,5.2,1.5c0.2,0.1,0.5,0.5,0.5,0.7c0,3.6-0.5,7.1-2.2,10.3c-1.6,3-3.8,4.9-7.4,5
			c-3.8,0.1-6.4-1.7-8.1-4.9c-1.6-2.9-2.3-6-2.6-9.2c-0.9-7.7-0.9-15.5,0.5-23.2c0.5-2.6,1.4-5.2,2.5-7.6c1.2-2.6,3.5-4.1,6.6-3.9
			C615.7,170.4,617.1,171.5,618.4,173.3z"/>
		<g>
			<path class="st14" d="M488.4,136.8c-0.3-4.2-1.2-8.2-3.2-11.9c0.7,4.5,1.1,9-0.1,13.4c-0.1,0-0.3,0-0.4,0
				c0.2-1.6,0.5-3.1,0.7-4.7c0.4-3,0.2-5.9-0.9-8.7c-0.3-0.8-0.9-1.5-1.3-2.2c-0.1,0.1-0.2,0.1-0.3,0.2c0.2,1.2,0.4,2.4,0.5,3.6
				c0.5,4.4-0.3,8.6-1.9,12.7c-0.1,0.4-0.5,0.7-0.9,0.9c2-6.3,4.1-12.6,0.3-19c1.2,7.5-0.6,14.2-4.7,20.4c3.2-6.9,6.6-13.8,3.3-21.7
				c-0.2,7.5-3.1,14-6.8,20.1c0.7,0.7,1.3,1.3,1.9,2c-1,0.7-1.6,0.7-2.3-0.3c-0.7-1.1-1.7-1.8-3.1-1.9c0,1.3,0,2.5,0,3.8
				c0.4,0.8-0.4,1.2-0.4,2.2s-6-1.8-6-1.8c-1.9-0.8-3.8-1.6-5.8-2.4c-0.3-0.1-0.9-0.2-1.1,0c-2.3,2-5,2.4-7.8,2.4
				c-0.4,0-0.8,0-1.3,0.3c0.7,0.5,1.3,1,2.2,1.6l11.9,6.2c0.4,0,0.9,0.2,1.3,0.4c3.8,1.8,7.5,3.9,11.5,5.2
				c13.5,4.4,26.6-0.1,35.3-11.9c5.1-6.9,7.9-14.7,9.4-23.1c0.1-0.5,0.3-1,0.7-1.5l0.1-8.6c-0.1-1.5-0.2-2.8-0.3-4
				c-1.4-13.5-5.7-25.8-14.9-36c-3.1-3.4-6.8-6.2-10.3-9.1c-10.3-8.3-21.1-15.9-32.8-21.9c-10.1-5.2-20.6-9.5-31.8-11.6
				c-9.6-1.9-19.1-1.6-28.2,2.5c-0.9,0.4-1.7,0.8-2.7,1.3c3.3,2.5,6.6,4.7,10.4,6c2.4,0.7,4.7,1.5,7,2.4c2.4,0.8,4.2,2.4,5.6,4.5
				c0.9,1.4,1.8,2.9,2.7,4.4c0.5,0.8,1,1.6,1.6,2.4c1.8,2.3,4.2,3.1,7.4,2.5c-4.3-7.5-9.9-13.6-17.6-17.4c0.1-0.1,0.1-0.2,0.2-0.3
				c2.2,1.1,4.4,2,6.5,3.3c6.4,3.7,10.5,9.3,13.4,15.9c0.6,1.3,1.2,2.6,1.7,3.9c1.5,3.2,3.1,6.2,5.6,8.7c-0.1,0.1-0.2,0.2-0.2,0.2
				c-0.9-0.8-2-1.5-2.7-2.5c-1.4-2.1-2.6-4.3-3.9-6.4c-0.9-1.6-1.7-3.2-2.6-4.9c-0.4,0.2-0.7,0.4-1,0.5c-2.2,1.2-4.4,1.3-6.3-0.3
				c-1.8-1.4-3.3-3.1-4.9-4.7c-1.7-1.6-3.4-3.3-5.3-4.8c-1.4-1.1-3.1-1.5-5-1.4c-2.5,0.2-4.7-0.7-6.9-1.8c-1.5-0.8-3-1.7-4.4-2.6
				c-0.4-0.2-0.7-0.4-1.2-0.6c-0.7,1.3-0.3,2.5,0.1,3.7c0.9,2.1,2.4,3.8,4.1,5.2c9.2,7.4,19.5,12.3,31.2,14.1
				c0.4,0.1,0.9,0.1,1.3,0.1c0.4,0,0.8,0,1.3,0.1c-0.5,1.4-1.9,0.8-2.8,1.5c1.8,4.6,5.5,7.1,10.1,8.9c-2.2,0-4.1-0.1-6,0
				c-3.6,0.3-5.1,2.7-3.7,6c1.3,3.1,3.4,5.6,5.9,7.8c4.6,4.1,9.3,8.1,14.1,12c7.2,5.9,14.6,11.6,22.8,16.3c0.6,0.4,1.2,0.7,1.9,1
				c6.1,2.8,8.7,7.9,9.7,14.2c0.2,1.5,0.3,2.9,0.4,4.4c0,0-0.1,6.2-1.2,9.9s0.2-8.2,0.6-9.2 M536.4,94.1c0.5,1.3,0.3,2.3-0.4,3.2
				c-0.5,0.6-0.4,1.1-0.2,1.8c0.3,1.2,0.6,2.4,0.6,3.6c0,2-0.9,3.6-2.8,4.4c1.2,6.4,0.9,7.4-2.4,9.2c0.2,1.1,0.4,2.1,0.5,3.2
				c0.1,1.5-0.4,2.3-1.9,2.8c-0.8,0.3-0.9,0.7-0.7,1.4c0.2,0.7,0.4,1.4,0.4,2.1c0.2,2.4-1.2,3.6-3.5,2.9c-1.3-0.4-2.6-1.2-3.9-1.9
				c-0.4-0.2-0.7-0.4-1.1-0.7c-1.2,3-2.3,6-3.6,8.9c-2.9,6.6-6.5,12.8-11.4,18c-4.2,4.5-9.2,7.8-15.4,8.8c-5.5,0.9-10.8,0-16-1.7
				c-3.1-1-6.1-2.3-9.1-3.6c-0.8-0.3-1.2-0.3-1.9,0.3c-2.5,2.5-5.2,4.7-8.4,6.3c-3.2,1.5-6.5,2-9.9,0.8c-4-1.4-6.9-5.3-6.8-9.1
				c1.9-0.1,3.7-0.2,5.5-0.4c1-0.1,1.9-0.7,2.9-1c1.2-0.3,2.5-0.6,3.7-0.8c0.1,0.2,0.1,0.3,0.2,0.5c-1,0.7-1.9,1.4-3.1,2.3
				c2.1-0.4,3.8-0.8,5.1-2.2c0.4-0.4,1.1-0.4,1.8-0.5c-1.7,2.4-4,3.3-6.8,3.1c-1,0-2,0.2-3.1,0.2c-1.4,0-2.9,0-4.4,0
				c0.1,0.4,0.2,0.7,0.3,1c1.9,4.4,5.9,6.4,10.9,5.3c4.2-0.9,7.8-3,10.9-5.9c0.2-0.2,0.4-0.5,0.8-0.9c-1.2-0.3-2.3-0.6-3.4-0.9l0,0
				c-0.9-0.6-1.9-1.2-2.7-1.7c-1.6,1.3-2.9,2.6-4.5,3.5c-1.5,0.8-3.3,1.2-5,1.7c0-0.1-0.1-0.3-0.1-0.4c0.7-0.2,1.3-0.4,2-0.6
				c2.4-0.9,4.6-2,6.2-4.1c0.1-0.2,0.4-0.3,0.6-0.4c0,0-7.7-3.5-11.1-7.2c-6.4-3.3-13.2-4-20.1-2.6c-7.8,1-11.8,3.6-11.8,3.6
				c-0.6,0.3-1.2,0.5-1.7,0.8c-3,1.3-5.9,2.7-8.9,3.8c-3.1,1.1-6.1,0.9-9-0.7c-0.4-0.2-0.8-0.7-0.8-1.1c-0.1-4.2,1.5-7.8,3.3-11.6
				c1.3-1.2,2.9-5.8,2.9-5.8c6.8-10.2,5.7-20.5,0.3-30.9c2.4-1.5,4.8-1.5,7.3-0.9c3.9,1,7.4,3.1,10.6,5.5c5,3.8,9.8,7.8,14.7,11.7
				c4,3.2,8.1,6.2,12.8,8.4c2.8,1.3,5.8,2.1,8.9,1.5c0.7-0.1,1-0.4,1.2-1.1c1-4,2.9-7.4,6.4-9.9c-0.9-0.7-1.8-1.4-2.6-2.1
				c-9.9-8.1-19.6-16.5-28.1-26.1c-5.2-5.9-9.8-12.2-13.6-19.1c-0.3-0.5-0.7-1-1.2-1.2c-6.3-3.6-11.4-8.4-15.3-14.5
				c-1.9-2.9-3.9-5.8-5.8-8.8c-0.3-0.4-0.7-0.8-0.7-1.3c0-1.6,1-1.6,1-2.1c0.5-0.2,1-0.4,1.7-0.8c0,0-0.7-3.8-0.5-3.8
				c0.1-0.6,0.3-1.1,0.3-1.7c-0.1-1.2,0.7-1.8,1.5-2.4c3.6-2.6,7.6-4.3,11.9-5.1c8.1-1.7,16.1-0.8,24,1.4
				c15.5,4.2,29.8,11.2,43.2,19.8c8.8,5.7,17.4,11.9,25.3,18.7c2.2,1.9,4.7,2.9,7.3,4c6.9,2.9,13.7,5.8,19.9,10.1
				c1.2,0.8,2.4,1.7,3.5,2.7C533.2,83.3,534.9,87.7,536.4,94.1z M533.7,86.6c-3.1-4.3-7.7-6.5-12.2-8.7c-4.5-2.2-9.1-4.1-13.6-6.1
				c-0.1-0.1-0.3-0.1-0.4-0.1c1.4,2,2.7,4,4,6c1.3,1.9,3.3,2.9,5.3,3.7c4.3,1.6,8.1,4,11.6,6.8c0.3,0.2,0.6,0.5,1.1,0.9
				c-5.2-2.9-10.3-5.8-15.3-8.6c-0.1,0.1-0.2,0.1-0.2,0.2c0.1,0.3,0.2,0.7,0.4,1c0.9,1.8,1.8,3.7,2.7,5.5c0.2,0.4,0.7,0.7,1.2,0.9
				c3.2,1.6,6.4,3.3,9.1,5.7c0.7,0.6,1.3,1.4,1.9,2.2c-3.3-2.6-6.7-5.2-11.1-6.6c0.7,2.4,1.2,4.5,2,6.5c0.3,0.7,1.3,1,1.9,1.5
				c1.5,1.2,3.1,2.4,4.6,3.6c0.1,0.1,0.2,0.4,0.3,0.7c-2-1.2-3.9-2.3-5.8-3.4c-0.1,0.1-0.2,0.2-0.3,0.3c0.3,1.8,0.6,3.6,0.9,5.4
				c0.2,1.4,0.4,2.8,0.5,4.2c0,0.3-0.1,0.6-0.2,0.9l0,8.9c0.7,0.4,1.3,0.7,1.9,1.1c0.6,0.4,1.2,0.9,1.6,1.5c-1.1-0.5-2.1-1-3.3-1.6
				c-0.3,2-0.6,3.8-0.8,5.6c0,0.3,0.1,0.8,0.4,0.9c1.3,0.7,2.5,1.5,3.9,2c1.8,0.6,3.3-0.8,2.9-2.7c-0.2-0.7-0.4-1.4-0.7-2
				c2.9-2,3.5-4.1,1.8-7c1.8-0.7,2.8-2.1,3.3-3.9c0.4-1.8,0.2-3.5-0.9-5.1c1.6-0.8,2.8-2.1,2.9-3.9c0.1-1-0.3-2-0.4-3
				c0-0.5-0.1-1.1,0-1.5C535.3,93.8,533.7,86.6,533.7,86.6z M420.5,141.9c7.8-2.8,15.4-4.4,23,0c0.2-1.6-0.4-2.7-1.9-3.3
				c-2.5-0.9-5.1-1.8-7.8-2.4c-3.3-0.8-6.7-1.2-10.1-1.8c6.7-0.1,13.1,0.9,19.2,4.3c-0.1-4,2.6-5.9,5.4-8c-4.5-0.9-8.7-2.2-12.6-4.2
				c4,0.8,8,1.9,12.3,1.9c-0.2-0.2-0.2-0.3-0.3-0.4c-7.1-2.5-12.9-6.9-18.7-11.4c-4.7-3.7-9.4-7.4-14.3-10.9c-3-2.2-6.4-4-10.1-4.7
				c-1.2-0.2-2.5-0.2-3.7-0.3c0,0.1-0.1,0.2-0.1,0.3c0.6,0.7,1.3,1.3,1.8,2c1,1.3,1.9,2.6,2.9,3.8c0.7,0.9,1.4,1.7,2.1,2.6l0,0
				c-0.2,0.1-0.5,0.3-0.5,0.3c0.3,1,0.5,1.9,0.9,2.8c0.1,0.3,0.7,0.5,1,0.6c6.2,1.4,11.8,4.2,17.5,7.5c-6.2-2.6-12.1-5.1-18.1-7.7
				c-0.3,3.3-0.5,6.3-0.8,9.5c5.4,0,11,0,16.7,0c-4.7-2.7-9.9-4.1-14.9-5.7c6.5,0.6,12.2,3.3,17.8,6.6c-3,0-5.8,0.1-8.6,0
				c-3.5-0.1-6.9-0.4-10.4-0.6c-0.4,0-0.9,0.2-1,0.4c-0.8,1.7-1.4,3.5-2,5.5c7.5-3.7,15-4,22.7-1.1c-1.5-0.2-3.1-0.5-4.6-0.7
				c-5.8-0.7-11.4,0.4-16.9,1.8c-1.3,0.3-2.2,1.1-2.6,2.4c-0.3,0.8-0.7,1.5-1.2,2.4l-3.1,5.6c-0.1,0.4-0.2,0.8-0.3,1.3
				c0.6-0.3,1-0.6,1.4-0.8c0.1,0.1,0.1,0.2,0.2,0.3c-0.9,0.8-1.9,1.5-2.6,2.4c-0.8,0.9-1.3,2.1-2,3.3c0.6-0.1,0.8-0.1,1-0.2
				c0,0,0,0,0,0c-0.6,0.8-1.4,1.5-1.9,2.4c-0.5,0.8-0.3,1.3,0.7,1.5c1.9,0.4,3.8,0.2,5.7-0.4c2.9-1,5.7-2,8.5-3.2L420.5,141.9z
				 M468.1,143.6c-2.3-7.8-3.2-15.5,1.1-23.2c-1-0.3-1.9-0.6-2.8-0.8l0,0c-0.9-0.8-1.8-1.5-2.8-2.4c-4.2,5-5.3,10.7-5.2,16.8
				c-0.8-1.6-0.5-6,0.1-9c0.7-3.1,2.6-5.5,4.5-7.9c-0.1-0.1-0.2-0.2-0.4-0.4c-0.8,0.6-1.7,1.1-2.4,1.8c-2.8,2.9-4.2,6.5-4.2,10.4
				c0,3.3,0.6,6.6,1,9.8c0.1,0.4,0.5,1,0.9,1.2c2.8,1.2,5.5,2.2,8.3,3.3c0.2,0.1,0.4,0.1,0.8,0.3 M425.6,72.2
				c-2.9-3-4.3-6.4-4.5-10.2c0-0.2-0.2-0.5-0.3-0.6c-1.4-0.7-2.8-1.4-4.2-2.1C416.6,64.8,420.6,70.6,425.6,72.2z M434.3,73.6
				c-0.9-1.2-2-2.4-2.8-3.7c-0.8-1.3-1.5-2.7-1.9-4.2c-0.5-1.8-1.7-2.1-3.2-2.4c-0.3,3.5,1.7,7.5,5,10.1
				C432.8,74.6,432.8,74.6,434.3,73.6z M430,64.2c0,0.2-0.1,0.3-0.1,0.5c0,0.3,0.1,0.5,0.1,0.8c0.7,2.9,2.6,5.2,4.4,7.4
				c0.2,0.2,0.6,0.3,0.8,0.3c1.1-0.1,2.2-0.2,3.3-0.3c-1.8-1.3-3.1-2.9-4-4.9c-0.4-0.9-0.9-1.8-1.4-2.6c-0.1-0.3-0.4-0.5-0.7-0.6
				C431.7,64.5,430.8,64.4,430,64.2z M431,74.1c-4.1-4.3-4.3-4.8-5.7-10.3c-0.1-0.2-0.1-0.6-0.3-0.6c-1-0.4-2-0.7-3-1
				C421.8,67.1,426,72.6,431,74.1z"/>
			<path class="st14" d="M462.8,75.5c2.1-1.4,3.3-3.2,4-5.5c4.6,5.5,10.4,5.7,16.7,4.5c1.1-0.2,2.1-0.4,3.2-0.7
				c1.2-0.3,1.9,0.2,2.3,1.2c0.3,1,0.4,2,0.8,3c0.4,1.1,0.8,2.2,1.3,3.2c0.7,1.2,1.6,2.3,2.2,3.5c1.3,2.7,0.1,4.7-2.9,4.9
				c-3.9,0.3-7.6-0.9-11.1-2.4C472.9,84.6,467.7,80.2,462.8,75.5z M489.8,84.4c0,0.1,0,0.2,0,0.3c-0.7,0-1.4,0-2.1,0
				c-6.5-0.3-12.3-2.8-17.6-6.4c-1.4-1-2.8-2-4.2-2.9c-0.7-0.5-1.3-0.4-1.7,0.4c0.1,0.1,0.1,0.2,0.1,0.2c6,4.7,12.2,9,19.6,11.4
				c2.6,0.9,5.3,1.4,8.1,1c0.9-0.1,1.5-0.5,1-1.5c-0.7-1.6-1.3-3.1-2.2-4.6c-1-1.7-1.7-3.4-1.9-5.4c-0.1-0.6-0.3-1.2-0.5-1.8
				c-0.3-0.7-0.7-1-1.6-0.7c-1.2,0.4-2.4,0.7-3.6,1c-5.4,1.1-10.5,1-14.8-3.1c-0.3-0.3-0.8-0.4-1.2-0.7c-0.6,1-0.3,1.5,0.6,2
				c3.7,2.1,7.6,3.7,11.8,4.6c1.7,0.4,3.4,0.5,5.1,0.8c-5.9,0.4-11.4-1-16.5-4.2c-0.6-0.4-1.2-0.7-1.8-1.1c-0.1,0.2-0.1,0.3-0.2,0.5
				C472.8,80.2,481,82.9,489.8,84.4z"/>
			<path class="st14" d="M453.5,46.5c2.5,3.1,4.7,6.4,4.6,10.6c-0.2,5.6-4.6,8.8-10.1,7.3c-2.3-0.6-4.2-1.9-6-4
				c0.8,0.3,1.4,0.5,2,0.6c1.7,0.4,3.5,1,5.3,1c3.6,0,6.1-2.7,6.1-6.5c0-2.1-0.6-4.2-1-6.2C454.1,48.4,453.8,47.5,453.5,46.5z"/>
			<path class="st14" d="M450.6,70c1-0.2,2.1-0.4,3.1-0.7c6.8-1.5,8.6-7.2,8-11.7c-0.4-3-1.5-5.8-2.3-8.7c-0.1-0.4-0.3-0.7-0.3-1.1
				c2.7,4.3,5,8.7,4.7,14c-0.3,5.2-3.8,8.7-9.1,8.7c-1.4,0-2.8-0.1-4.2-0.2C450.5,70.2,450.6,70.1,450.6,70z"/>
			<path class="st14" d="M466,61.2c0.2,0.9,0.5,1.8,0.5,2.7c0.1,3.5-0.8,6.8-3.1,9.6c-2.4,2.8-6.3,3.1-9,0.7
				c0.7-0.1,1.3-0.2,1.8-0.2c2.6,0.2,4.6-1,6.2-3c2.1-2.6,3-5.7,3.2-9c0-0.3,0-0.5,0.1-0.8C465.8,61.2,465.9,61.2,466,61.2z"/>
			<path class="st14" d="M437.8,43.9c-2.6-0.1-4.9-2.2-4.7-4.4c0.1-1.6,1.6-3.1,3.1-2.7c1.3,0.3,2.6,0.8,3.7,1.5
				c1.3,0.8,1.6,2.2,1.1,3.5C440.5,43.3,439.4,44,437.8,43.9z M436.9,38.3c-1.1,0-1.9,0.7-1.9,1.7c0,1,1.2,2,2.2,2
				c0.9,0,1.7-0.9,1.7-1.9C438.9,39,438.1,38.3,436.9,38.3z"/>
			<path class="st14" d="M484.3,152.4c0.9-2.4,1.8-4.9,2.8-7.3c0.2-0.5,0.7-0.8,1.2-1.1c-0.8,3.7-1.4,7.4-4.5,9.8
				c-1.7-2.1-3.3-4-5-6.2c0.7,0,1.3,0.1,2.1,0.1c0.2-0.2,0.6-0.7,1-1.3c0.1,0.3,0.2,0.4,0.2,0.4c-1,1.2-0.8,2.2,0.2,3.3
				c0.7,0.7,1.1,1.6,1.6,2.3C484,152.4,484.1,152.4,484.3,152.4z"/>
			<path class="st14" d="M427.2,130.6c-1.4,0.7-2.9,1.5-4.4,2.3c-0.3,0.1-0.6,0.3-0.9,0.3c-5-0.4-9.6,0.9-14,2.9
				c-0.8,0.4-1.3,0.1-2-0.5c2.9-1.6,5.8-2.6,9-3c2-0.3,4-0.3,6-0.3c1,0,1.7-0.1,2.5-0.8C424.6,130.6,425.9,130.2,427.2,130.6z"/>
			<path class="st14" d="M407.4,109.5c0.4,0,0.8-0.1,1.2-0.1c6.2,1.6,11.9,4.1,17,7.9c0.1,0.1,0.2,0.2,0.3,0.5
				c-1.6-0.8-3.1-1.8-4.7-2.5c-4.3-1.9-8.6-3.8-12.9-5.7C408,109.6,407.7,109.6,407.4,109.5C407.4,109.5,407.4,109.5,407.4,109.5z"
				/>
			<path class="st14" d="M509.4,91.7c-0.2,0.6-0.3,1.3-0.6,1.8c-0.2,0.4-0.7,0.9-1.1,0.9c-0.4,0-0.9-0.5-1.1-0.9
				c-0.5-0.8-0.1-3.2,0.7-3.6c0.4-0.2,1.2,0,1.5,0.3C509.1,90.4,509.2,91.1,509.4,91.7z"/>
			<path class="st14" d="M513.1,97c-1.3-1.1-1-4,0.5-4.7c0.6-0.3,0.9-0.1,1,0.5C515.1,94.3,514.4,96.2,513.1,97z"/>
			<path class="st14" d="M501.9,78.6c0,1.6-0.8,2.9-1.6,2.8c-1-0.1-1.2-0.9-1.2-1.8c0-1.2,0.8-2.2,1.7-2.2
				C501.7,77.5,501.9,78.2,501.9,78.6z"/>
			<path class="st14" d="M482,62.6c-0.2,0.8-0.1,1.9-1.2,2.2c-0.7,0.1-1.4-1-1.4-2.1c0-1.1,0.6-2.2,1.3-2.1
				C481.9,60.7,481.8,61.7,482,62.6z"/>
			<path class="st14" d="M466.4,119.6c-0.7,1.7-1.6,3.4-2.1,5.1c-0.6,2.4-1,4.8-1.4,7c-0.2-3.6,0.1-7.3,2.3-10.7
				C465.5,120.6,466,120.1,466.4,119.6C466.4,119.7,466.4,119.6,466.4,119.6z"/>
			<path class="st14" d="M491.8,68.7c-0.1,0.2-0.4,0.8-0.9,1c-0.6,0.2-1.6-1.1-1.4-2c0.1-0.5,0.5-1.2,1-1.4
				C491.1,66.1,491.8,67.1,491.8,68.7z"/>
			<path class="st14" d="M517.1,104.7c-0.6,0.8-1.1,1.5-1.6,2.2c-0.1,0.1-0.7-0.1-0.7-0.2c0-0.8-0.1-1.7,0.1-2.5
				c0.1-0.4,0.8-0.6,1.2-0.9C516.4,103.6,516.7,104.1,517.1,104.7z"/>
			<path class="st14" d="M459.8,154.3c-3,2.3-5.3,3.3-9.9,4c0.8-0.4,1.7-0.7,2.5-1.1c2.3-1,4.5-1.9,6.8-2.9
				C459.4,154.3,459.6,154.3,459.8,154.3C459.8,154.3,459.8,154.3,459.8,154.3z"/>
			<path class="st14" d="M415.1,33.3c0.6,0.4,1,0.8,1.6,0.9c0.2,0,0.6-0.7,0.9-1.2c0.7,0.3,1.3,0.9,0.9,1.9
				c-0.3,0.9-1.2,0.9-1.9,0.7C415.4,35.4,415,34.6,415.1,33.3z"/>
			<path class="st14" d="M497,72c-0.6,0.8-1.1,1.5-1.6,2.1c-0.4-0.6-0.9-1.1-1-1.7c-0.1-0.8,0.2-1.7,1.2-1.7
				C496,70.7,496.4,71.4,497,72z"/>
			<path class="st14" d="M506.5,82.9c0.6-0.8,1-1.3,1.5-1.9c0.4,0.6,1,1.1,1,1.7c-0.1,0.7-0.7,1.3-1.1,1.9
				C507.5,84,507.1,83.5,506.5,82.9z"/>
			<path class="st14" d="M473.4,56.7c0.2-0.2,0.6-0.9,1.1-0.9c0.9-0.1,1.3,0.7,1.2,1.5c-0.1,0.6-0.5,1.3-0.9,1.5
				C474.1,59.1,473.4,58.1,473.4,56.7z"/>
			<path class="st14" d="M460,130.5c-0.3-3.3,1.1-8.1,3.4-11.1c-0.7,1.9-1.6,3.7-2.1,5.5C460.7,126.8,460.4,128.8,460,130.5z"/>
			<path class="st14" d="M396.9,145.6c1.6-1.9,5.8-4.4,6.8-3.8C401.3,143.1,399.1,144.4,396.9,145.6
				C396.8,145.6,396.9,145.6,396.9,145.6z"/>
			<path class="st14" d="M472.2,50.1c-0.6,0.6-1,1-1.4,1.4c-0.3-0.5-0.8-1-0.8-1.5c0-0.4,0.5-0.8,0.8-1.3
				C471.1,49.2,471.6,49.6,472.2,50.1z"/>
			<path class="st14" d="M504,74.2c-0.4,0.6-0.7,1.2-1,1.8c0,0.1-0.6-0.1-0.6-0.1c0-0.7-0.1-1.4,0-2c0.1-0.3,0.6-0.5,0.9-0.8
				C503.5,73.3,503.7,73.7,504,74.2z"/>
			<path class="st14" d="M513.1,114.5c-1.1-1.1-0.9-2.5,0-3c0.7-0.4,1,0.2,0.9,0.6C513.9,112.9,513.4,113.7,513.1,114.5z"/>
			<path class="st14" d="M501.6,93.8c0.5-0.6,1-1,1.4-1.5c0.2,0.4,0.7,0.9,0.6,1.2c-0.2,0.6-0.7,1.1-1.1,1.6
				C502.3,94.8,502,94.5,501.6,93.8z"/>
			<path class="st14" d="M453.4,158.8c2.1-0.8,4.5-1.7,6.7-2.5C458.3,158.1,456,159.1,453.4,158.8z"/>
			<path class="st14" d="M511.8,128.9c0.5,1.4,0,2.3-1.4,2.9C509.8,130.7,510.2,129.7,511.8,128.9z"/>
			<path class="st14" d="M453.2,53.1c-0.5,0.6-0.8,1-1.1,1.4c-0.3-0.5-0.8-0.9-0.9-1.4c-0.1-0.3,0.5-0.8,0.7-1.2
				C452.3,52.2,452.6,52.6,453.2,53.1z"/>
			<path class="st14" d="M449.2,51.5c-0.5,0.5-0.8,0.9-1.1,1.3c-0.3-0.4-0.8-0.8-0.8-1.2c0-0.5,0.5-0.9,0.8-1.3
				C448.4,50.6,448.7,51,449.2,51.5z"/>
			<path class="st14" d="M485.6,61.8c-1.2-0.9-1.3-1.6-0.3-2.8C486.5,59.6,486.6,60.4,485.6,61.8z"/>
			<path class="st14" d="M449.8,39.9c0,0,0.1,0,0.1,0c0.8,0.8,0.4,1.5-0.1,2.2c-0.1,0.1-0.5,0.1-0.7,0
				C448.6,41.6,449,40.5,449.8,39.9z"/>
			<path class="st14" d="M450.6,48.8c-0.9-0.7-1-1.3-0.3-2.5C451.3,46.9,451.4,47.7,450.6,48.8z"/>
			<path class="st14" d="M472.9,142.1c0.9,1.4,6.4,6.1,6.4,6.1l1.5-0.7l-6.5-6.1L472.9,142.1z"/>
		</g>
	</g>
</g>
</svg>
