<svg id="Capa_1" data-name="Capa 1" xmlns="http://www.w3.org/2000/svg" viewBox="0 0 925 263"><defs><style>.cls-1{fill:#ed1c24;}</style></defs><title>logo_clientes_</title><path class="cls-1" d="M544.62,195H511.94c-5.59,0-4.37-5.31-4.37-5.31l1.57-10.2s.4-4.52,4.92-4.52h30.56c10.48,0,15.79-1.76,15.79-7.41,0-7.06-7.74-6.52-12-6.52-8.16,0-33.55,2.54-33.55-25.93,0-27.44,29-27.44,36.59-27.44h29.11c4.13,0,3.25,4.61,3.25,4.61l-2.13,11.06a5.52,5.52,0,0,1-5.61,4.36H551.41c-3.62,0-15.79-1.6-15.79,7.41,0,7.23,8.7,5.92,12.14,5.92,10.19,0,33.45-.36,33.45,26.53C581.21,195,553.7,195,544.62,195Z"/><path class="cls-1" d="M468.23,195H435.55c-5.59,0-4.37-5.31-4.37-5.31l1.57-10.2s.39-4.52,4.92-4.52h30.56c10.48,0,15.79-1.76,15.79-7.41,0-7.06-7.74-6.52-12-6.52-8.17,0-33.56,2.54-33.56-25.93,0-27.44,29-27.44,36.6-27.44h29.11c4.13,0,3.25,4.61,3.25,4.61l-2.13,11.06a5.51,5.51,0,0,1-5.61,4.36H475c-3.62,0-15.8-1.6-15.8,7.41,0,7.23,8.71,5.92,12.16,5.92,10.18,0,33.44-.36,33.44,26.53C504.82,195,477.31,195,468.23,195Z"/><path class="cls-1" d="M355.41,196a4.84,4.84,0,0,1-3.73-1.68,4.92,4.92,0,0,1-1-4.05l14.13-74.9c.43-2.42,2.29-4.12,5.54-5l11.06-2.62h.2a4.84,4.84,0,0,1,3.74,1.69,4.94,4.94,0,0,1,1,4l-.52,3c7-6.54,14.37-9.85,21.94-9.85,16.55,0,25.3,10.81,25.3,31.25a56.08,56.08,0,0,1-9.33,30c-5.39,7.87-15.43,17.26-32.63,17.26a25.5,25.5,0,0,1-16.48-5.7l-2.86,11.54a6.29,6.29,0,0,1-6,5.1Zm45.2-69.12c-6.52,0-17.69,6.2-18.7,11.57-1,5.22-1.27,6.82-2,11.09-.45,2.65-1.09,6.33-2.19,12.53a1,1,0,0,0,.19.94c1.52,1.81,8.23,1.81,11.1,1.81h.37c17.39,0,21.82-14.52,22.92-20.77s.45-10.8-1.92-13.63C408.39,128.06,405.11,126.87,400.61,126.87Z"/><path class="cls-1" d="M698.8,124.92a3.48,3.48,0,0,1-3.28,2.79h-91a2.27,2.27,0,0,1-2.29-2.79l2.54-14.46a3.48,3.48,0,0,1,3.28-2.78h91a2.26,2.26,0,0,1,2.29,2.78Z"/><path class="cls-1" d="M718.94,158.82a3.46,3.46,0,0,1-3.28,2.78H600.13a2.26,2.26,0,0,1-2.29-2.78l2.55-14.45a3.46,3.46,0,0,1,3.27-2.79H719.2a2.28,2.28,0,0,1,2.29,2.79Z"/><path class="cls-1" d="M738.59,192.72a3.46,3.46,0,0,1-3.28,2.78H594.23a2.27,2.27,0,0,1-2.29-2.78l2.55-14.46a3.47,3.47,0,0,1,3.28-2.78H738.85a2.27,2.27,0,0,1,2.29,2.78Z"/><path class="cls-1" d="M248.52,124.92a2.25,2.25,0,0,0,2.26,2.79h91a3.52,3.52,0,0,0,3.31-2.79l2.71-14.46a2.24,2.24,0,0,0-2.26-2.78h-91a3.52,3.52,0,0,0-3.31,2.78Z"/><path class="cls-1" d="M216,158.82a2.24,2.24,0,0,0,2.26,2.78H333.83a3.5,3.5,0,0,0,3.31-2.78l2.72-14.45a2.26,2.26,0,0,0-2.27-2.79H222.06a3.52,3.52,0,0,0-3.31,2.79Z"/><path class="cls-1" d="M184.05,192.72a2.24,2.24,0,0,0,2.26,2.78H327.39a3.51,3.51,0,0,0,3.31-2.78l2.71-14.46a2.25,2.25,0,0,0-2.26-2.78H190.07a3.52,3.52,0,0,0-3.31,2.78Z"/></svg>