<?xml version="1.0" encoding="utf-8"?>
<!-- Generator: Adobe Illustrator 23.0.0, SVG Export Plug-In . SVG Version: 6.00 Build 0)  -->
<svg version="1.1" id="Capa_1" xmlns="http://www.w3.org/2000/svg" xmlns:xlink="http://www.w3.org/1999/xlink" x="0px" y="0px"
	 viewBox="0 0 963 263" style="enable-background:new 0 0 963 263;" xml:space="preserve">
<style type="text/css">
	.st0{fill:#D68E35;}
	.st1{fill:#666565;}
	.st2{opacity:0.9;}
	.st3{clip-path:url(#SVGID_2_);}
	.st4{clip-path:url(#SVGID_4_);fill:url(#SVGID_5_);}
	.st5{fill:#326387;}
	.st6{fill:#A02C56;}
	.st7{fill:none;stroke:#376E9A;stroke-miterlimit:10;}
	.st8{fill:#C0272D;}
	.st9{fill:#ED1C24;}
	.st10{fill:#00C2BE;}
	.st11{fill:#333333;}
</style>
<g>
	<path class="st10" d="M286,71.2h39.5v19.6h-19.9v99.3h19.9v20H286V71.2z"/>
	<path class="st10" d="M633.5,169.7l16.2,16.2l16-16l10.9,10.9l-16,16l16.2,16.2l-10.8,10.8l-16.2-16.2l-15.9,15.9l-10.9-10.9
		l15.9-15.9l-16.2-16.2L633.5,169.7z"/>
	<g>
		<path class="st11" d="M336.4,155.2c2.1,2.1,4.8,3.9,8,5.3c3.2,1.4,6.9,2.1,11,2.1c3.7,0,6.6-0.5,8.8-1.4s3.3-2.5,3.3-4.8
			c0-0.9-0.2-1.9-0.6-2.7s-1.2-1.6-2.5-2.4c-1.2-0.8-3-1.5-5.2-2.3c-2.2-0.8-5.2-1.6-9-2.5c-2.3-0.6-4.7-1.4-7.2-2.3
			c-2.5-0.9-4.8-2.3-7-4s-4-3.7-5.3-6.1c-1.4-2.4-2.1-5.1-2.1-8.4c0-3.4,0.8-6.4,2.5-9c1.7-2.7,3.8-4.8,6.4-6.6
			c2.7-1.8,5.6-3.2,9-4.1c3.3-0.9,6.6-1.4,10-1.4c5.9,0,11,0.6,15.2,1.9c4.2,1.2,7.9,3.1,11.3,5.6l-8.8,12c-1.8-1.4-4.3-2.6-7.2-3.7
			c-3-1.1-6.5-1.7-10.5-1.7c-4,0-6.9,0.6-8.4,1.8c-1.6,1.2-2.4,2.7-2.4,4.4c0,2.1,1.3,3.8,4,5c2.7,1.2,6.7,2.5,12.3,3.8
			c3.5,0.8,6.6,1.7,9.3,2.9s5.1,2.6,7.1,4.3c1.9,1.7,3.5,3.8,4.5,6.1c1.1,2.4,1.6,5.2,1.6,8.4s-0.8,6.2-2.3,8.9s-3.6,4.9-6.3,6.7
			c-2.7,1.8-5.7,3.2-9.2,4.3s-7.2,1.5-11.2,1.5c-6.4,0-12.1-0.9-17.1-2.7c-5.1-1.8-9.2-4.4-12.3-7.9L336.4,155.2z"/>
		<path class="st11" d="M459,164.6c-0.3,0.3-1.1,1.1-2.4,2.4c-1.3,1.3-3.2,2.7-5.6,4.1s-5.6,2.7-9.4,3.9s-8.3,1.7-13.6,1.7
			c-5.4,0-10.3-0.9-14.7-2.7c-4.4-1.8-8.2-4.3-11.3-7.6c-3.1-3.2-5.6-7.1-7.2-11.6c-1.7-4.5-2.5-9.5-2.5-15c0-5,0.9-9.6,2.5-13.9
			c1.7-4.3,4-8,7.1-11.2c3-3.2,6.6-5.6,10.8-7.5c4.2-1.8,8.8-2.7,13.9-2.7c6.1,0,11.3,1.2,15.6,3.4c4.3,2.2,7.7,5.2,10.3,8.9
			c2.6,3.7,4.5,7.8,5.6,12.4c1.2,4.6,1.7,9.3,1.7,14.2v2.5h-50.4c0,2.5,0.6,4.8,1.7,6.8s2.5,3.8,4.3,5.2c1.8,1.4,3.8,2.5,6.1,3.3
			c2.2,0.8,4.5,1.2,6.7,1.2c3.2,0,6.1-0.3,8.6-0.9c2.5-0.6,4.5-1.4,6.3-2.2c1.7-0.8,3.2-1.7,4.3-2.6c1.1-0.9,1.9-1.7,2.5-2.2
			L459,164.6z M442.5,133.5c0-1.7-0.4-3.5-1-5.2c-0.6-1.7-1.7-3.3-3-4.7c-1.3-1.4-3-2.5-5-3.5c-2-0.9-4.3-1.4-6.9-1.4
			c-2.8,0-5.3,0.4-7.4,1.4c-2.2,0.9-4,2.1-5.4,3.5c-1.4,1.4-2.5,3-3.3,4.7c-0.8,1.7-1.2,3.5-1.2,5.2H442.5z"/>
		<path class="st11" d="M470.1,106.8h16.2l0.4,7.7c0.9-0.9,1.9-1.9,3.1-3c1.2-1.1,2.7-2,4.3-3c1.7-0.9,3.6-1.7,5.7-2.2
			c2.1-0.6,4.5-0.9,7.2-0.9c8.4,0,14.9,2.5,19.3,7.6c4.4,5.1,6.6,11.8,6.6,20.4v41.1h-17v-40.9c0-4.3-1.2-7.7-3.5-10
			c-2.4-2.4-5.4-3.5-9.2-3.5c-2.3,0-4.5,0.4-6.5,1.4c-2,0.9-3.8,2.2-5.2,3.8s-2.6,3.5-3.4,5.7c-0.8,2.2-1.2,4.5-1.2,7v36.6h-17
			V106.8L470.1,106.8z"/>
		<path class="st11" d="M586.5,168.1c-1.8,2.2-4.6,4.2-8.4,5.9c-3.8,1.7-7.9,2.6-12.6,2.6c-2.8,0-5.6-0.4-8.3-1.3
			c-2.7-0.9-5.3-2.2-7.5-4c-2.2-1.8-4.1-4-5.5-6.9c-1.4-2.8-2.1-6.1-2.1-9.8c0-3.8,0.7-7.3,2.2-10.3c1.4-3,3.5-5.6,6.1-7.7
			c2.6-2.1,5.7-3.6,9.4-4.7c3.7-1.1,7.7-1.6,12.1-1.6c1.4,0,2.8,0,4.5,0.1s3.2,0.1,4.8,0.2c1.7,0.1,3.5,0.2,5.3,0.3v-1.5
			c0-3.4-1.4-6-4-7.9c-2.7-1.9-6.2-2.9-10.5-2.9c-4.8,0-8.7,0.6-11.6,1.9s-5.4,2.6-7.7,4l-7.8-11.6c1.4-0.9,2.9-1.9,4.6-3
			c1.7-1,3.8-1.9,6.1-2.7c2.3-0.8,5-1.5,8-2c3-0.5,6.6-0.8,10.6-0.8c4.3,0,8.2,0.6,11.8,1.8c3.5,1.2,6.5,2.9,9,5.1
			c2.5,2.2,4.4,4.8,5.8,7.8c1.4,3,2,6.3,2,9.9v45.4H587L586.5,168.1z M586.5,143.9c-1.7-0.1-3.4-0.2-5.1-0.3
			c-1.4-0.1-2.7-0.1-4.3-0.2s-2.7-0.1-3.8-0.1c-5.5,0-9.3,1.1-11.6,3.2c-2.2,2.2-3.3,4.6-3.3,7.4c0,2.9,1,5.1,3.1,6.8
			c2.1,1.7,5.1,2.5,9.2,2.5c2,0,4-0.4,5.8-1c1.9-0.6,3.5-1.6,5-2.7c1.4-1.2,2.6-2.5,3.5-4c0.9-1.5,1.4-3.2,1.4-4.9V143.9z"/>
	</g>
</g>
</svg>
