<svg id="Capa_1" data-name="Capa 1" xmlns="http://www.w3.org/2000/svg" viewBox="0 0 963 263"><defs><style>.cls-1{fill:#c0272d;}</style></defs><title>logo_clientes_</title><path class="cls-1" d="M394.5,203.49h-5.06l-1.67,7.92H394a4.25,4.25,0,0,0,4.53-4.4C398.5,204.78,397.43,203.49,394.5,203.49Z"/><path class="cls-1" d="M418.07,111.22c-6.92,0-9,6.32-14,29.75s-5.58,29.74,1.34,29.74,9-6.31,14-29.74S425,111.22,418.07,111.22Z"/><path class="cls-1" d="M423.31,202.92c-5.6,0-8.84,5.44-8.84,11.42,0,5.13,2.8,7,6.42,7,6.2,0,8.87-7.11,8.87-11.48C429.76,205.75,428,202.92,423.31,202.92Z"/><path class="cls-1" d="M348.87,113.89h-4.49L332.85,168h4.49C346.08,168,348,164.4,353,141S357.61,113.89,348.87,113.89Z"/><path class="cls-1" d="M455.77,203.49H450l-1.66,7.7h6.76c2.83,0,5.25-1.16,5.25-4.34C460.3,203.93,458.2,203.49,455.77,203.49Z"/><path class="cls-1" d="M780.77,92a12.87,12.87,0,0,0-11.58-7.26h-24a12.9,12.9,0,0,0-8.5,3.2,12.9,12.9,0,0,0-8.5-3.2H705.57a12.88,12.88,0,0,0-9.63,4.33c-6-4-13.85-6-23.51-6-10.36,0-19,2.07-26.21,6.29a12.86,12.86,0,0,0-9.85-4.59H613.79A12.78,12.78,0,0,0,607,86.7a12.93,12.93,0,0,0-6.8-1.94H577.61a12.89,12.89,0,0,0-10.41,5.29c-5.34-3.51-12.22-5.29-20.55-5.29H511.32a12.86,12.86,0,0,1-2.68,0H452.07a12.84,12.84,0,0,0-8.64,3.33c-5.75-3.37-13.06-5-22.08-5-14.9,0-26.38,4.48-35,13.7-.22-.3-.45-.6-.69-.89-6-7.37-15.22-11.11-27.52-11.11H325.32a12.85,12.85,0,0,0-10.72,5.75c-6.19-5-14.62-7.45-25.58-7.45-8.86,0-16.51,1.58-23.07,4.8a12.91,12.91,0,0,0-8.38-3.1H201a12.85,12.85,0,0,0-12.57,10.16l-4.13,19.18a12.88,12.88,0,0,0,12.58,15.58H198l-11,52a12.87,12.87,0,0,0,12.59,15.54h22.58A12.87,12.87,0,0,0,234.71,187l1.34-6.33a29.36,29.36,0,0,0,4,6.57c6.35,7.84,16.1,11.66,29.79,11.66,10.56,0,19.41-2.26,26.74-6.85.1.13.2.25.29.38a12.91,12.91,0,0,0,10,4.77h8.51v33a3.27,3.27,0,0,0,3.27,3.27H647.41a3.28,3.28,0,0,0,3.27-3.27V198.84c.88,0,1.74,0,2.56,0,9.35,0,17.56-2,24.47-5.79a12.88,12.88,0,0,0,9.41,4.09H709.7a12.84,12.84,0,0,0,9-3.66,12.87,12.87,0,0,0,9,3.66H753.4a12.87,12.87,0,0,0,12.36-16.47l-12.35-42.42,25.87-32.68A12.87,12.87,0,0,0,780.77,92ZM577.61,97.63h22.58l-13.36,62.52c-1.7,8.38.37,10.56,4.62,10.56s7.28-2.18,9-10.56l13.36-62.52h22.58l-12.14,56.81c-5.1,24.28-17.12,31.57-36.06,31.57s-27.8-7.29-22.7-31.57ZM236.45,116.81l-14.33,67.5H199.54l14.32-67.5h-17L201,97.63h56.58l-4.13,19.18ZM269.83,186c-23.06,0-28.28-12.63-21.37-45s17.49-45,40.56-45,28.28,12.62,21.36,45S292.9,186,269.83,186Zm63.31,37.42h-3l4.78-22.59h3Zm35.23,0h-3l4.53-19.76h-.07l-10.5,19.76h-3.4l-2.33-19.38h-.06l-3.81,19.38h-3l4.78-22.59h4.28L358.14,220h.07l10.28-19.19h4.66Zm-28.73-39.12H306.87l18.45-86.68H358.1c26.1,0,23.06,20.64,18.21,43.34S365.75,184.31,339.64,184.31Zm54.77,29.75h-7.2l-2,9.37h-3L387,200.84h7.77c4.46,0,6.76,2.11,6.76,5.73C401.52,210.34,399.35,214.06,394.41,214.06ZM420.64,224c-5.47,0-9.19-3.28-9.19-9.79,0-7.23,4.44-13.93,12.34-13.93,5.78,0,9,3.77,9,9.25C432.78,217.3,428.13,224,420.64,224Zm-18.47-38c-23.07,0-28.29-12.63-21.37-45s17.49-45,40.55-45,28.29,12.62,21.37,45S425.24,186,402.17,186Zm56.94,26.79c1.6.82,1.73,1.95,1.73,3.65,0,.69-.22,4.24-.22,4.43,0,1.2.06,1.89.69,2v.54h-3.55a3.48,3.48,0,0,1-.23-1.38c0-.79.29-4.25.29-4.94,0-3.24-1.61-3.37-4.22-3.37h-5.82l-2.07,9.69h-3l4.75-22.59h8.9c3.65,0,6.92,1.39,6.92,5.73A6.56,6.56,0,0,1,459.11,212.8Zm-8.5-28.49,14.33-67.5h-17l4.13-19.18h56.57l-4.12,19.18h-17l-14.32,67.5Zm39,19.18h-6.17l-4.4,19.94h-3l4.4-19.94h-7l.56-2.65h16.23Zm19.06,19.94-1-6.51h-9.15l-3.3,6.51h-3.4l12.3-22.59H508l3.71,22.59Zm-15.85-39.12,18.46-86.68h35.33c17.24,0,21.73,9.71,18.81,23.06-2.42,11.54-8.49,19.06-19.18,20.64v.25c10.69,1,12.51,7.89,10.08,19.42l-1.58,7.41c-1,4.49-2.18,10.31-1.46,12a4.08,4.08,0,0,0,1.95,2.68l-.25,1.21H531c-1.21-4.61.61-12.87,1.34-16.51l1.21-5.83c2.07-9.83.73-12.38-4.73-12.38h-5.95l-7.41,34.72Zm37.93,39.12h-8.31l4.94-22.59h6.8c2.7,0,5.53.41,7.45,3.18a11,11,0,0,1,1.61,6.17C543.28,214.68,540.66,223.43,530.79,223.43Zm32,.57c-5.48,0-9.19-3.28-9.19-9.79,0-7.23,4.44-13.93,12.33-13.93,5.79,0,9,3.77,9,9.25C575,217.3,570.29,224,562.81,224Zm38.46-11.2c1.61.82,1.73,1.95,1.73,3.65,0,.69-.22,4.24-.22,4.43,0,1.2.07,1.89.7,2v.54h-3.56a3.71,3.71,0,0,1-.22-1.38c0-.79.28-4.25.28-4.94,0-3.24-1.6-3.37-4.21-3.37H590l-2.08,9.69h-3l4.75-22.59h8.9c3.65,0,6.92,1.39,6.92,5.73A6.55,6.55,0,0,1,601.27,212.8Zm28.5,10.63-1-6.51h-9.15l-3.3,6.51h-3.4l12.3-22.59h3.84l3.71,22.59ZM653.24,186c-25.37,0-28.28-12.75-21.36-45,7-33.15,17.12-45,40.55-45,20.39,0,25.74,10.68,22.21,27.43l-1.21,5.47H671.58l1.09-4.86c2.06-9.83.85-12.75-3.52-12.75-6.92,0-9,6.32-14,29.75s-5.59,29.74,1.33,29.74c5.59,0,7.77-4.85,11.29-21.24h21.86l-1.34,6.43C683.11,180.18,667.69,186,653.24,186Zm86-50.5,14.2,48.8H727.67l-6.8-30.23-6.31,7.28-4.86,22.95H687.12l18.45-86.68h22.58l-7,33.26h.25l23.79-33.26h24Z"/><path class="cls-1" d="M597.94,203.49h-5.82l-1.67,7.7h6.77c2.83,0,5.25-1.16,5.25-4.34C602.47,203.93,600.36,203.49,597.94,203.49Z"/><path class="cls-1" d="M285.74,111.22c-6.92,0-9,6.32-14,29.75s-5.59,29.74,1.33,29.74,9-6.31,14-29.74S292.66,111.22,285.74,111.22Z"/><path class="cls-1" d="M565.48,202.92c-5.6,0-8.84,5.44-8.84,11.42,0,5.13,2.8,7,6.42,7,6.19,0,8.87-7.11,8.87-11.48C571.93,205.75,570.14,202.92,565.48,202.92Z"/><polygon class="cls-1" points="505.63 203.68 499.93 214.46 507.32 214.46 505.66 203.68 505.63 203.68"/><polygon class="cls-1" points="626.69 203.68 620.99 214.46 628.39 214.46 626.72 203.68 626.69 203.68"/><path class="cls-1" d="M533.81,203.49h-4L526,220.85h4.5c3.61,0,5.85-.85,8-4.31a13.91,13.91,0,0,0,1.7-6.48C540.19,206.38,539.06,203.49,533.81,203.49Z"/><path class="cls-1" d="M542.28,124c1.45-7-.73-10.08-7.53-10.08h-4.37l-4.25,20.4h4.49C537.06,134.29,540.94,130.16,542.28,124Z"/></svg>