<svg id="servicio-audiovisual" data-name="Capa 1" xmlns="http://www.w3.org/2000/svg" viewBox="0 0 500 500"><defs><style>.cls-1{fill:#00ffff;}</style></defs><title>multimedia</title><path class="cls-1 animar" d="M250,116.65A107.41,107.41,0,1,0,357.41,224.06,107.53,107.53,0,0,0,250,116.65Zm44.85,116.71L244.46,270a11.5,11.5,0,0,1-18.25-9.3v-73.2a11.49,11.49,0,0,1,18.25-9.29l50.39,36.59a11.49,11.49,0,0,1,0,18.6Z"/><path d="M459.63,52.85H40.37A40.42,40.42,0,0,0,0,93.22V354.9a40.42,40.42,0,0,0,40.37,40.37H195.45v26.84H144.3l-19,43.36H374.73l-19-43.36H304.55V395.27H459.63A40.42,40.42,0,0,0,500,354.9V93.22A40.42,40.42,0,0,0,459.63,52.85Zm5.76,302a5.77,5.77,0,0,1-5.76,5.77H40.37a5.78,5.78,0,0,1-5.77-5.77V93.22a5.78,5.78,0,0,1,5.77-5.77H459.63a5.77,5.77,0,0,1,5.76,5.77V354.9Z"/></svg>
