<?xml version="1.0" encoding="utf-8"?>
<!-- Generator: Adobe Illustrator 22.1.0, SVG Export Plug-In . SVG Version: 6.00 Build 0)  -->
<svg version="1.1" id="Capa_1" xmlns="http://www.w3.org/2000/svg" xmlns:xlink="http://www.w3.org/1999/xlink" x="0px" y="0px"
	 viewBox="0 0 512 512" style="enable-background:new 0 0 512 512;" xml:space="preserve">
<style type="text/css">
	.st0{fill:#00FFFF;}
</style>
<path class="st0" d="M296,440.4h-87.7v64.1h95.2v-64.1H296z"/>
<path d="M175.8,497h160.3v15H175.8V497z"/>
<g>
	<path class="st0" d="M215.9,352.7h16v15h-16V352.7z"/>
	<path class="st0" d="M247.9,352.7h16v15h-16V352.7z"/>
	<path class="st0" d="M280,352.7h16v15h-16V352.7z"/>
	<path class="st0" d="M237.2,138.5l-37.4-37.4l-61.4,61.4l5.3,5.3v16h48.1l34.6-34.9l0.1,0.1L237.2,138.5z"/>
</g>
<path d="M472.4,112.2h-96.7V0H136.2v239.5h239.5V127.3h96.7c0.3,0,0.5,0.2,0.5,0.5v304.6c0,0.3-0.2,0.5-0.5,0.5H39.5
	c-0.3,0-0.5-0.2-0.5-0.5v-32.6h417.3v-15H39v-257c0-0.3,0.2-0.5,0.5-0.5h80.2v-15H39.5c-8.6,0-15.5,7-15.5,15.5v304.6
	c0,8.6,7,15.5,15.5,15.5h432.8c8.6,0,15.5-7,15.5-15.5V127.8C487.9,119.2,480.9,112.2,472.4,112.2z M360.7,224.4H151.3v-33.1h209.4
	V224.4z M210,176.3l70-70l70,70H210z M360.7,165.7L280,85.1l-91.3,91.3h-37.5V15h209.4v150.7H360.7z"/>
<path class="st0" d="M320.1,32.1c-13,0-23.5,10.6-23.5,23.5s10.6,23.5,23.5,23.5s23.5-10.6,23.5-23.5S333.1,32.1,320.1,32.1z"/>
<path class="st0" d="M72.1,256.5h367.7v79.2H72.1V256.5z"/>
<path d="M104.2,256.5h15v28.6h-15V256.5z"/>
<path d="M136.2,256.5h15v47.6h-15V256.5z"/>
<path d="M168.3,256.5h15v28.6h-15V256.5z"/>
<path d="M200.3,256.5h15v47.6h-15V256.5z"/>
<path d="M232.4,256.5h15v28.6h-15V256.5z"/>
<path d="M264.5,256.5h15v47.6h-15V256.5z"/>
<path d="M296.5,256.5h15v28.6h-15V256.5z"/>
<path d="M328.6,256.5h15v47.6h-15V256.5z"/>
<path d="M360.7,256.5h15v28.6h-15V256.5z"/>
<path d="M392.7,256.5h15v47.6h-15V256.5z"/>
</svg>
