<svg id="servicio-creatividad" data-name="Capa 1" xmlns="http://www.w3.org/2000/svg" viewBox="0 0 500 500"><defs><style>.cls-1{fill:#00ffff;}</style></defs><title>creatividad</title><path d="M250.17,77.18c-82,0-148.76,64.55-148.76,143.84,0,51.47,20.89,82.08,36.26,104.64,9.46,13.88,14.82,22.14,14.82,30.45,0,18.66,10,36.25,27.77,49.43.45,11.06,2.08,38.07,2.08,38.07v0c.3,7.67,4.33,23.4,30.76,32.18a44.25,44.25,0,0,0,12.16,11.95A18.74,18.74,0,0,0,235.77,491h28.8a18.56,18.56,0,0,0,10.51-3.23,44.21,44.21,0,0,0,12.15-11.95C313.9,466.94,317.78,451,318,443.59c0,0,1.62-27,2.07-38,17.77-13.19,27.78-30.77,27.78-49.43,0-8.31,5.35-16.58,14.9-30.57,15.27-22.37,36.19-53,36.19-104.54C398.93,141.7,332.19,77.18,250.17,77.18Zm81.41,227.29c-11,16.11-21.35,31.32-21.35,51.64,0,8.93-8.08,16.12-14.09,20.27H204.21c-6-4.14-14.09-11.34-14.09-20.27,0-20.32-10.38-35.53-21.49-51.83C154.76,283.94,139,260.87,139,221c0-58.55,49.86-106.21,111.15-106.23S361.33,162.45,361.33,221C361.33,260.94,345.56,284,331.58,304.47Z"/><path d="M250.17,49a9.4,9.4,0,0,0,9.39-9.41V11.34a9.4,9.4,0,1,0-18.8,0V39.55A9.41,9.41,0,0,0,250.17,49Z"/><path d="M150.24,68.85a9.41,9.41,0,1,0,16.3-9.41L152.43,35a9.41,9.41,0,0,0-16.3,9.41Z"/><path d="M95.92,123.18l-24.43-14.1a9.41,9.41,0,1,0-9.41,16.29l24.43,14.1A9.41,9.41,0,0,0,99.36,136,9.42,9.42,0,0,0,95.92,123.18Z"/><path d="M76,223.1a9.4,9.4,0,0,0-9.4-9.4H38.41a9.41,9.41,0,1,0,0,18.81H66.62A9.41,9.41,0,0,0,76,223.1Z"/><path d="M86.51,306.73,62.07,320.82a9.39,9.39,0,0,0,4.7,17.54,9.28,9.28,0,0,0,4.69-1.26L95.9,323a9.4,9.4,0,1,0-9.39-16.28Z"/><path d="M438.27,320.84l-24.44-14.11A9.4,9.4,0,1,0,404.42,323l24.43,14.1a9.26,9.26,0,0,0,4.69,1.26,9.4,9.4,0,0,0,4.73-17.53Z"/><path d="M461.93,213.71H433.74a9.4,9.4,0,0,0,0,18.8h28.21a9.4,9.4,0,0,0,0-18.8Z"/><path d="M409.12,140.72a9.23,9.23,0,0,0,4.69-1.26l24.45-14.09a9.4,9.4,0,1,0-9.4-16.28l-24.43,14.09a9.39,9.39,0,0,0,4.69,17.54Z"/><path d="M337.24,72.27a9.19,9.19,0,0,0,4.69,1.27,9.4,9.4,0,0,0,8.15-4.7l14.09-24.42A9.4,9.4,0,1,0,347.89,35L333.8,59.44A9.41,9.41,0,0,0,337.24,72.27Z"/><path class="cls-1 animar" d="M237.56,279.9c1.13,8.33,5.16,10.63,12.61,10.63s11.47-2.3,12.62-10.63l8.89-67.08a113.93,113.93,0,0,0,1.12-13.46V166.1c0-14.62-8.31-22.08-22.64-22.08s-22.66,7.45-22.66,22.08v33.26a112,112,0,0,0,1.15,13.46Z"/><path class="cls-1 animar" d="M250.17,309.13a23.52,23.52,0,1,0,23.5,23.52A23.62,23.62,0,0,0,250.17,309.13Z"/></svg>
