<?xml version="1.0" encoding="utf-8"?>
<!-- Generator: Adobe Illustrator 22.1.0, SVG Export Plug-In . SVG Version: 6.00 Build 0)  -->
<svg version="1.1" id="Capa_1" xmlns="http://www.w3.org/2000/svg" xmlns:xlink="http://www.w3.org/1999/xlink" x="0px" y="0px"
	 viewBox="0 0 512 512" style="enable-background:new 0 0 512 512;" xml:space="preserve">
<style type="text/css">
	.st0{fill:#00FFFF;}
</style>
<path d="M56,95.7h15v256.5H56V95.7z"/>
<path class="st0" d="M56,472.9v23.5c0,8.6,7,15.5,15.5,15.5h368.7c8.6,0,15.5-7,15.5-15.5v-23.5H56z"/>
<path d="M56,368.7v111.2h399.8V368.7H56z M407.7,383.8h33.1v17h-33.1V383.8z M440.8,415.8v17h-17v-17H440.8z M408.7,415.8v17h-25
	v-17H408.7z M359.6,383.8h33.1v17h-33.1V383.8z M368.6,415.8v17h-33.1v-17H368.6z M311.5,383.8h33.1v17h-33.1V383.8z M320.5,415.8
	v17h-33.1v-17H320.5z M263.4,383.8h33.1v17h-33.1V383.8z M272.4,415.8v17h-33.1v-17H272.4z M215.3,383.8h33.1v17h-33.1L215.3,383.8
	L215.3,383.8z M224.3,415.8v17h-33.1v-17H224.3z M167.2,383.8h33.1v17h-33.1L167.2,383.8L167.2,383.8z M176.2,415.8v17h-33.1v-17
	H176.2z M119.1,383.8h33.1v17h-33.1V383.8z M128.1,415.8v17h-25v-17H128.1z M71,383.8h33.1v17H71V383.8z M71,415.8h17v17H71V415.8z
	 M71,464.9v-17h33.1v17H71z M119.1,464.9v-17h33.1v17H119.1z M167.2,464.9v-17h33.1v17H167.2z M215.3,464.9v-17h81.2v17H215.3z
	 M311.5,464.9v-17h33.1v17H311.5z M359.6,464.9v-17h33.1v17H359.6z M407.7,464.9v-17h33.1v17H407.7z"/>
<path d="M455.8,352.2h-15v-273H56V0h399.8V352.2z M71,64.1h369.7V15H71V64.1z"/>
<g>
	<path class="st0" d="M95.6,32.1h16v15h-16V32.1z"/>
	<path class="st0" d="M127.6,32.1h16v15h-16C127.6,47.1,127.6,32.1,127.6,32.1z"/>
	<path class="st0" d="M159.7,32.1h16v15h-16V32.1z"/>
	<path class="st0" d="M152.2,96.2h143.3v47.1H152.2V96.2z"/>
	<path class="st0" d="M152.2,288.6h143.3v47.1H152.2V288.6z"/>
	<path class="st0" d="M152.2,192.4h143.3v47.1H152.2V192.4z"/>
</g>
<path d="M135.7,127.3v-15H88.1v207.4h47.6v-15h-32.6v-81.2h32.6v-15h-32.6v-81.2L135.7,127.3L135.7,127.3z"/>
<path d="M312,208.4h56.1v15H312V208.4z"/>
<path d="M399.7,199.9h-15v-72.6H312v-15h87.7V199.9z"/>
<path class="st0" d="M360.6,192.4h63.1v47.1h-63.1V192.4z"/>
</svg>
