<svg id="servicio-desarrollo" data-name="Capa 1" xmlns="http://www.w3.org/2000/svg" viewBox="0 0 500 500"><defs><style>.cls-1{fill:#00ffff;}</style></defs><title>desarrollo-web</title><path d="M467.8,79.46H34C15.58,79.46,0,94.41,0,112.78V421.63C0,440,15.27,454.46,34,454.46H467.8c18.41,0,32.2-14.42,32.2-32.83V112.78C500,94.1,486.21,79.46,467.8,79.46Zm-353.74,19a12.21,12.21,0,1,1-12.2,12.2A12.21,12.21,0,0,1,114.06,98.45Zm-35,0a12.21,12.21,0,1,1-12.21,12.2A12.21,12.21,0,0,1,79,98.45Zm-35,0a12.21,12.21,0,1,1-12.21,12.2A12.21,12.21,0,0,1,44,98.45ZM469.7,423.21c0,.52.2,1-.32,1H30.3V142.91c0-.52,1.06-.95,1.58-.95h437.5c.52,0,.32.43.32.95v280.3ZM458.12,123H325.55a12.29,12.29,0,0,1,0-24.57l132.57,0a12.27,12.27,0,0,1,0,24.53Z"/><path d="M75.55,217.72H208.12a12.28,12.28,0,0,0,0-24.55l-132.57,0a12.3,12.3,0,0,0,0,24.6Z"/><path d="M208.12,234.84l-132.57-.05a12.3,12.3,0,0,0,0,24.6H208.12a12.28,12.28,0,0,0,0-24.55Z"/><path d="M208.12,276.5l-132.57,0a12.3,12.3,0,0,0,0,24.59H208.12a12.28,12.28,0,0,0,0-24.55Z"/><path d="M208.12,318.17l-132.57-.05a12.3,12.3,0,0,0,0,24.6H208.12a12.28,12.28,0,0,0,0-24.55Z"/><path class="cls-1 animar" d="M414.46,189.31H274.3c-13.05,0-24.3,10.62-24.3,23.67v141.1c0,12.55,10.81,22.73,23.36,22.73h141.1c13.05,0,23-10.62,23-23.67V213C437.5,199.93,427.51,189.31,414.46,189.31Z"/></svg>
