<svg id="servicio-disenio" data-name="Capa 1" xmlns="http://www.w3.org/2000/svg" viewBox="0 0 500 500"><defs><style>.cls-1{fill:#00ffff;}</style></defs><title>disenio-grafico</title><path d="M313.07,371.81,53.73,114l62-61.61L375.06,310.2Zm82.47-41.28,20.76,20.63-62,61.62-20.76-20.64ZM136.75,443.26,95.4,402.16l20.68-20.55,41.35,41.1,41.35-41.1-41.35-41.1L178.1,320l41.35,41.1,20.73-20.61-82.7-82.2L1,413.8,83.7,496ZM260.81,155.55l82.7,82.2,20.73-20.61L322.89,176l20.68-20.55,41.35,41.1,41.35-41.1-41.35-41.1,20.67-20.55,41.35,41.1L500,82.2,417.3,0Z"/><polygon class="cls-1 animar" points="32.98 93.44 1 0 95.01 31.79 32.98 93.44"/><polygon class="cls-1 animar" points="375.06 433.27 437.04 371.66 500 434.24 438.02 495.85 375.06 433.27"/></svg>
