<?xml version="1.0" encoding="utf-8"?>
<!-- Generator: Adobe Illustrator 22.1.0, SVG Export Plug-In . SVG Version: 6.00 Build 0)  -->
<svg version="1.1" id="Capa_1" xmlns="http://www.w3.org/2000/svg" xmlns:xlink="http://www.w3.org/1999/xlink" x="0px" y="0px"
	 viewBox="0 0 512 512" style="enable-background:new 0 0 512 512;" xml:space="preserve">
<style type="text/css">
	.st0{fill:#00FFFF;}
</style>
<g>
	<path class="st0" d="M191.7,360.3h16v15h-16V360.3z"/>
	<path class="st0" d="M223.7,360.3h16v15h-16V360.3z"/>
	<path class="st0" d="M255.8,360.3h16v15h-16L255.8,360.3L255.8,360.3z"/>
</g>
<path d="M400.4,199.6v32h15v-32c0-8.6-7-15.5-15.5-15.5H127.6v15h272.3C400.2,199.1,400.4,199.3,400.4,199.6z"/>
<path d="M415.4,392.3v-72.6h-15v72.6H268.7l-8,8h-57.8l-8-8H63.1v-33h32.5c8.6,0,15.5-7,15.5-15.5V72H0v271.8
	c0,8.6,7,15.5,15.5,15.5H48v33H32v31.5c0,8.6,7,15.5,15.5,15.5h368.4c8.6,0,15.5-7,15.5-15.5v-31.5H415.4z M15,87h81.1v49H15V87z
	 M15,151.1h81.1v49H15V151.1z M15,343.8v-64.6h64.6v-15H15v-49h81.1v128.6c0,0.3-0.2,0.5-0.5,0.5H15.5C15.2,344.3,15,344,15,343.8z
	 M416.4,423.8c0,0.3-0.2,0.5-0.5,0.5H47.5c-0.3,0-0.5-0.2-0.5-0.5v-16.5h141.5l8,8h70.3l8-8h141.5v16.5H416.4z"/>
<path class="st0" d="M55.6,288.2c-13,0-23.5,10.6-23.5,23.5c0,13,10.6,23.5,23.5,23.5c13,0,23.5-10.6,23.5-23.5
	C79.1,298.8,68.5,288.2,55.6,288.2z"/>
<path class="st0" d="M144.1,248.2h367.4v79.1H144.1V248.2z"/>
<path d="M176.2,248.2h15v28.5h-15V248.2z"/>
<path d="M208.2,248.2h15v47.5h-15V248.2z"/>
<path d="M240.2,248.2h15v28.5h-15V248.2z"/>
<path d="M272.3,248.2h15v47.5h-15V248.2z"/>
<path d="M304.3,248.2h15v28.5h-15V248.2z"/>
<path d="M336.3,248.2h15v47.5h-15V248.2z"/>
<path d="M368.4,248.2h15v28.5h-15V248.2z"/>
<path d="M400.4,248.2h15v47.5h-15V248.2z"/>
<path d="M432.4,248.2h15v28.5h-15V248.2z"/>
<path d="M464.5,248.2h15v47.5h-15V248.2z"/>
<path class="st0" d="M458.9,167.8h37.5c8.6,0,15.5-7,15.5-15.5v-48c0-8.6-7-15.5-15.5-15.5h-37.5V167.8z"/>
<path d="M183.4,128.2l79.1,39.5h186.4l0,0h15v-79h-15l0,0H262.5L183.4,128.2z M256.8,108.4v39.8l-39.8-20L256.8,108.4z M271.8,152.8
	v-17H449v17H271.8z M448.9,120.7H271.8v-17H449v17H448.9z"/>
</svg>
