<svg id="servicio-marketing" data-name="Capa 1" xmlns="http://www.w3.org/2000/svg" viewBox="0 0 500 500"><defs><style>.cls-1{fill:#00ffff;}</style></defs><title>marketing-digital</title><path d="M53.31,394.87h50.15a17.78,17.78,0,0,0,17.78-17.78V198.88a17.78,17.78,0,0,0-17.78-17.78H53.31a17.79,17.79,0,0,0-17.79,17.78V377.09A17.79,17.79,0,0,0,53.31,394.87Z"/><path d="M167.34,394.87h50.14a17.78,17.78,0,0,0,17.77-17.78V59.92a17.77,17.77,0,0,0-17.77-17.77H167.34a17.76,17.76,0,0,0-17.79,17.77V377.09A17.77,17.77,0,0,0,167.34,394.87Z"/><path class="cls-1 animar" d="M281.33,394.87h50.16a17.78,17.78,0,0,0,17.77-17.77V138.29a17.78,17.78,0,0,0-17.77-17.77H281.33a17.78,17.78,0,0,0-17.77,17.77V377.1A17.78,17.78,0,0,0,281.33,394.87Zm3.61-253h42.95V373.49H284.94Z"/><path d="M397.13,394.87h50.14A17.76,17.76,0,0,0,465,377.09V266.57a17.76,17.76,0,0,0-17.77-17.78H397.13a17.76,17.76,0,0,0-17.77,17.78V377.09A17.77,17.77,0,0,0,397.13,394.87Z"/><path d="M477.43,416.25h-456a21.38,21.38,0,1,0,0,42.75H477.43a21.38,21.38,0,1,0,0-42.75Z"/></svg>
