<svg xmlns="http://www.w3.org/2000/svg" viewBox="0 0 207.3 128"><defs><style>.cls-1{fill:#326387;}.cls-2{fill:#a02c56;}</style></defs><title>fondo</title><g id="Capa_2" data-name="Capa 2"><g id="Capa_1-2" data-name="Capa 1"><path class="cls-1" d="M75.9,63.7A5.81,5.81,0,0,0,77.7,62a7,7,0,0,0,1.1-3.7,6.58,6.58,0,0,0-2.1-5.1A8.3,8.3,0,0,0,71,51.4H61.5V76.8h9.7A8.81,8.81,0,0,0,77,74.9a6.75,6.75,0,0,0,2.2-5.3,8,8,0,0,0-1.1-4A7.7,7.7,0,0,0,75.9,63.7ZM65.2,65.5h5.7a5.24,5.24,0,0,1,3.4,1,3.44,3.44,0,0,1,1.1,2.9,3.44,3.44,0,0,1-1.1,2.9,5.24,5.24,0,0,1-3.4,1H65.3Zm8.7-4.3a4.62,4.62,0,0,1-3.2.9H65.2V54.8h5.5a5.2,5.2,0,0,1,3.2.9A3.48,3.48,0,0,1,75,58.4,3.25,3.25,0,0,1,73.9,61.2Z"/><rect class="cls-1" x="84.2" y="56.5" width="4.3" height="4.4"/><rect class="cls-1" x="84.2" y="68.4" width="4.3" height="4.4"/><path class="cls-1" d="M103,51.4H94.1V76.8H103a8.65,8.65,0,0,0,6.5-2.4c1.6-1.6,2.4-4.1,2.4-7.4V61.3c0-3.4-.8-5.9-2.4-7.4A8.88,8.88,0,0,0,103,51.4Zm0,21.9H97.9V54.9H103a4.64,4.64,0,0,1,3.8,1.5c.9,1,1.4,2.7,1.4,5v5.7c0,4.1-1.7,6.2-5.2,6.2Z"/><polygon class="cls-1" points="117.1 61.4 120.5 58.1 120.5 51.4 117.1 51.4 117.1 61.4"/><path class="cls-1" d="M132.6,51.4l-9.3,25.4h4l2-5.8h9.5l2,5.8h3.9l-9.2-25.4Zm5,16.2h-7.2L134,57.3Z"/><polygon class="cls-1" points="145.7 61.4 149.2 58.1 149.2 51.4 145.7 51.4 145.7 61.4"/><polygon class="cls-1" points="153.8 51.4 153.8 61.4 157.3 58.1 157.3 51.4 153.8 51.4"/><path class="cls-2" d="M142.4,8.8H65C34.5,8.8,9.1,33.6,9.1,64.1S34.6,119.4,65,119.4h77.3c30.5,0,55.9-24.8,55.9-55.3S172.9,8.8,142.4,8.8Zm0,107.2H65c-28.6,0-52.6-23.3-52.6-51.9S36.4,12.2,65,12.2h77.3c28.6,0,52.6,23.3,52.6,51.9S171.1,116,142.4,116Zm0-116H65C29.7,0,0,28.7,0,64s29.7,64,65,64h77.3c35.3,0,65-28.7,65-64S177.8,0,142.4,0Zm0,124.8H65c-33.5,0-61.7-27.2-61.7-60.7S31.5,3.4,65,3.4h77.3c33.5,0,61.7,27.2,61.7,60.7s-28.1,60.6-61.6,60.7Zm0-98.5H65a37.76,37.76,0,0,0-1.3,75.5h78.5a37.76,37.76,0,0,0,.2-75.5Zm0,72.2H65a34.41,34.41,0,1,1-1.2-68.8h78.5a34.41,34.41,0,0,1,.1,68.8Zm0-80.9H65c-25.6,0-46.8,20.9-46.8,46.5s21.2,46.5,46.9,46.5h77.4c25.6,0,46.8-20.9,46.8-46.5s-21.2-46.5-46.9-46.5Zm0,89.6H65c-23.8,0-43.5-19.4-43.5-43.1S41.2,20.9,65,20.9h77.3c23.8,0,43.5,19.4,43.5,43.2s-19.6,43.1-43.4,43.1Z"/></g></g></svg>